<?xml version="1.0" encoding="UTF-8" standalone="no"?>
<svg
   xmlns:dc="http://purl.org/dc/elements/1.1/"
   xmlns:cc="http://creativecommons.org/ns#"
   xmlns:rdf="http://www.w3.org/1999/02/22-rdf-syntax-ns#"
   xmlns:svg="http://www.w3.org/2000/svg"
   xmlns="http://www.w3.org/2000/svg"
   xmlns:sodipodi="http://sodipodi.sourceforge.net/DTD/sodipodi-0.dtd"
   xmlns:inkscape="http://www.inkscape.org/namespaces/inkscape"
   version="1.0"
   width="1280.000000pt"
   height="878.000000pt"
   viewBox="0 0 1280.000000 878.000000"
   preserveAspectRatio="xMidYMid meet"
   id="svg456"
   sodipodi:docname="greetings.svg"
   inkscape:version="0.92.4 (5da689c313, 2019-01-14)">
  <defs
     id="defs460" />
  <sodipodi:namedview
     pagecolor="#ffffff"
     bordercolor="#666666"
     borderopacity="1"
     objecttolerance="10"
     gridtolerance="10"
     guidetolerance="10"
     inkscape:pageopacity="0"
     inkscape:pageshadow="2"
     inkscape:window-width="1366"
     inkscape:window-height="745"
     id="namedview458"
     showgrid="false"
     inkscape:zoom="0.20159453"
     inkscape:cx="853.33333"
     inkscape:cy="585.33333"
     inkscape:window-x="-8"
     inkscape:window-y="-8"
     inkscape:window-maximized="1"
     inkscape:current-layer="svg456" />
  <metadata
     id="metadata2">
Created by potrace 1.15, written by Peter Selinger 2001-2017
<rdf:RDF>
  <cc:Work
     rdf:about="">
    <dc:format>image/svg+xml</dc:format>
    <dc:type
       rdf:resource="http://purl.org/dc/dcmitype/StillImage" />
  </cc:Work>
</rdf:RDF>
</metadata>
  <g
     transform="translate(0.000000,878.000000) scale(0.100000,-0.100000)"
     fill="#000000"
     stroke="none"
     id="g454"
     style="fill:#ffffff;fill-opacity:1">
    <path
       d="M3746 8765 c-38 -13 -45 -19 -68 -60 -18 -30 -14 -135 5 -172 19 -36 62 -63 102 -63 23 0 25 3 25 50 0 41 -3 50 -18 50 -25 0 -42 20 -42 50 0 37 18 50 67 50 l43 0 0 -47 c0 -59 29 -126 64 -148 59 -39 167 -27 206 22 28 36 28 120 -1 157 l-20 26 20 0 c18 0 21 6 21 50 l0 50 -182 0 c-130 -1 -194 -5 -222 -15z m296 -107 c43 -34 19 -100 -35 -100 -41 0 -67 28 -67 74 l0 38 43 0 c24 0 50 -6 59 -12z"
       id="path4"
       style="fill:#ffffff;fill-opacity:1" />
    <path
       d="M11386 8569 c-86 -21 -122 -72 -114 -166 4 -49 10 -61 41 -89 46 -43 103 -57 203 -52 60 3 89 10 116 26 89 55 91 208 3 262 -52 32 -65 27 -65 -24 0 -36 5 -47 25 -60 17 -11 25 -26 25 -45 0 -36 -18 -51 -69 -58 l-40 -6 -3 109 -3 109 -40 2 c-22 1 -57 -3 -79 -8z m54 -149 c0 -56 -2 -60 -23 -60 -12 0 -33 7 -45 16 -47 32 -12 103 51 104 14 0 17 -9 17 -60z"
       id="path6"
       style="fill:#ffffff;fill-opacity:1" />
    <path
       d="M3677 8374 c-4 -4 -7 -29 -7 -56 l0 -48 168 0 c186 0 215 -7 220 -53 6 -54 -4 -57 -204 -57 l-184 0 0 -55 0 -55 194 0 c200 0 231 5 266 40 28 28 28 117 0 153 -20 25 -20 25 1 30 17 5 20 12 17 54 l-3 48 -231 3 c-127 1 -233 -1 -237 -4z"
       id="path8"
       style="fill:#ffffff;fill-opacity:1" />
    <path
       d="M5511 8238 c-38 -51 -38 -58 -3 -58 18 0 42 15 75 46 26 25 47 47 47 50 0 2 -20 4 -44 4 -40 0 -47 -4 -75 -42z"
       id="path10"
       style="fill:#ffffff;fill-opacity:1" />
    <path
       d="M4930 8230 l0 -40 40 0 40 0 0 40 0 40 -40 0 -40 0 0 -40z"
       id="path12"
       style="fill:#ffffff;fill-opacity:1" />
    <path
       d="M6020 8200 l0 -70 -27 11 c-72 27 -138 -23 -153 -117 -15 -89 1 -172 40 -206 34 -32 83 -37 117 -13 16 12 22 12 26 2 3 -8 19 -11 47 -9 41 4 42 5 36 34 -3 17 -6 122 -6 234 l0 204 -40 0 -40 0 0 -70z m-10 -139 c15 -28 13 -163 -3 -185 -18 -25 -58 -17 -75 14 -16 32 -12 151 7 174 18 22 58 20 71 -3z"
       id="path14"
       style="fill:#ffffff;fill-opacity:1" />
    <path
       d="M6490 8035 l0 -235 40 0 c22 0 40 5 40 11 0 5 10 3 22 -5 38 -27 86 -20 123 17 27 27 34 44 40 91 14 112 -9 201 -60 224 -34 16 -54 15 -89 -3 -15 -8 -30 -15 -32 -15 -2 0 -4 34 -4 75 l0 75 -40 0 -40 0 0 -235z m171 29 c17 -21 18 -151 0 -182 -17 -31 -61 -27 -79 8 -16 32 -12 151 7 174 17 21 55 21 72 0z"
       id="path16"
       style="fill:#ffffff;fill-opacity:1" />
    <path
       d="M4320 8025 l0 -225 89 0 c103 0 140 18 175 85 30 58 30 222 0 280 -30 59 -87 85 -186 85 l-78 0 0 -225z m163 141 c24 -18 37 -68 37 -141 0 -113 -29 -165 -92 -165 l-28 0 0 160 0 160 33 0 c17 0 40 -7 50 -14z"
       id="path18"
       style="fill:#ffffff;fill-opacity:1" />
    <path
       d="M11270 8209 c0 -29 26 -75 47 -84 15 -7 13 -9 -12 -14 -28 -6 -30 -9 -30 -51 l0 -45 208 -3 207 -2 0 50 0 50 -115 0 c-162 0 -185 11 -197 95 -3 17 -12 20 -56 22 -46 1 -52 -1 -52 -18z"
       id="path20"
       style="fill:#ffffff;fill-opacity:1" />
    <path
       d="M5165 8143 c-56 -14 -95 -83 -95 -170 0 -120 34 -173 118 -181 72 -6 123 23 137 81 7 26 6 27 -33 27 -31 0 -42 -4 -47 -19 -12 -40 -69 -33 -84 11 -20 57 -19 58 78 58 66 0 90 4 94 14 8 20 -4 97 -19 127 -22 44 -88 67 -149 52z m73 -75 c7 -7 12 -22 12 -35 0 -21 -4 -23 -51 -23 -48 0 -50 1 -43 23 3 12 11 28 16 35 13 15 50 16 66 0z"
       id="path22"
       style="fill:#ffffff;fill-opacity:1" />
    <path
       d="M5520 8143 c-8 -3 -23 -12 -32 -21 -16 -14 -18 -13 -18 1 0 13 -9 17 -40 17 l-40 0 2 -172 3 -171 40 0 40 0 3 130 c3 143 10 161 57 149 24 -6 24 -7 27 -143 l3 -136 40 0 40 0 3 131 c2 98 -1 140 -12 167 -19 45 -68 66 -116 48z"
       id="path24"
       style="fill:#ffffff;fill-opacity:1" />
    <path
       d="M6250 8139 c-14 -6 -35 -19 -47 -31 -45 -42 -55 -186 -19 -257 45 -87 193 -78 232 14 22 53 18 167 -7 216 -30 59 -96 83 -159 58z m87 -89 c7 -14 13 -50 13 -80 0 -67 -17 -104 -50 -108 -37 -6 -50 22 -50 109 0 58 4 82 16 94 23 22 56 15 71 -15z"
       id="path26"
       style="fill:#ffffff;fill-opacity:1" />
    <path
       d="M6960 8143 c-8 -3 -25 -15 -37 -26 l-23 -20 0 21 c0 19 -6 22 -40 22 l-40 0 0 -170 0 -170 40 0 40 0 0 103 c0 115 10 141 60 152 28 6 30 10 30 51 0 44 -2 47 -30 37z"
       id="path28"
       style="fill:#ffffff;fill-opacity:1" />
    <path
       d="M4652 8108 c3 -33 4 -33 64 -38 l61 -5 -68 -105 c-42 -64 -69 -116 -69 -132 l0 -28 114 0 c109 0 114 1 120 23 3 12 6 25 6 29 0 4 -32 8 -70 10 l-71 3 70 110 c43 67 71 121 71 138 l0 27 -116 0 -115 0 3 -32z"
       id="path30"
       style="fill:#ffffff;fill-opacity:1" />
    <path
       d="M4930 7967 l0 -173 40 4 40 4 0 169 0 169 -40 0 -40 0 0 -173z"
       id="path32"
       style="fill:#ffffff;fill-opacity:1" />
    <path
       d="M7071 7983 c66 -211 65 -207 40 -232 -12 -12 -30 -21 -41 -21 -16 0 -20 -7 -20 -30 0 -29 2 -30 45 -30 32 0 51 6 65 20 26 26 28 32 91 247 28 98 54 184 56 191 4 8 -8 12 -39 12 l-44 0 -23 -102 c-12 -57 -25 -110 -28 -118 -3 -8 -16 32 -29 90 -13 58 -26 111 -29 118 -2 7 -22 12 -49 12 l-44 0 49 -157z"
       id="path34"
       style="fill:#ffffff;fill-opacity:1" />
    <path
       d="M3497 7953 c-4 -3 -7 -28 -7 -55 l0 -48 55 0 55 0 0 55 0 55 -48 0 c-27 0 -52 -3 -55 -7z"
       id="path36"
       style="fill:#ffffff;fill-opacity:1" />
    <path
       d="M3670 7900 l0 -50 240 0 240 0 0 50 0 50 -240 0 -240 0 0 -50z"
       id="path38"
       style="fill:#ffffff;fill-opacity:1" />
    <path
       d="M11485 7920 c-82 -3 -158 -9 -167 -13 -43 -22 -64 -147 -33 -207 18 -35 52 -60 82 -60 20 0 23 5 23 44 0 35 -4 46 -19 51 -23 7 -35 37 -26 64 6 19 33 31 73 31 20 0 22 -5 22 -47 1 -63 30 -128 69 -147 65 -34 160 -7 182 52 14 35 5 98 -16 122 -14 16 -14 18 0 23 10 5 15 20 15 52 0 43 -1 45 -27 43 -16 -1 -95 -5 -178 -8z m120 -110 c18 -15 20 -61 3 -78 -17 -17 -58 -15 -80 5 -12 10 -18 30 -18 56 l0 40 40 -6 c23 -3 47 -11 55 -17z"
       id="path40"
       style="fill:#ffffff;fill-opacity:1" />
    <path
       d="M4053 7774 c-2 -7 -3 -47 -1 -88 2 -59 0 -75 -10 -71 -7 2 -73 41 -147 85 -115 68 -142 80 -180 80 l-45 0 0 -145 0 -145 45 0 45 0 0 85 c0 47 2 85 4 85 3 0 72 -40 154 -90 124 -75 157 -90 191 -90 l42 0 -3 148 -3 147 -43 6 c-31 4 -45 2 -49 -7z"
       id="path42"
       style="fill:#ffffff;fill-opacity:1" />
    <path
       d="M5294 7649 c-45 -13 -100 -78 -109 -128 -17 -104 23 -167 146 -233 98 -52 119 -76 119 -134 0 -54 -26 -84 -73 -84 -43 0 -75 23 -85 63 -8 31 -10 32 -69 35 l-60 3 7 -40 c18 -101 83 -151 195 -151 118 0 178 42 205 139 14 54 -1 132 -35 176 -13 18 -56 49 -97 70 -108 56 -126 71 -134 110 -18 98 109 129 134 32 8 -31 10 -32 65 -35 57 -3 57 -3 57 25 0 16 -10 49 -22 73 -39 76 -141 109 -244 79z"
       id="path44"
       style="fill:#ffffff;fill-opacity:1" />
    <path
       d="M5640 7600 l0 -50 120 0 c66 0 120 -2 120 -5 0 -2 -58 -111 -130 -242 -102 -186 -130 -245 -130 -275 l0 -38 195 0 195 0 5 25 c3 14 7 36 10 50 l5 25 -130 0 c-71 0 -130 3 -130 7 0 4 54 107 120 229 109 201 120 227 120 273 l0 51 -185 0 -185 0 0 -50z"
       id="path46"
       style="fill:#ffffff;fill-opacity:1" />
    <path
       d="M6090 7320 l0 -330 60 0 60 0 0 330 0 330 -60 0 -60 0 0 -330z"
       id="path48"
       style="fill:#ffffff;fill-opacity:1" />
    <path
       d="M6360 7338 c-40 -172 -75 -321 -78 -330 -4 -16 3 -18 56 -18 l61 0 11 58 c23 113 12 102 100 102 l79 0 11 -57 c21 -113 13 -103 80 -103 38 0 60 4 60 11 0 11 -135 593 -146 632 -5 14 -18 17 -83 17 l-78 0 -73 -312z m177 69 c31 -157 33 -147 -30 -147 l-53 0 25 134 c14 74 28 132 31 130 2 -3 14 -55 27 -117z"
       id="path50"
       style="fill:#ffffff;fill-opacity:1" />
    <path
       d="M4310 7530 c0 -55 4 -100 8 -100 9 0 449 -88 466 -93 5 -2 -49 -13 -120 -25 -71 -12 -180 -32 -241 -43 l-113 -21 0 -99 0 -99 350 0 350 0 0 61 0 61 -294 -3 c-162 -2 -294 -3 -293 -2 1 1 124 22 272 47 149 26 280 49 293 51 20 5 22 11 22 64 l0 59 -47 11 c-27 5 -153 29 -280 53 -128 24 -233 45 -233 48 0 3 126 4 280 2 l280 -3 0 66 0 65 -350 0 -350 0 0 -100z"
       id="path52"
       style="fill:#ffffff;fill-opacity:1" />
    <path
       d="M11350 7550 c-73 -18 -107 -113 -60 -173 20 -25 20 -25 0 -30 -16 -4 -20 -14 -20 -51 l0 -46 210 0 210 0 0 50 0 50 -148 0 c-166 0 -196 9 -190 58 5 43 37 52 196 52 l142 0 0 50 0 50 -152 -1 c-84 -1 -169 -5 -188 -9z"
       id="path54"
       style="fill:#ffffff;fill-opacity:1" />
    <path
       d="M3760 7243 c-69 -22 -93 -61 -94 -148 0 -42 6 -71 19 -93 20 -33 68 -62 104 -62 18 0 21 6 21 48 0 44 -2 49 -30 59 -24 9 -30 17 -30 40 0 40 17 53 67 53 l43 0 0 -47 c0 -59 29 -126 64 -148 59 -39 167 -27 206 22 28 35 28 120 0 156 -20 25 -20 25 0 30 16 4 20 14 20 51 l0 46 -187 -1 c-104 0 -195 -3 -203 -6z m275 -109 c9 -4 21 -18 26 -32 14 -37 -12 -72 -53 -72 -44 0 -68 25 -68 72 0 38 0 38 39 38 22 0 47 -3 56 -6z"
       id="path56"
       style="fill:#ffffff;fill-opacity:1" />
    <path
       d="M3500 7182 c0 -26 6 -41 20 -50 11 -7 20 -23 20 -37 0 -14 -9 -30 -20 -37 -14 -9 -20 -24 -20 -51 0 -38 1 -39 28 -32 45 11 84 57 89 106 5 53 -11 86 -56 116 -49 33 -61 30 -61 -15z"
       id="path58"
       style="fill:#ffffff;fill-opacity:1" />
    <path
       d="M11335 7151 c-47 -20 -60 -49 -60 -132 0 -74 2 -80 30 -108 17 -16 42 -32 58 -35 27 -6 27 -6 27 41 0 40 -4 50 -22 58 -26 11 -35 49 -18 71 7 8 30 14 51 14 l39 0 0 -45 c0 -100 49 -155 136 -155 45 0 59 5 86 29 30 26 33 35 33 84 0 40 -5 61 -19 76 -17 19 -17 21 -3 21 13 0 17 10 17 45 l0 45 -167 -1 c-93 0 -177 -4 -188 -8z m230 -91 c53 0 75 -67 31 -95 -17 -11 -30 -13 -48 -6 -29 11 -38 29 -38 78 0 28 3 34 16 29 9 -3 26 -6 39 -6z"
       id="path60"
       style="fill:#ffffff;fill-opacity:1" />
    <path
       d="M11120 7090 l0 -40 45 0 45 0 0 40 0 40 -45 0 -45 0 0 -40z"
       id="path62"
       style="fill:#ffffff;fill-opacity:1" />
    <path
       d="M11120 6950 l0 -40 45 0 45 0 0 40 0 40 -45 0 -45 0 0 -40z"
       id="path64"
       style="fill:#ffffff;fill-opacity:1" />
    <path
       d="M4650 6895 c-184 -46 -336 -84 -338 -85 -1 0 -1 -39 0 -86 l3 -87 340 -83 c187 -46 343 -83 348 -84 4 0 7 29 7 65 0 73 11 64 -110 88 l-65 13 -3 82 c-4 94 -9 90 111 112 l67 12 0 69 c0 49 -4 69 -12 68 -7 0 -164 -38 -348 -84z m80 -176 c0 -58 -1 -61 -22 -56 -13 3 -72 16 -133 27 -60 12 -117 25 -125 27 -15 6 214 60 258 62 20 1 22 -3 22 -60z"
       id="path66"
       style="fill:#ffffff;fill-opacity:1" />
    <path
       d="M8710 6851 c-61 -22 -95 -57 -105 -108 -9 -48 11 -108 45 -136 49 -42 95 -52 230 -52 107 0 132 3 172 22 59 27 88 71 88 133 0 62 -29 106 -88 133 -69 31 -263 36 -342 8z m325 -67 c44 -21 62 -55 51 -98 -5 -20 -20 -33 -54 -49 -40 -19 -64 -22 -162 -21 -128 0 -176 14 -205 58 -33 49 4 107 79 125 69 17 245 8 291 -15z"
       id="path68"
       style="fill:#ffffff;fill-opacity:1" />
    <path
       d="M3722 6835 c-62 -27 -78 -119 -31 -179 l20 -26 -20 0 c-19 0 -21 -6 -21 -55 l0 -55 238 2 237 3 3 53 3 52 -168 0 c-190 0 -216 7 -221 56 -5 54 11 59 207 62 l176 2 3 50 3 50 -198 0 c-149 -1 -206 -4 -231 -15z"
       id="path70"
       style="fill:#ffffff;fill-opacity:1" />
    <path
       d="M9347 6844 c-4 -4 -7 -110 -7 -236 l0 -228 35 0 35 0 2 168 3 167 59 -167 58 -168 44 0 44 0 0 235 0 235 -35 0 -34 0 -3 -155 -3 -155 -55 153 -55 152 -40 3 c-23 2 -44 0 -48 -4z"
       id="path72"
       style="fill:#ffffff;fill-opacity:1" />
    <path
       d="M9764 6831 c-55 -33 -69 -79 -69 -221 0 -103 3 -132 19 -164 28 -56 69 -78 135 -73 46 3 59 9 82 35 38 42 52 100 52 208 1 156 -46 234 -141 234 -28 0 -59 -8 -78 -19z m112 -72 c15 -17 19 -40 22 -124 6 -144 -17 -205 -72 -191 -37 9 -51 57 -51 176 0 85 4 111 18 133 21 33 56 35 83 6z"
       id="path74"
       style="fill:#ffffff;fill-opacity:1" />
    <path
       d="M10057 6843 c-4 -3 -7 -109 -7 -235 l0 -228 40 0 40 0 0 100 0 100 28 0 c15 0 38 -7 50 -16 19 -13 22 -24 22 -77 0 -96 6 -107 51 -107 l38 0 -5 88 c-5 64 -11 94 -26 115 l-19 28 25 30 c20 24 26 42 26 80 0 61 -35 105 -95 119 -47 11 -159 13 -168 3z m163 -83 c24 -24 26 -72 4 -94 -9 -9 -32 -16 -55 -16 l-39 0 0 65 0 65 35 0 c22 0 43 -8 55 -20z"
       id="path76"
       style="fill:#ffffff;fill-opacity:1" />
    <path
       d="M10430 6812 c-29 -29 -40 -50 -50 -97 -15 -71 -8 -207 13 -257 23 -54 70 -88 124 -88 60 0 99 25 126 80 19 39 22 61 22 160 0 97 -4 123 -22 162 -25 55 -62 78 -129 78 -40 0 -51 -5 -84 -38z m136 -64 c20 -39 23 -205 5 -261 -16 -48 -53 -60 -84 -28 -19 19 -22 35 -25 122 -6 153 9 199 63 199 17 0 29 -9 41 -32z"
       id="path78"
       style="fill:#ffffff;fill-opacity:1" />
    <path
       d="M10820 6843 c-26 -10 -61 -47 -78 -83 -11 -26 -16 -67 -16 -155 0 -137 15 -183 68 -216 35 -22 100 -25 136 -6 31 16 70 73 70 103 0 21 -5 24 -40 24 -32 0 -40 -4 -40 -18 0 -22 -30 -52 -52 -52 -8 0 -23 9 -34 21 -16 17 -20 40 -22 127 -5 127 8 179 43 188 36 9 55 -2 61 -36 6 -27 10 -30 45 -30 35 0 39 3 39 25 0 39 -27 83 -60 100 -28 15 -90 19 -120 8z"
       id="path80"
       style="fill:#ffffff;fill-opacity:1" />
    <path
       d="M5860 6555 l0 -255 45 0 45 0 0 115 0 115 65 0 65 0 0 -115 0 -115 50 0 50 0 -2 253 -3 252 -47 3 -48 3 0 -100 0 -101 -65 0 -65 0 0 100 0 100 -45 0 -45 0 0 -255z"
       id="path82"
       style="fill:#ffffff;fill-opacity:1" />
    <path
       d="M6270 6555 l0 -255 134 0 c144 0 146 1 146 56 0 24 -1 24 -95 24 l-96 0 3 73 3 72 83 3 82 3 0 34 0 34 -82 3 -83 3 -3 63 -3 62 91 0 90 0 0 40 0 40 -135 0 -135 0 0 -255z"
       id="path84"
       style="fill:#ffffff;fill-opacity:1" />
    <path
       d="M6680 6609 c0 -119 -4 -208 -10 -220 -7 -12 -21 -19 -40 -19 -28 0 -30 -3 -30 -35 0 -28 4 -36 24 -41 36 -9 103 14 125 43 20 24 21 39 21 249 l0 224 -45 0 -45 0 0 -201z"
       id="path86"
       style="fill:#ffffff;fill-opacity:1" />
    <path
       d="M11120 6740 l0 -50 45 0 45 0 0 50 0 50 -45 0 -45 0 0 -50z"
       id="path88"
       style="fill:#ffffff;fill-opacity:1" />
    <path
       d="M11272 6743 l3 -48 240 -5 c240 -5 240 -5 243 -27 3 -20 9 -23 48 -23 42 0 44 1 44 29 0 47 -21 91 -51 106 -22 12 -78 15 -279 15 l-251 0 3 -47z"
       id="path90"
       style="fill:#ffffff;fill-opacity:1" />
    <path
       d="M5177 6754 c-4 -4 -7 -15 -7 -25 0 -17 14 -19 188 -21 l187 -3 -185 -76 -185 -75 -3 -37 -3 -37 233 2 c232 3 233 3 236 25 l3 23 -196 2 -197 3 196 79 197 80 -3 30 -3 31 -226 3 c-124 1 -228 -1 -232 -4z"
       id="path92"
       style="fill:#ffffff;fill-opacity:1" />
    <path
       d="M11150 6475 l0 -175 40 0 39 0 3 63 3 62 228 3 227 2 0 50 0 50 -230 0 -230 0 0 60 0 60 -40 0 -40 0 0 -175z"
       id="path94"
       style="fill:#ffffff;fill-opacity:1" />
    <path
       d="M8610 6430 l0 -30 260 0 260 0 0 30 0 30 -260 0 -260 0 0 -30z"
       id="path96"
       style="fill:#ffffff;fill-opacity:1" />
    <path
       d="M3670 6385 l0 -55 173 0 c140 0 177 -3 195 -16 28 -20 30 -69 3 -84 -12 -6 -93 -10 -195 -10 l-176 0 0 -55 0 -55 178 0 c201 1 248 8 280 45 30 36 32 123 2 150 -11 10 -20 22 -20 27 0 4 9 8 20 8 17 0 20 7 20 50 l0 50 -240 0 -240 0 0 -55z"
       id="path98"
       style="fill:#ffffff;fill-opacity:1" />
    <path
       d="M5395 6371 l-220 -57 -3 -36 -3 -35 225 -57 c124 -31 230 -56 236 -56 5 0 10 11 10 24 0 22 -7 26 -75 42 l-75 18 0 62 0 63 38 10 c20 5 53 14 72 18 28 7 36 15 38 36 2 18 -1 27 -10 26 -7 0 -112 -26 -233 -58z m45 -92 l0 -51 -37 7 c-21 3 -69 14 -108 24 l-70 17 100 26 c55 14 103 27 108 27 4 1 7 -22 7 -50z"
       id="path100"
       style="fill:#ffffff;fill-opacity:1" />
    <path
       d="M4900 6295 l0 -125 -295 0 -295 0 0 -65 0 -65 350 0 350 0 0 184 0 184 -31 6 c-82 16 -79 21 -79 -119z"
       id="path102"
       style="fill:#ffffff;fill-opacity:1" />
    <path
       d="M9080 6245 l0 -95 -235 0 -235 0 0 -30 0 -30 260 0 260 0 0 125 0 125 -25 0 c-25 0 -25 0 -25 -95z"
       id="path104"
       style="fill:#ffffff;fill-opacity:1" />
    <path
       d="M9468 6241 c-104 -21 -157 -122 -112 -217 17 -35 53 -61 144 -105 70 -33 94 -60 94 -106 0 -48 -35 -77 -84 -69 -38 6 -70 37 -70 67 0 17 -8 19 -61 19 l-61 0 7 -32 c21 -105 142 -161 267 -124 84 24 118 71 118 160 0 50 -4 60 -34 94 -21 23 -69 55 -121 80 -95 47 -117 73 -97 117 26 56 103 53 123 -5 10 -28 14 -30 66 -30 l56 0 -7 33 c-17 88 -116 140 -228 118z"
       id="path106"
       style="fill:#ffffff;fill-opacity:1" />
    <path
       d="M9917 6233 c-5 -8 -147 -547 -147 -558 0 -3 26 -5 57 -3 l56 3 16 69 16 70 70 -3 c39 -1 73 -5 76 -9 3 -4 12 -35 19 -69 l13 -63 58 0 c41 0 59 4 58 13 0 6 -33 134 -72 282 l-72 270 -72 3 c-39 2 -73 -1 -76 -5z m102 -226 c11 -54 21 -100 21 -102 0 -3 -22 -5 -50 -5 -33 0 -50 4 -50 13 0 34 45 216 51 205 3 -7 16 -57 28 -111z"
       id="path108"
       style="fill:#ffffff;fill-opacity:1" />
    <path
       d="M10280 5955 l0 -285 50 0 50 0 0 203 1 202 82 -200 82 -200 63 -3 62 -3 0 286 0 285 -50 0 -50 0 -2 -190 -3 -191 -79 191 -79 190 -63 0 -64 0 0 -285z"
       id="path110"
       style="fill:#ffffff;fill-opacity:1" />
    <path
       d="M10790 5955 l0 -285 50 0 50 0 2 202 3 202 81 -200 82 -199 61 -3 61 -3 0 286 0 285 -51 0 -50 0 3 -194 c2 -107 2 -193 1 -192 -2 1 -38 87 -82 192 l-80 189 -65 3 -66 3 0 -286z"
       id="path112"
       style="fill:#ffffff;fill-opacity:1" />
    <path
       d="M11302 6001 c3 -225 4 -241 24 -268 30 -40 72 -61 135 -69 82 -9 160 15 196 63 l28 36 3 239 3 238 -55 0 -55 0 -3 -224 c-3 -204 -5 -226 -22 -245 -21 -23 -74 -28 -106 -11 -33 18 -40 66 -40 276 l0 204 -56 0 -55 0 3 -239z"
       id="path114"
       style="fill:#ffffff;fill-opacity:1" />
    <path
       d="M1433 6200 c-79 -48 -96 -150 -36 -220 14 -17 56 -46 93 -65 76 -38 110 -74 110 -116 0 -28 -39 -69 -66 -69 -31 0 -65 25 -76 57 -11 31 -15 33 -60 33 -46 0 -48 -1 -48 -29 0 -36 36 -90 78 -114 44 -26 144 -26 197 -2 87 42 110 165 45 247 -10 14 -52 41 -92 61 -90 44 -110 64 -106 108 2 24 11 38 30 48 25 14 29 14 55 -5 15 -12 29 -31 31 -43 3 -18 10 -21 57 -21 l53 0 -7 33 c-20 84 -64 117 -161 117 -47 0 -74 -6 -97 -20z"
       id="path116"
       style="fill:#ffffff;fill-opacity:1" />
    <path
       d="M1747 6213 c-2 -5 29 -129 68 -278 l72 -270 61 -3 61 -3 15 53 c8 29 40 148 71 263 31 116 58 218 61 228 5 15 -2 17 -50 17 -49 0 -56 -3 -61 -22 -3 -13 -25 -110 -48 -216 -38 -170 -57 -223 -57 -159 0 23 -78 376 -86 389 -6 10 -101 11 -107 1z"
       id="path118"
       style="fill:#ffffff;fill-opacity:1" />
    <path
       d="M2220 5940 l0 -281 153 3 152 3 6 43 5 42 -108 0 -108 0 0 80 0 80 95 0 95 0 0 45 0 45 -95 0 -95 0 0 65 0 65 100 0 100 0 0 45 0 45 -150 0 -150 0 0 -280z"
       id="path120"
       style="fill:#ffffff;fill-opacity:1" />
    <path
       d="M2610 5940 l0 -281 53 3 52 3 0 275 0 275 -52 3 -53 3 0 -281z"
       id="path122"
       style="fill:#ffffff;fill-opacity:1" />
    <path
       d="M2830 5940 l0 -280 50 0 50 0 0 93 c0 88 1 95 29 127 l30 35 21 -50 c11 -27 36 -84 53 -125 l33 -75 57 -3 c31 -2 57 0 57 4 0 5 -34 81 -76 171 l-76 163 69 98 c38 53 73 103 77 110 5 9 -8 12 -53 12 l-60 0 -72 -115 c-39 -63 -75 -118 -80 -121 -5 -3 -9 49 -9 115 l0 121 -50 0 -50 0 0 -280z"
       id="path124"
       style="fill:#ffffff;fill-opacity:1" />
    <path
       d="M3265 6208 c-3 -7 -4 -132 -3 -278 l3 -265 50 0 50 0 0 275 0 275 -48 3 c-32 2 -49 -1 -52 -10z"
       id="path126"
       style="fill:#ffffff;fill-opacity:1" />
    <path
       d="M5909 6117 c-49 -33 -68 -91 -68 -207 -1 -52 4 -112 9 -132 25 -89 97 -126 171 -90 30 15 39 16 39 6 0 -9 11 -14 30 -14 l30 0 0 130 0 130 -70 0 -70 0 0 -35 c0 -32 2 -35 30 -35 29 0 30 -2 30 -45 0 -47 -25 -85 -55 -85 -27 0 -53 38 -61 86 -8 58 1 185 15 213 27 49 84 47 97 -4 5 -21 12 -25 45 -25 44 0 48 10 25 64 -20 47 -51 66 -112 66 -37 0 -61 -6 -85 -23z"
       id="path128"
       style="fill:#ffffff;fill-opacity:1" />
    <path
       d="M6191 5963 c0 -194 8 -234 51 -266 39 -29 136 -29 175 -1 49 36 53 55 53 257 l0 187 -40 0 -40 0 0 -184 c0 -180 -1 -185 -22 -200 -30 -22 -51 -20 -74 5 -17 19 -19 41 -22 200 l-3 179 -40 0 -39 0 1 -177z"
       id="path130"
       style="fill:#ffffff;fill-opacity:1" />
    <path
       d="M6517 6133 c-4 -3 -7 -19 -7 -35 0 -27 2 -28 50 -28 l50 0 0 -195 0 -195 40 0 40 0 2 193 3 192 48 3 c46 3 47 4 47 38 l0 34 -133 0 c-74 0 -137 -3 -140 -7z"
       id="path132"
       style="fill:#ffffff;fill-opacity:1" />
    <path
       d="M6840 5910 l0 -230 114 0 c109 0 114 1 120 23 12 46 10 47 -74 47 l-80 0 0 65 0 65 70 0 70 0 0 40 0 40 -70 0 -70 0 0 55 0 55 75 0 75 0 0 35 0 35 -115 0 -115 0 0 -230z"
       id="path134"
       style="fill:#ffffff;fill-opacity:1" />
    <path
       d="M7130 5910 l0 -231 38 3 37 3 -2 158 c-2 86 -1 157 1 157 2 0 30 -72 61 -160 l58 -160 43 0 44 0 0 230 0 230 -35 0 -34 0 -3 -150 -3 -151 -55 148 -55 148 -48 3 -47 3 0 -231z"
       id="path136"
       style="fill:#ffffff;fill-opacity:1" />
    <path
       d="M7580 6106 c0 -34 1 -35 48 -38 l47 -3 3 -192 2 -193 40 0 40 0 0 195 0 195 50 0 50 0 0 35 0 35 -140 0 -140 0 0 -34z"
       id="path138"
       style="fill:#ffffff;fill-opacity:1" />
    <path
       d="M7936 6132 c-4 -6 -106 -437 -106 -448 0 -2 18 -4 39 -4 l39 0 14 58 14 57 51 3 c57 3 49 13 69 -88 5 -27 9 -30 45 -30 30 0 39 4 39 18 0 9 -20 103 -45 207 -25 105 -47 200 -50 213 -5 19 -12 22 -55 22 -27 0 -51 -3 -54 -8z m69 -166 c19 -101 21 -96 -21 -96 -34 0 -36 2 -31 28 4 15 11 55 18 90 6 35 13 61 15 59 3 -2 11 -39 19 -81z"
       id="path140"
       style="fill:#ffffff;fill-opacity:1" />
    <path
       d="M8230 6103 c-31 -32 -39 -50 -50 -107 -16 -85 -8 -190 19 -251 15 -35 29 -49 57 -61 40 -17 88 -11 115 13 14 12 17 12 22 -2 4 -9 19 -15 37 -15 l30 0 0 130 0 130 -70 0 -70 0 0 -35 c0 -32 2 -35 30 -35 26 0 30 -3 30 -29 0 -82 -50 -126 -93 -82 -19 19 -22 35 -25 123 -3 59 1 118 8 140 18 62 78 72 100 17 11 -25 18 -29 52 -29 36 0 39 2 33 23 -24 85 -52 107 -136 107 -46 0 -55 -4 -89 -37z"
       id="path142"
       style="fill:#ffffff;fill-opacity:1" />
    <path
       d="M5244 6069 c-50 -14 -77 -52 -78 -107 -1 -59 22 -98 70 -118 71 -30 135 10 189 115 13 27 35 52 50 59 64 29 125 1 125 -59 0 -42 -14 -65 -48 -77 -32 -11 -49 -50 -27 -59 22 -8 88 29 102 57 7 14 13 49 13 78 0 48 -4 58 -34 88 -30 30 -40 34 -89 34 -67 0 -105 -27 -143 -102 -34 -67 -57 -88 -98 -88 -46 0 -68 23 -64 69 2 29 9 39 35 51 25 12 33 21 33 43 0 15 -1 27 -2 26 -2 0 -17 -5 -34 -10z"
       id="path144"
       style="fill:#ffffff;fill-opacity:1" />
    <path
       d="M3895 6035 c-22 -8 -50 -26 -61 -41 l-22 -26 -21 21 c-46 46 -119 54 -187 21 -63 -31 -77 -69 -78 -210 l-1 -115 313 -3 312 -2 0 102 c0 125 -12 172 -54 214 -51 51 -126 65 -201 39z m114 -106 c39 -14 51 -35 51 -93 l0 -46 -100 0 -100 0 0 43 c0 85 63 126 149 96z m-257 -26 c13 -11 18 -30 18 -65 l0 -48 -80 0 -80 0 0 29 c0 36 17 83 33 93 22 14 90 8 109 -9z"
       id="path146"
       style="fill:#ffffff;fill-opacity:1" />
    <path
       d="M8870 5961 l-255 -68 -3 -40 -3 -40 261 -66 261 -65 -3 31 c-3 28 -8 32 -43 40 -22 5 -57 13 -78 18 l-38 10 3 72 3 71 78 19 77 19 0 34 c0 19 -1 34 -2 33 -2 0 -118 -31 -258 -68z m50 -104 c0 -30 -2 -56 -5 -59 -4 -4 -72 11 -235 52 -6 2 210 57 228 59 8 1 12 -16 12 -52z"
       id="path148"
       style="fill:#ffffff;fill-opacity:1" />
    <path
       d="M4905 5952 c-3 -3 -5 -63 -5 -134 l0 -128 -100 0 -100 0 0 120 0 120 -55 0 -55 0 0 -120 0 -120 -85 0 -85 0 0 125 0 125 -55 0 -55 0 0 -190 0 -190 350 0 350 0 0 190 c0 105 -3 190 -7 190 -5 1 -27 5 -50 9 -23 5 -45 6 -48 3z"
       id="path150"
       style="fill:#ffffff;fill-opacity:1" />
    <path
       d="M5170 5730 l0 -30 203 0 c215 0 227 -3 227 -47 0 -16 6 -23 20 -23 16 0 20 7 20 36 0 85 -26 94 -276 94 l-194 0 0 -30z"
       id="path152"
       style="fill:#ffffff;fill-opacity:1" />
    <path
       d="M5177 5574 c-4 -4 -7 -56 -7 -116 l0 -108 235 0 235 0 0 115 0 115 -25 0 c-25 0 -25 -1 -25 -85 l0 -85 -90 0 -90 0 0 80 c0 73 -2 80 -20 80 -18 0 -20 -7 -20 -80 l0 -80 -81 0 -80 0 2 83 c2 65 -1 83 -12 85 -8 1 -18 0 -22 -4z"
       id="path154"
       style="fill:#ffffff;fill-opacity:1" />
    <path
       d="M3617 5490 c-20 -27 -37 -52 -37 -55 0 -3 17 -5 38 -5 32 0 45 8 92 55 l54 55 -55 0 c-54 0 -55 -1 -92 -50z"
       id="path156"
       style="fill:#ffffff;fill-opacity:1" />
    <path
       d="M3966 5491 c-20 -27 -36 -51 -36 -55 0 -3 17 -6 38 -6 32 0 45 8 92 55 l54 55 -56 0 c-56 0 -57 0 -92 -49z"
       id="path158"
       style="fill:#ffffff;fill-opacity:1" />
    <path
       d="M7232 5507 c-86 -27 -126 -128 -120 -306 3 -99 7 -123 28 -166 34 -69 77 -95 152 -95 125 0 180 68 194 239 8 93 -9 201 -39 256 -39 70 -129 100 -215 72z m111 -94 c8 -10 21 -40 28 -66 16 -66 7 -243 -15 -285 -30 -57 -95 -51 -121 11 -32 79 -27 278 10 333 19 29 74 33 98 7z"
       id="path160"
       style="fill:#ffffff;fill-opacity:1" />
    <path
       d="M8414 5509 c-43 -12 -88 -66 -109 -129 -13 -40 -16 -78 -13 -173 3 -106 6 -129 28 -172 34 -69 77 -95 152 -95 65 0 88 9 131 48 73 68 87 332 24 447 -38 69 -126 99 -213 74z m109 -97 c26 -29 40 -118 34 -223 -6 -108 -24 -155 -62 -165 -55 -14 -83 24 -97 131 -13 87 0 211 26 250 20 31 74 34 99 7z"
       id="path162"
       style="fill:#ffffff;fill-opacity:1" />
    <path
       d="M2530 5488 c-41 -28 -67 -76 -81 -154 -14 -71 -5 -217 15 -265 38 -90 137 -123 234 -79 33 15 47 29 62 62 31 69 28 78 -30 78 -41 0 -50 -3 -50 -18 0 -32 -29 -62 -61 -62 -22 0 -34 8 -48 31 -39 63 -35 286 5 331 13 13 28 18 53 16 31 -3 38 -8 47 -38 11 -33 15 -35 58 -38 44 -3 46 -2 46 23 0 43 -36 101 -74 119 -51 24 -136 21 -176 -6z"
       id="path164"
       style="fill:#ffffff;fill-opacity:1" />
    <path
       d="M6690 5230 l0 -280 116 0 c130 0 170 12 205 62 43 60 37 158 -12 208 l-31 30 26 31 c34 39 36 117 6 167 -30 49 -72 62 -200 62 l-110 0 0 -280z m208 184 c16 -11 22 -25 22 -54 0 -53 -20 -70 -81 -70 l-49 0 0 70 0 70 43 0 c23 0 53 -7 65 -16z m15 -233 c13 -13 19 -33 19 -66 0 -64 -22 -86 -88 -88 l-49 -2 -3 94 -3 94 53 -7 c30 -4 61 -15 71 -25z"
       id="path166"
       style="fill:#ffffff;fill-opacity:1" />
    <path
       d="M7580 5230 l0 -280 45 0 45 0 2 198 3 197 74 -197 74 -198 58 0 59 0 0 281 0 280 -47 -3 -48 -3 3 -190 c2 -104 2 -188 -1 -185 -3 3 -37 89 -77 193 l-73 187 -58 0 -59 0 0 -280z"
       id="path168"
       style="fill:#ffffff;fill-opacity:1" />
    <path
       d="M8097 5503 c-4 -3 -7 -109 -7 -235 l0 -228 -26 -10 c-14 -6 -34 -9 -43 -8 -13 2 -16 -6 -16 -37 l0 -40 52 -3 c34 -2 63 3 83 13 55 28 60 58 60 320 l0 235 -48 0 c-27 0 -52 -3 -55 -7z"
       id="path170"
       style="fill:#ffffff;fill-opacity:1" />
    <path
       d="M8752 5283 c3 -257 11 -288 79 -325 48 -27 175 -22 216 8 59 45 62 58 63 309 l2 230 -51 3 -51 3 0 -221 0 -221 -25 -24 c-13 -14 -36 -25 -50 -25 -14 0 -37 11 -50 25 l-25 24 0 221 0 220 -56 0 -55 0 3 -227z"
       id="path172"
       style="fill:#ffffff;fill-opacity:1" />
    <path
       d="M9220 5230 l0 -280 50 0 50 0 0 121 0 122 47 -6 c69 -7 83 -30 83 -127 0 -106 2 -110 62 -110 l49 0 -6 88 c-9 131 -13 149 -41 171 -25 19 -25 20 -5 31 49 26 69 142 34 201 -31 52 -84 69 -211 69 l-112 0 0 -280z m215 175 c56 -55 15 -135 -70 -135 l-45 0 0 80 0 80 45 0 c35 0 52 -6 70 -25z"
       id="path174"
       style="fill:#ffffff;fill-opacity:1" />
    <path
       d="M10085 5475 c-27 -7 -112 -27 -187 -45 l-138 -32 0 -47 0 -47 188 -43 c103 -23 195 -45 205 -48 16 -4 18 1 15 34 -3 37 -4 38 -50 47 l-48 8 0 48 0 48 48 8 c45 9 47 10 50 47 4 42 -1 44 -83 22z m-75 -125 c0 -16 -4 -30 -10 -30 -27 0 -150 25 -150 30 0 7 93 26 138 29 18 1 22 -4 22 -29z"
       id="path176"
       style="fill:#ffffff;fill-opacity:1" />
    <path
       d="M11280 5483 c-35 -13 -72 -48 -93 -86 -20 -38 -22 -56 -22 -182 0 -131 2 -143 25 -185 37 -65 79 -90 154 -90 86 0 123 22 161 95 28 54 30 65 30 174 0 70 -6 131 -14 154 -17 50 -57 97 -98 113 -32 14 -114 18 -143 7z m107 -88 c55 -39 59 -297 5 -357 -37 -43 -105 -8 -119 61 -9 48 -10 187 0 232 14 68 66 98 114 64z"
       id="path178"
       style="fill:#ffffff;fill-opacity:1" />
    <path
       d="M12520 5468 c-34 -18 -51 -35 -70 -73 -23 -45 -25 -60 -25 -180 0 -119 2 -134 25 -180 34 -69 77 -95 152 -95 106 0 155 39 183 146 28 108 13 272 -31 340 -42 63 -153 83 -234 42z m144 -91 c19 -26 21 -42 21 -162 0 -120 -2 -136 -21 -162 -29 -39 -79 -39 -108 0 -18 24 -22 46 -24 134 -4 124 1 162 29 198 28 35 74 31 103 -8z"
       id="path180"
       style="fill:#ffffff;fill-opacity:1" />
    <path
       d="M1985 5472 c-51 -17 -75 -50 -75 -102 0 -51 25 -88 70 -101 56 -17 94 1 127 60 40 69 53 81 89 81 24 0 34 -5 39 -20 10 -31 -4 -59 -31 -66 -21 -5 -25 -12 -22 -38 2 -25 7 -30 23 -28 59 8 85 44 85 118 0 64 -40 104 -104 104 -55 0 -86 -24 -124 -95 -20 -38 -33 -51 -53 -53 -49 -6 -65 58 -18 73 14 5 19 15 19 41 0 19 -1 34 -2 33 -2 -1 -12 -4 -23 -7z"
       id="path182"
       style="fill:#ffffff;fill-opacity:1" />
    <path
       d="M6032 5470 c-129 -24 -194 -90 -194 -201 0 -142 101 -209 317 -209 223 0 325 66 325 208 0 139 -86 199 -295 207 -55 2 -124 0 -153 -5z m300 -133 c71 -30 74 -97 6 -134 -41 -22 -261 -31 -326 -13 -111 29 -109 131 3 159 62 16 273 8 317 -12z"
       id="path184"
       style="fill:#ffffff;fill-opacity:1" />
    <path
       d="M10330 5215 l0 -265 55 0 55 0 0 104 0 103 60 6 c123 13 175 59 175 157 0 67 -25 115 -75 141 -28 16 -57 19 -152 19 l-118 0 0 -265z m223 164 c9 -12 17 -38 17 -59 0 -49 -35 -80 -91 -80 l-39 0 0 86 0 87 48 -7 c30 -4 53 -13 65 -27z"
       id="path186"
       style="fill:#ffffff;fill-opacity:1" />
    <path
       d="M10750 5215 l0 -265 50 0 50 0 0 116 0 117 47 -7 c69 -9 77 -22 83 -129 l5 -92 52 -3 52 -3 -5 93 c-6 103 -18 144 -45 159 -17 9 -16 12 13 38 27 24 32 36 35 87 3 47 0 66 -17 92 -31 50 -71 62 -205 62 l-115 0 0 -265z m223 163 c14 -16 17 -32 13 -57 -7 -47 -24 -60 -84 -68 l-52 -6 0 83 0 83 53 -6 c37 -5 57 -13 70 -29z"
       id="path188"
       style="fill:#ffffff;fill-opacity:1" />
    <path
       d="M11620 5215 l0 -265 51 0 51 0 -8 190 c-3 105 -5 190 -2 190 3 0 38 -85 79 -190 l74 -190 57 0 58 0 0 265 0 265 -45 0 -45 0 0 -182 0 -183 -73 180 -73 180 -62 3 -62 3 0 -266z"
       id="path190"
       style="fill:#ffffff;fill-opacity:1" />
    <path
       d="M12040 5440 l0 -40 60 0 60 0 0 -225 0 -225 55 0 55 0 0 225 0 225 60 0 60 0 0 40 0 40 -175 0 -175 0 0 -40z"
       id="path192"
       style="fill:#ffffff;fill-opacity:1" />
    <path
       d="M4746 5455 c-56 -20 -100 -67 -147 -159 -56 -110 -73 -126 -124 -126 -51 0 -75 23 -75 72 0 39 22 65 66 77 27 7 29 11 32 69 l3 62 -31 0 c-70 0 -136 -52 -160 -126 -16 -48 -8 -149 14 -197 27 -54 92 -90 165 -90 97 0 143 37 211 174 47 93 77 119 136 119 59 0 84 -25 84 -83 0 -49 -27 -82 -75 -95 -26 -7 -27 -11 -29 -70 -1 -62 -1 -62 27 -62 33 0 94 24 121 48 55 49 76 203 37 287 -43 95 -151 137 -255 100z"
       id="path194"
       style="fill:#ffffff;fill-opacity:1" />
    <path
       d="M3225 5376 c-63 -28 -95 -93 -95 -193 0 -130 39 -196 124 -208 86 -13 161 30 179 103 5 20 2 22 -42 22 -38 0 -48 -4 -56 -22 -7 -16 -20 -24 -42 -26 -38 -4 -63 26 -63 75 l0 33 106 0 107 0 -5 65 c-3 36 -14 78 -25 97 -34 60 -119 84 -188 54z m105 -85 c5 -11 10 -31 10 -45 0 -25 -3 -26 -55 -26 -53 0 -55 1 -55 27 0 14 7 35 17 45 22 24 69 24 83 -1z"
       id="path196"
       style="fill:#ffffff;fill-opacity:1" />
    <path
       d="M3563 5376 c-70 -32 -90 -121 -39 -175 15 -16 49 -37 74 -46 26 -10 55 -25 65 -33 46 -40 -6 -102 -58 -68 -14 9 -25 23 -25 31 0 11 -13 15 -50 15 -50 0 -50 0 -44 -27 18 -72 86 -111 172 -99 60 8 93 33 111 83 27 74 -7 127 -108 167 -62 25 -82 47 -65 74 17 27 57 22 72 -10 11 -24 19 -28 53 -28 46 0 57 16 37 56 -30 62 -126 91 -195 60z"
       id="path198"
       style="fill:#ffffff;fill-opacity:1" />
    <path
       d="M3910 5372 c-22 -10 -44 -34 -60 -62 -20 -38 -24 -58 -24 -130 0 -143 47 -205 152 -205 85 1 142 49 142 120 0 23 -3 25 -45 25 -32 0 -45 -4 -45 -14 0 -8 -8 -24 -18 -36 -22 -27 -65 -22 -77 7 -14 39 -17 149 -3 188 11 35 17 40 43 40 23 0 33 -7 43 -27 11 -25 19 -28 59 -28 l46 0 -6 36 c-14 86 -120 130 -207 86z"
       id="path200"
       style="fill:#ffffff;fill-opacity:1" />
    <path
       d="M2830 5340 l0 -39 74 -3 74 -3 -79 -123 c-60 -93 -79 -130 -79 -157 l0 -35 135 0 135 0 0 40 0 40 -75 0 c-41 0 -75 3 -75 7 0 3 34 59 75 123 58 91 75 125 75 153 l0 37 -130 0 -130 0 0 -40z"
       id="path202"
       style="fill:#ffffff;fill-opacity:1" />
    <path
       d="M5170 5230 l0 -30 100 0 100 0 0 -75 0 -75 -100 0 -100 0 0 -30 0 -30 233 2 232 3 3 28 3 27 -115 0 -116 0 0 75 0 74 113 3 112 3 3 28 3 27 -235 0 -236 0 0 -30z"
       id="path204"
       style="fill:#ffffff;fill-opacity:1" />
    <path
       d="M1910 5180 l0 -30 134 0 c74 0 146 -4 159 -9 34 -13 44 -47 22 -71 -16 -17 -35 -20 -164 -22 l-146 -3 0 -30 0 -30 130 -3 c155 -4 190 2 221 33 20 20 24 34 24 80 0 49 -4 60 -29 86 l-29 29 -161 0 -161 0 0 -30z"
       id="path206"
       style="fill:#ffffff;fill-opacity:1" />
    <path
       d="M9760 5135 l0 -35 205 0 205 0 0 35 0 35 -205 0 -205 0 0 -35z"
       id="path208"
       style="fill:#ffffff;fill-opacity:1" />
    <path
       d="M9760 4945 l0 -105 205 0 205 0 0 35 0 35 -85 0 -85 0 0 65 0 65 -35 0 -35 0 0 -65 0 -65 -50 0 -50 0 0 70 0 70 -35 0 -35 0 0 -105z"
       id="path210"
       style="fill:#ffffff;fill-opacity:1" />
    <path
       d="M6170 4951 c-151 -37 -287 -70 -302 -74 -27 -7 -28 -9 -28 -77 0 -64 2 -71 23 -80 12 -5 148 -39 302 -75 154 -36 286 -68 293 -70 9 -3 12 12 12 55 l0 59 -57 11 c-113 23 -103 13 -103 95 l0 74 58 11 c111 23 102 15 102 81 0 41 -4 59 -12 58 -7 -1 -137 -31 -288 -68z m50 -162 c0 -27 -2 -49 -4 -49 -9 0 -251 52 -254 54 -4 5 242 53 251 49 4 -2 7 -26 7 -54z"
       id="path212"
       style="fill:#ffffff;fill-opacity:1" />
    <path
       d="M1916 4942 c-13 -12 -5 -52 12 -61 9 -5 44 -14 77 -21 33 -6 91 -19 130 -27 l70 -16 -138 -28 c-76 -16 -142 -31 -148 -34 -5 -4 -9 -19 -9 -36 0 -21 5 -29 18 -29 9 0 94 20 187 43 l170 43 3 33 c2 19 0 37 -5 42 -4 4 -73 24 -153 45 -196 50 -208 53 -214 46z"
       id="path214"
       style="fill:#ffffff;fill-opacity:1" />
    <path
       d="M5210 4801 c-78 -27 -142 -99 -171 -189 -44 -141 -36 -383 18 -505 50 -112 139 -162 280 -160 141 3 230 70 274 205 21 65 24 91 24 233 0 181 -12 239 -67 321 -48 71 -116 105 -221 111 -64 3 -94 -1 -137 -16z m183 -131 c49 -39 62 -97 62 -280 0 -187 -11 -243 -57 -287 -23 -22 -39 -28 -74 -28 -39 0 -50 5 -74 32 -46 51 -55 100 -55 283 0 136 3 173 18 212 24 62 57 88 112 88 27 0 51 -7 68 -20z"
       id="path216"
       style="fill:#ffffff;fill-opacity:1" />
    <path
       d="M2500 4385 l0 -425 85 0 85 0 0 190 0 191 116 -3 115 -3 2 -185 2 -185 88 -3 87 -3 0 426 0 426 -87 -3 -88 -3 -2 -165 -2 -165 -115 -3 -116 -3 0 171 0 170 -85 0 -85 0 0 -425z"
       id="path218"
       style="fill:#ffffff;fill-opacity:1" />
    <path
       d="M3250 4385 l0 -425 249 0 249 0 6 28 c3 15 8 44 12 65 l6 37 -176 0 -176 0 0 125 0 125 155 0 155 0 0 65 0 65 -155 0 -155 0 0 100 0 100 163 2 162 3 3 68 3 67 -251 0 -250 0 0 -425z"
       id="path220"
       style="fill:#ffffff;fill-opacity:1" />
    <path
       d="M3880 4385 l0 -425 244 0 243 0 7 46 c12 92 27 84 -159 84 l-165 0 0 360 0 360 -85 0 -85 0 0 -425z"
       id="path222"
       style="fill:#ffffff;fill-opacity:1" />
    <path
       d="M4470 4385 l0 -425 244 0 c275 0 248 -8 261 83 l6 47 -165 0 -166 0 -2 358 -3 357 -87 3 -88 3 0 -426z"
       id="path224"
       style="fill:#ffffff;fill-opacity:1" />
    <path
       d="M12300 4778 c-57 -29 -83 -75 -77 -137 10 -90 75 -135 197 -134 136 1 194 49 187 155 -4 66 -21 91 -82 119 -59 27 -168 26 -225 -3z m197 -79 c47 -18 55 -47 23 -79 -16 -16 -33 -20 -95 -20 -41 0 -85 5 -99 12 -47 21 -42 68 9 88 29 12 129 12 162 -1z"
       id="path226"
       style="fill:#ffffff;fill-opacity:1" />
    <path
       d="M6723 4775 c-42 -18 -68 -70 -59 -118 7 -39 43 -75 108 -108 48 -25 66 -59 50 -95 -17 -36 -71 -31 -90 9 -11 22 -20 27 -49 27 -33 0 -35 -1 -28 -27 11 -47 33 -72 74 -84 53 -16 108 -4 143 31 23 24 28 37 28 78 0 63 -20 88 -100 131 -59 32 -61 34 -58 69 3 34 6 37 33 37 23 0 33 -7 43 -27 10 -21 20 -28 43 -28 24 0 29 4 29 25 0 74 -87 115 -167 80z"
       id="path228"
       style="fill:#ffffff;fill-opacity:1" />
    <path
       d="M8454 4776 c-41 -18 -64 -52 -64 -94 0 -59 21 -84 103 -128 57 -30 75 -65 52 -100 -22 -35 -62 -32 -83 6 -13 24 -24 30 -49 30 -38 0 -42 -14 -17 -61 39 -76 179 -76 218 0 38 73 12 135 -79 186 -35 20 -67 45 -70 55 -18 56 57 85 78 30 9 -25 17 -30 44 -30 28 0 33 3 33 25 0 64 -98 112 -166 81z"
       id="path230"
       style="fill:#ffffff;fill-opacity:1" />
    <path
       d="M11684 4732 c-28 -31 -65 -74 -83 -94 l-33 -38 53 0 54 0 100 95 100 94 -70 0 -70 1 -51 -58z"
       id="path232"
       style="fill:#ffffff;fill-opacity:1" />
    <path
       d="M6940 4750 l0 -29 75 -3 75 -3 -80 -144 c-44 -79 -80 -155 -80 -168 0 -23 1 -23 119 -23 115 0 119 1 125 23 3 12 6 25 6 30 0 4 -36 7 -80 7 -44 0 -80 2 -80 3 0 2 34 65 75 140 48 86 75 147 75 166 l0 31 -115 0 -115 0 0 -30z"
       id="path234"
       style="fill:#ffffff;fill-opacity:1" />
    <path
       d="M7220 4580 l0 -200 104 0 c85 0 105 3 110 16 15 40 9 44 -69 44 l-75 0 0 60 0 60 71 0 70 0 -3 28 c-3 26 -5 27 -70 30 l-68 3 0 49 0 50 70 0 70 0 0 30 0 30 -105 0 -105 0 0 -200z"
       id="path236"
       style="fill:#ffffff;fill-opacity:1" />
    <path
       d="M7490 4580 l0 -200 35 0 35 0 0 85 0 85 28 0 c48 0 57 -14 62 -92 l5 -73 36 -3 35 -3 -3 63 c-5 84 -10 103 -30 124 -13 13 -14 19 -5 22 17 5 42 56 42 86 0 76 -45 106 -160 106 l-80 0 0 -200z m148 128 c7 -7 12 -26 12 -43 0 -40 -16 -55 -57 -55 l-33 0 0 55 0 55 33 0 c18 0 38 -5 45 -12z"
       id="path238"
       style="fill:#ffffff;fill-opacity:1" />
    <path
       d="M7760 4773 c0 -5 21 -95 47 -201 l48 -193 44 3 45 3 48 185 c26 102 48 191 48 198 0 7 -14 12 -35 12 -39 0 -37 5 -77 -187 -12 -62 -25 -113 -28 -113 -3 0 -18 64 -33 142 -16 78 -31 146 -33 150 -7 10 -74 11 -74 1z"
       id="path240"
       style="fill:#ffffff;fill-opacity:1" />
    <path
       d="M8080 4623 c0 -130 3 -164 18 -193 33 -68 145 -79 204 -20 l28 28 0 171 0 171 -35 0 -35 0 0 -160 c0 -158 0 -160 -25 -176 -13 -8 -33 -13 -43 -10 -34 11 -42 51 -42 201 l0 145 -35 0 -35 0 0 -157z"
       id="path242"
       style="fill:#ffffff;fill-opacity:1" />
    <path
       d="M8670 4750 l0 -29 74 -3 73 -3 -78 -140 c-43 -77 -78 -152 -79 -167 l0 -28 120 0 c97 0 120 3 120 14 0 8 3 21 6 30 5 14 -5 16 -75 16 -45 0 -81 2 -81 5 0 3 34 67 75 143 41 76 75 150 75 165 l0 27 -115 0 -115 0 0 -30z"
       id="path244"
       style="fill:#ffffff;fill-opacity:1" />
    <path
       d="M11122 4288 l3 -493 55 0 55 0 0 490 0 490 -58 3 -57 3 2 -493z"
       id="path246"
       style="fill:#ffffff;fill-opacity:1" />
    <path
       d="M9111 4743 c-90 -45 -104 -185 -26 -258 57 -54 192 -77 321 -56 83 14 127 38 150 82 20 40 15 121 -11 149 -16 18 -16 20 -1 26 10 4 16 18 16 40 l0 34 -145 0 -145 0 0 -85 0 -85 40 0 40 0 0 41 0 40 48 -6 c68 -10 94 -29 90 -67 -5 -50 -41 -69 -139 -75 -155 -10 -256 31 -233 94 9 26 22 36 57 47 15 5 18 14 15 48 -4 50 -23 58 -77 31z"
       id="path248"
       style="fill:#ffffff;fill-opacity:1" />
    <path
       d="M12128 4732 c-35 -25 -37 -31 -38 -79 0 -51 1 -53 45 -83 l45 -31 0 45 c0 36 -4 46 -20 51 -11 3 -20 10 -20 15 0 5 9 14 20 20 15 8 20 21 20 50 0 22 -3 40 -7 39 -5 0 -25 -13 -45 -27z"
       id="path250"
       style="fill:#ffffff;fill-opacity:1" />
    <path
       d="M10575 4740 c-119 -25 -187 -93 -232 -229 -20 -62 -29 -337 -14 -426 38 -216 149 -317 332 -302 205 17 290 157 290 482 1 265 -55 405 -185 459 -44 18 -141 27 -191 16z m150 -109 c69 -40 105 -164 105 -366 0 -273 -57 -389 -191 -390 -88 0 -141 50 -177 164 -25 83 -24 372 2 458 22 73 73 138 119 152 41 13 104 5 142 -18z"
       id="path252"
       style="fill:#ffffff;fill-opacity:1" />
    <path
       d="M9825 4661 c-46 -19 -59 -48 -63 -141 l-4 -90 206 0 206 0 0 35 0 35 -85 0 -85 0 0 34 c0 19 6 38 13 43 6 4 44 10 82 13 l70 5 3 36 3 36 -78 -4 c-56 -4 -86 -10 -105 -24 -16 -11 -28 -15 -28 -10 0 29 -90 50 -135 32z m95 -81 c11 -11 20 -33 20 -50 l0 -30 -60 0 -60 0 0 30 c0 34 31 70 60 70 11 0 29 -9 40 -20z"
       id="path254"
       style="fill:#ffffff;fill-opacity:1" />
    <path
       d="M1958 4644 c-32 -17 -41 -45 -42 -134 l-1 -65 188 -3 188 -2 -3 32 -3 33 -77 3 -78 3 0 29 c0 37 12 44 90 50 l65 5 3 34 3 33 -73 -7 c-40 -4 -84 -14 -97 -22 -14 -9 -26 -11 -30 -6 -21 33 -89 42 -133 17z m100 -66 c7 -7 12 -26 12 -42 0 -31 0 -31 -50 -28 -47 4 -50 6 -50 31 0 34 17 51 50 51 14 0 31 -5 38 -12z"
       id="path256"
       style="fill:#ffffff;fill-opacity:1" />
    <path
       d="M5844 4496 c-3 -7 -4 -33 -2 -57 l3 -44 313 -3 312 -2 0 60 0 60 -310 0 c-256 0 -312 -2 -316 -14z"
       id="path258"
       style="fill:#ffffff;fill-opacity:1" />
    <path
       d="M11589 4500 c-83 -14 -135 -53 -164 -122 -28 -68 -23 -78 40 -78 l54 0 11 39 c15 57 50 81 116 81 99 0 125 -27 132 -136 l4 -71 -106 -5 c-94 -5 -115 -10 -172 -38 -80 -39 -115 -87 -122 -164 -8 -104 42 -184 131 -211 60 -18 80 -18 147 -4 31 7 65 23 85 41 l34 29 8 -32 c8 -30 11 -32 57 -32 l48 0 -1 284 c-2 271 -3 286 -24 329 -16 33 -33 50 -67 67 -51 25 -144 35 -211 23z m188 -445 c-12 -141 -54 -189 -160 -182 -67 4 -103 32 -116 88 -23 103 56 168 208 169 l74 0 -6 -75z"
       id="path260"
       style="fill:#ffffff;fill-opacity:1" />
    <path
       d="M12090 4395 l0 -45 253 0 c140 0 256 2 258 4 3 3 3 23 1 45 l-4 41 -254 0 -254 0 0 -45z"
       id="path262"
       style="fill:#ffffff;fill-opacity:1" />
    <path
       d="M2230 4330 l0 -70 -55 0 -55 0 0 60 0 60 -30 0 -30 0 0 -61 0 -60 -42 3 -43 3 -3 63 c-3 62 -3 63 -30 60 -27 -3 -27 -3 -30 -95 l-3 -93 191 0 190 0 0 94 c0 89 -1 94 -22 100 -13 3 -26 6 -30 6 -5 0 -8 -31 -8 -70z"
       id="path264"
       style="fill:#ffffff;fill-opacity:1" />
    <path
       d="M9953 4342 l-193 -46 0 -48 c0 -26 2 -48 5 -48 2 0 80 -18 172 -39 260 -60 233 -58 233 -18 0 34 -2 35 -50 47 l-50 12 0 48 0 48 50 7 50 7 0 39 c0 25 -4 39 -12 38 -7 -1 -100 -22 -205 -47z m57 -91 c0 -17 -3 -32 -7 -34 -5 -2 -44 4 -88 13 -84 18 -84 18 15 39 76 15 80 14 80 -18z"
       id="path266"
       style="fill:#ffffff;fill-opacity:1" />
    <path
       d="M9047 4343 c-4 -3 -7 -24 -7 -45 l0 -38 178 0 177 -1 -140 -53 c-238 -91 -217 -77 -213 -138 l3 -53 258 -3 257 -2 0 45 0 45 -182 2 -182 3 180 66 179 66 3 57 3 56 -254 0 c-139 0 -257 -3 -260 -7z"
       id="path268"
       style="fill:#ffffff;fill-opacity:1" />
    <path
       d="M5955 4308 c-78 -28 -116 -84 -116 -171 0 -87 30 -141 101 -177 104 -53 347 -53 451 1 58 29 83 72 87 150 6 103 -35 166 -127 197 -58 20 -61 18 -61 -48 0 -58 1 -60 25 -60 31 0 75 -41 75 -70 0 -56 -86 -90 -229 -90 -153 0 -231 30 -231 90 0 37 21 61 60 69 35 7 35 8 38 64 3 54 2 57 -20 56 -13 0 -36 -5 -53 -11z"
       id="path270"
       style="fill:#ffffff;fill-opacity:1" />
    <path
       d="M6650 4106 l0 -166 61 0 c94 0 128 26 129 98 0 28 -6 48 -19 61 -17 17 -18 21 -5 32 8 6 14 29 14 54 0 60 -24 78 -111 83 l-69 4 0 -166z m120 100 c6 -8 10 -25 8 -38 -2 -18 -10 -24 -35 -26 -32 -3 -33 -2 -33 37 0 36 3 41 24 41 13 0 29 -7 36 -14z m-4 -124 c18 -12 26 -50 14 -72 -7 -13 -21 -20 -40 -20 -29 0 -30 1 -30 50 0 45 2 50 23 50 12 0 27 -4 33 -8z"
       id="path272"
       style="fill:#ffffff;fill-opacity:1" />
    <path
       d="M6927 4259 c-61 -36 -72 -235 -15 -296 28 -30 99 -32 127 -4 55 55 55 229 -1 288 -23 25 -78 31 -111 12z m84 -66 c16 -41 8 -179 -12 -198 -23 -24 -47 -8 -60 39 -13 48 -6 150 11 171 20 24 49 18 61 -12z"
       id="path274"
       style="fill:#ffffff;fill-opacity:1" />
    <path
       d="M7124 4257 c-2 -7 -3 -80 -2 -162 l3 -150 25 0 25 0 -2 115 c-1 63 1 111 3 105 3 -5 22 -57 42 -115 37 -102 39 -105 70 -108 l32 -3 0 165 0 166 -25 0 c-24 0 -24 -1 -27 -107 l-3 -108 -39 108 c-37 103 -39 107 -67 107 -16 0 -32 -6 -35 -13z"
       id="path276"
       style="fill:#ffffff;fill-opacity:1" />
    <path
       d="M7417 4259 c-34 -20 -50 -70 -51 -159 0 -110 20 -153 77 -158 20 -2 45 2 57 8 13 7 20 7 20 0 0 -5 9 -10 20 -10 19 0 20 7 20 90 l0 90 -51 0 c-47 0 -50 -2 -47 -22 2 -15 10 -23 23 -23 16 0 20 -7 18 -34 -3 -68 -53 -78 -74 -14 -14 43 -7 157 11 178 18 21 47 19 60 -5 6 -12 21 -20 36 -20 23 0 25 3 20 28 -4 15 -16 35 -28 45 -22 19 -83 22 -111 6z"
       id="path278"
       style="fill:#ffffff;fill-opacity:1" />
    <path
       d="M7610 4105 l0 -165 30 0 30 0 0 75 0 75 35 0 34 0 3 -72 c3 -71 4 -73 31 -76 l27 -3 0 166 0 166 -27 -3 c-27 -3 -28 -6 -31 -65 l-3 -63 -34 0 -35 0 0 65 0 65 -30 0 -30 0 0 -165z"
       id="path280"
       style="fill:#ffffff;fill-opacity:1" />
    <path
       d="M7878 4133 c-3 -135 -4 -138 -25 -141 -17 -3 -23 -10 -23 -28 0 -21 5 -24 33 -24 67 0 72 11 75 179 l3 151 -30 0 -30 0 -3 -137z"
       id="path282"
       style="fill:#ffffff;fill-opacity:1" />
    <path
       d="M8027 4250 c-47 -37 -63 -169 -31 -250 19 -47 38 -60 92 -60 41 0 74 25 87 68 13 44 7 179 -9 211 -28 54 -92 68 -139 31z m83 -45 c17 -21 24 -123 11 -171 -13 -47 -37 -63 -60 -39 -20 20 -29 172 -12 204 13 24 43 28 61 6z"
       id="path284"
       style="fill:#ffffff;fill-opacity:1" />
    <path
       d="M8230 4105 l0 -166 28 3 c26 3 27 5 30 71 3 64 4 67 28 67 30 0 44 -31 44 -96 0 -40 2 -44 25 -44 24 0 25 2 25 63 0 39 -5 71 -14 83 -13 17 -12 21 2 37 25 28 22 92 -6 119 -17 18 -36 23 -92 26 l-70 4 0 -167z m118 103 c29 -29 7 -78 -35 -78 -21 0 -23 5 -23 45 0 40 2 45 23 45 13 0 28 -5 35 -12z"
       id="path286"
       style="fill:#ffffff;fill-opacity:1" />
    <path
       d="M8460 4106 l0 -166 25 0 25 0 1 113 c0 124 1 124 50 -20 30 -88 33 -93 60 -93 l29 0 0 166 0 165 -22 -3 c-22 -3 -23 -7 -23 -105 0 -56 -2 -99 -5 -96 -3 2 -21 48 -40 101 -34 93 -37 97 -68 100 l-32 3 0 -165z"
       id="path288"
       style="fill:#ffffff;fill-opacity:1" />
    <path
       d="M8710 4131 c0 -125 2 -141 21 -165 18 -22 28 -26 74 -26 46 0 56 4 74 26 19 24 21 40 21 165 l0 139 -25 0 -25 0 0 -124 c0 -103 -3 -127 -18 -146 -21 -26 -49 -18 -63 17 -5 13 -9 76 -9 139 l0 114 -25 0 -25 0 0 -139z"
       id="path290"
       style="fill:#ffffff;fill-opacity:1" />
    <path
       d="M12090 4225 l0 -45 253 0 c140 0 256 2 258 4 3 3 3 23 1 45 l-4 41 -254 0 -254 0 0 -45z"
       id="path292"
       style="fill:#ffffff;fill-opacity:1" />
    <path
       d="M2127 4133 c-16 -10 -43 -43 -61 -73 -27 -46 -37 -55 -61 -55 -16 0 -32 8 -39 18 -9 15 -6 22 17 41 34 27 38 76 6 76 -11 0 -34 -14 -51 -30 -28 -28 -30 -35 -26 -81 7 -70 33 -94 99 -94 56 0 68 10 121 99 22 37 33 46 56 46 58 0 73 -59 22 -85 -23 -12 -30 -22 -30 -45 0 -34 15 -38 60 -15 39 20 50 43 50 104 0 67 -28 101 -90 108 -32 3 -53 -1 -73 -14z"
       id="path294"
       style="fill:#ffffff;fill-opacity:1" />
    <path
       d="M12337 4072 l-228 -56 3 -60 c3 -54 5 -60 28 -67 37 -11 447 -109 457 -109 4 0 8 19 7 42 l-1 43 -62 14 -62 15 3 60 c3 52 6 61 23 64 11 2 36 8 57 13 34 9 36 12 40 54 3 40 1 45 -17 44 -11 -1 -123 -26 -248 -57z m61 -158 c-2 -2 -31 3 -63 10 -33 8 -78 17 -100 21 -39 8 -36 9 60 29 l100 21 3 -39 c2 -21 2 -40 0 -42z"
       id="path296"
       style="fill:#ffffff;fill-opacity:1" />
    <path
       d="M9841 4062 c-58 -29 -75 -63 -80 -153 l-3 -79 206 0 206 0 0 75 c0 95 -17 130 -73 156 -57 26 -207 27 -256 1z m245 -77 c18 -11 24 -24 24 -51 l0 -35 -142 3 -143 3 2 29 c3 36 27 63 62 70 51 9 172 -2 197 -19z"
       id="path298"
       style="fill:#ffffff;fill-opacity:1" />
    <path
       d="M9040 3870 l0 -50 260 0 260 0 0 50 0 50 -260 0 -260 0 0 -50z"
       id="path300"
       style="fill:#ffffff;fill-opacity:1" />
    <path
       d="M3656 3756 c-47 -18 -92 -59 -118 -110 -60 -116 -63 -368 -7 -496 42 -95 106 -134 219 -133 124 1 198 54 236 171 26 79 26 345 0 412 -44 116 -103 161 -221 167 -45 2 -84 -2 -109 -11z m152 -121 c40 -34 52 -88 52 -243 0 -195 -27 -263 -106 -265 -48 -1 -88 41 -103 112 -14 67 -14 245 0 313 21 98 94 136 157 83z"
       id="path302"
       style="fill:#ffffff;fill-opacity:1" />
    <path
       d="M4275 3758 c-76 -27 -131 -96 -156 -198 -8 -33 -13 -105 -13 -180 3 -257 79 -364 258 -363 39 0 83 5 98 11 50 20 106 81 130 140 20 51 23 74 23 222 0 136 -3 174 -19 219 -23 67 -85 132 -142 149 -49 14 -137 15 -179 0z m150 -122 c13 -13 29 -43 36 -67 16 -56 16 -290 0 -346 -17 -63 -51 -97 -94 -97 -82 0 -112 72 -112 269 0 198 29 265 113 265 21 0 41 -8 57 -24z"
       id="path304"
       style="fill:#ffffff;fill-opacity:1" />
    <path
       d="M1860 3395 l0 -365 75 0 75 0 0 165 0 165 95 0 95 0 0 -165 0 -165 70 0 70 0 0 365 0 365 -70 0 -70 0 0 -145 0 -145 -95 0 -95 0 0 145 0 145 -75 0 -75 0 0 -365z"
       id="path306"
       style="fill:#ffffff;fill-opacity:1" />
    <path
       d="M2606 3752 c-4 -7 -139 -537 -176 -689 l-8 -33 72 0 72 0 18 90 19 90 93 0 c101 0 95 4 109 -70 4 -19 11 -52 16 -72 l10 -38 74 0 73 0 -92 363 -92 362 -91 3 c-50 1 -94 -1 -97 -6z m124 -270 c16 -78 30 -146 30 -152 0 -6 -28 -10 -66 -10 -63 0 -66 1 -61 23 3 12 18 81 33 154 16 73 30 131 31 129 2 -1 16 -66 33 -144z"
       id="path308"
       style="fill:#ffffff;fill-opacity:1" />
    <path
       d="M3050 3395 l0 -365 200 0 c225 0 200 -9 214 78 l6 32 -140 0 -140 0 0 310 0 310 -70 0 -70 0 0 -365z"
       id="path310"
       style="fill:#ffffff;fill-opacity:1" />
    <path
       d="M5820 3400 l0 -360 101 0 c55 0 121 5 146 11 61 16 114 69 143 144 21 54 24 77 24 215 0 167 -9 211 -59 276 -44 58 -95 74 -233 74 l-122 0 0 -360z m232 238 c10 -5 26 -23 35 -41 26 -47 26 -337 1 -384 -25 -45 -55 -63 -105 -63 l-43 0 0 248 c0 137 3 252 7 255 7 8 81 -2 105 -15z"
       id="path312"
       style="fill:#ffffff;fill-opacity:1" />
    <path
       d="M6340 3400 l0 -360 60 0 60 0 0 360 0 360 -60 0 -60 0 0 -360z"
       id="path314"
       style="fill:#ffffff;fill-opacity:1" />
    <path
       d="M6611 3423 c-41 -186 -76 -348 -79 -360 -4 -22 -1 -23 56 -23 l61 0 10 53 c6 28 13 69 17 90 l6 38 82 -3 81 -3 15 -85 15 -85 63 -3 c45 -2 62 0 62 10 0 7 -35 169 -77 360 l-77 348 -81 0 -80 0 -74 -337z m203 -55 l6 -38 -55 0 c-46 0 -55 3 -55 18 0 16 35 207 47 262 6 23 33 -95 57 -242z"
       id="path316"
       style="fill:#ffffff;fill-opacity:1" />
    <path
       d="M7260 3399 l0 -361 123 3 c100 3 129 8 162 25 100 52 141 168 133 377 -7 181 -44 261 -140 301 -27 12 -72 16 -158 16 l-120 0 0 -361z m233 239 c40 -21 58 -90 58 -223 0 -144 -12 -197 -51 -237 -23 -23 -37 -28 -74 -28 l-46 0 0 248 c0 137 3 252 7 256 9 8 80 -2 106 -16z"
       id="path318"
       style="fill:#ffffff;fill-opacity:1" />
    <path
       d="M7772 3468 c3 -283 4 -295 26 -340 32 -64 75 -89 163 -96 112 -8 177 26 216 113 15 34 18 80 21 328 l4 287 -66 0 -66 0 0 -284 c0 -271 -1 -284 -21 -310 -16 -20 -29 -26 -59 -26 -89 0 -102 50 -98 384 l3 236 -63 0 -63 0 3 -292z"
       id="path320"
       style="fill:#ffffff;fill-opacity:1" />
    <path
       d="M8310 3400 l0 -360 60 0 60 0 0 360 0 360 -60 0 -60 0 0 -360z"
       id="path322"
       style="fill:#ffffff;fill-opacity:1" />
    <path
       d="M8492 3708 l3 -53 73 -3 72 -3 0 -304 0 -305 60 0 60 0 2 303 3 302 73 3 72 3 0 54 0 55 -211 0 -210 0 3 -52z"
       id="path324"
       style="fill:#ffffff;fill-opacity:1" />
    <path
       d="M9042 3658 l3 -72 174 -35 c194 -40 194 -37 -4 -71 -199 -34 -176 -21 -173 -103 l3 -72 258 -3 257 -2 0 45 0 45 -207 2 -208 3 208 35 208 34 -3 45 -3 45 -170 33 c-274 52 -273 50 -37 52 l212 1 0 45 0 45 -260 0 -261 0 3 -72z"
       id="path326"
       style="fill:#ffffff;fill-opacity:1" />
    <path
       d="M4780 3675 l0 -45 60 0 60 0 0 45 0 45 -60 0 -60 0 0 -45z"
       id="path328"
       style="fill:#ffffff;fill-opacity:1" />
    <path
       d="M5022 3678 l3 -43 308 -3 307 -2 0 45 0 45 -311 0 -310 0 3 -42z"
       id="path330"
       style="fill:#ffffff;fill-opacity:1" />
    <path
       d="M9825 3635 c-51 -18 -74 -50 -75 -101 0 -56 24 -84 113 -127 41 -19 82 -46 91 -58 46 -66 -11 -139 -95 -122 -30 6 -69 45 -69 69 0 9 -11 14 -30 14 -34 0 -36 -7 -16 -55 19 -45 66 -69 136 -69 95 0 150 47 150 128 0 49 -44 96 -122 131 -82 36 -98 51 -98 91 0 47 23 66 79 62 41 -3 48 -7 61 -35 12 -26 21 -33 44 -33 26 0 28 2 21 28 -9 38 -42 70 -84 82 -46 13 -58 12 -106 -5z"
       id="path332"
       style="fill:#ffffff;fill-opacity:1" />
    <path
       d="M10201 3608 c-15 -49 -121 -409 -121 -414 0 -2 13 -4 29 -4 26 0 29 4 47 68 l20 67 71 3 72 3 21 -71 c20 -66 22 -70 50 -70 17 0 30 4 30 8 0 5 -20 74 -44 153 -24 79 -53 177 -65 217 l-22 72 -39 0 c-35 0 -39 -3 -49 -32z m79 -132 l28 -96 -60 0 c-52 0 -59 2 -54 17 4 9 16 54 28 100 11 46 23 82 25 79 3 -2 17 -47 33 -100z"
       id="path334"
       style="fill:#ffffff;fill-opacity:1" />
    <path
       d="M10480 3415 l0 -225 124 0 c104 0 125 3 130 16 3 9 6 17 6 19 0 3 -44 6 -97 7 l-98 3 -3 203 -2 202 -30 0 -30 0 0 -225z"
       id="path336"
       style="fill:#ffffff;fill-opacity:1" />
    <path
       d="M10727 3523 c20 -65 50 -165 67 -223 l32 -105 38 0 38 0 69 220 c38 121 69 221 69 223 0 2 -14 2 -31 0 l-32 -3 -57 -194 c-47 -160 -58 -189 -64 -165 -4 16 -28 104 -53 197 l-46 167 -33 0 -32 0 35 -117z"
       id="path338"
       style="fill:#ffffff;fill-opacity:1" />
    <path
       d="M11100 3415 l0 -225 130 0 c123 0 130 1 130 20 0 19 -7 20 -100 20 l-101 0 3 88 3 87 88 3 c79 3 87 5 87 22 0 18 -7 20 -90 20 l-90 0 0 75 0 75 95 0 c88 0 95 1 95 20 0 19 -7 20 -125 20 l-125 0 0 -225z"
       id="path340"
       style="fill:#ffffff;fill-opacity:1" />
    <path
       d="M4820 3435 l0 -45 170 0 170 0 0 -135 0 -135 -170 0 -170 0 0 -45 0 -45 410 0 410 0 0 45 0 45 -200 0 -201 0 3 133 3 132 198 3 197 2 0 45 0 45 -410 0 -410 0 0 -45z"
       id="path342"
       style="fill:#ffffff;fill-opacity:1" />
    <path
       d="M9204 3221 c-110 -18 -168 -76 -168 -166 0 -66 27 -113 85 -145 41 -23 54 -25 179 -25 125 0 139 2 184 25 58 30 86 75 86 138 0 81 -38 133 -117 160 -45 15 -187 22 -249 13z m196 -101 c67 -13 92 -34 88 -74 -5 -50 -54 -67 -186 -68 -149 -1 -207 28 -187 92 16 50 156 75 285 50z"
       id="path344"
       style="fill:#ffffff;fill-opacity:1" />
    <path
       d="M11336 3023 c-5 -18 -111 -473 -123 -525 -5 -28 -5 -28 44 -28 l50 0 11 51 c7 28 12 59 12 70 0 17 8 19 69 19 l69 0 13 -70 12 -70 54 0 c50 0 53 1 48 23 -3 12 -30 130 -60 262 -31 132 -60 250 -65 263 -8 19 -17 22 -69 22 -48 0 -61 -3 -65 -17z m109 -300 c5 -21 2 -23 -40 -23 -52 0 -51 -6 -29 115 23 129 24 130 45 25 10 -52 21 -105 24 -117z"
       id="path346"
       style="fill:#ffffff;fill-opacity:1" />
    <path
       d="M11657 3034 c-4 -4 -7 -133 -7 -286 l0 -278 139 0 c152 0 151 0 151 61 l0 29 -95 0 -95 0 -2 238 -3 237 -40 3 c-23 2 -44 0 -48 -4z"
       id="path348"
       style="fill:#ffffff;fill-opacity:1" />
    <path
       d="M11997 3033 c-4 -3 -7 -132 -7 -285 l0 -278 145 0 c144 0 145 0 145 23 0 12 3 32 6 45 6 22 5 22 -95 22 l-101 0 0 240 0 240 -43 0 c-24 0 -47 -3 -50 -7z"
       id="path350"
       style="fill:#ffffff;fill-opacity:1" />
    <path
       d="M12399 3017 c-51 -35 -80 -95 -88 -185 -14 -168 16 -299 79 -344 42 -31 120 -34 174 -9 37 18 50 33 72 78 49 99 45 327 -7 412 -43 72 -159 96 -230 48z m121 -67 c25 -14 40 -62 46 -155 7 -94 -8 -200 -32 -226 -21 -24 -66 -24 -86 -1 -25 27 -38 90 -38 185 0 164 39 235 110 197z"
       id="path352"
       style="fill:#ffffff;fill-opacity:1" />
    <path
       d="M10820 2750 l0 -280 50 0 50 0 0 125 0 125 65 0 65 0 0 -125 0 -125 50 0 50 0 0 280 0 280 -50 0 -50 0 0 -110 0 -110 -65 0 -65 0 0 110 0 110 -50 0 -50 0 0 -280z"
       id="path354"
       style="fill:#ffffff;fill-opacity:1" />
    <path
       d="M10138 2974 c-158 -48 -185 -256 -45 -339 60 -35 170 -50 264 -36 147 22 205 76 205 191 0 95 -47 156 -144 185 -65 19 -217 19 -280 -1z m287 -128 c31 -21 39 -38 31 -70 -10 -41 -76 -59 -194 -54 -119 4 -152 20 -152 72 0 60 45 77 192 72 71 -2 104 -8 123 -20z"
       id="path356"
       style="fill:#ffffff;fill-opacity:1" />
    <path
       d="M9878 2904 l-68 -44 0 -67 0 -68 48 -29 c26 -17 57 -36 70 -44 22 -14 22 -14 22 41 0 53 -2 56 -36 77 l-35 22 35 25 c34 22 36 27 36 78 0 30 -1 55 -2 54 -2 0 -33 -20 -70 -45z"
       id="path358"
       style="fill:#ffffff;fill-opacity:1" />
    <path
       d="M5660 2878 c-32 -16 -52 -36 -70 -68 -23 -42 -25 -55 -25 -175 0 -120 2 -133 25 -174 34 -61 79 -86 155 -86 80 0 122 25 155 90 23 45 25 62 25 170 0 108 -2 125 -25 170 -29 59 -89 95 -155 95 -22 0 -61 -10 -85 -22z m144 -98 c17 -29 20 -52 20 -140 -1 -153 -31 -208 -104 -185 -60 19 -80 251 -29 334 17 28 24 32 56 29 30 -2 41 -9 57 -38z"
       id="path360"
       style="fill:#ffffff;fill-opacity:1" />
    <path
       d="M6250 2887 c-80 -18 -121 -45 -147 -97 -56 -109 -7 -226 111 -267 61 -21 257 -24 322 -5 98 28 147 89 147 181 0 90 -44 151 -128 177 -67 21 -236 27 -305 11z m295 -121 c40 -17 59 -49 50 -83 -23 -93 -405 -93 -423 1 -16 78 63 109 246 100 52 -2 109 -11 127 -18z"
       id="path362"
       style="fill:#ffffff;fill-opacity:1" />
    <path
       d="M2133 2880 c-127 -26 -191 -130 -163 -266 15 -72 58 -116 170 -177 48 -26 96 -57 108 -70 30 -32 43 -79 32 -118 -15 -51 -38 -69 -86 -69 -52 0 -89 29 -102 80 l-8 35 -73 3 -72 3 7 -38 c23 -132 104 -198 239 -197 75 0 127 17 172 57 76 67 96 187 48 284 -30 60 -63 87 -174 144 -98 50 -121 76 -121 135 0 57 25 84 78 84 45 0 71 -23 81 -72 7 -33 7 -33 74 -36 l67 -3 0 36 c0 52 -37 123 -80 151 -20 14 -63 29 -96 34 -32 6 -59 9 -59 9 0 -1 -19 -5 -42 -9z"
       id="path364"
       style="fill:#ffffff;fill-opacity:1" />
    <path
       d="M3500 2850 l0 -40 100 0 c55 0 100 -3 100 -6 0 -3 -50 -87 -111 -186 -80 -131 -109 -187 -107 -207 l3 -26 166 -3 166 -2 7 31 c3 17 6 35 6 40 0 5 -49 9 -110 9 -60 0 -110 2 -110 5 0 3 47 83 105 179 82 136 105 181 105 210 l0 36 -160 0 -160 0 0 -40z"
       id="path366"
       style="fill:#ffffff;fill-opacity:1" />
    <path
       d="M3900 2635 l0 -255 88 0 c114 0 159 13 203 60 43 45 59 100 59 202 0 189 -58 247 -247 248 l-103 0 0 -255z m172 174 c54 -15 71 -52 71 -159 0 -140 -28 -190 -105 -190 l-38 0 0 180 c0 201 -4 191 72 169z"
       id="path368"
       style="fill:#ffffff;fill-opacity:1" />
    <path
       d="M4340 2635 l0 -255 50 0 50 0 0 110 0 110 45 0 c67 0 85 -23 85 -107 0 -106 4 -113 60 -113 l48 0 -4 78 c-7 117 -13 140 -37 159 l-23 17 30 26 c40 36 48 118 16 168 -31 50 -71 62 -205 62 l-115 0 0 -255z m215 160 c30 -29 32 -64 6 -96 -14 -18 -29 -23 -67 -23 l-49 -1 -3 59 c-4 79 0 86 48 86 30 0 47 -7 65 -25z"
       id="path370"
       style="fill:#ffffff;fill-opacity:1" />
    <path
       d="M4801 2648 c-35 -134 -66 -249 -68 -256 -4 -10 7 -12 48 -10 l54 3 14 63 14 62 67 0 67 0 14 -62 14 -63 53 -3 c28 -2 52 1 52 5 0 5 -25 103 -55 218 -31 116 -60 227 -66 248 l-10 37 -67 0 -68 0 -63 -242z m155 42 l21 -100 -50 0 c-40 0 -48 3 -43 15 3 9 14 54 23 100 10 47 20 85 23 85 3 0 15 -45 26 -100z"
       id="path372"
       style="fill:#ffffff;fill-opacity:1" />
    <path
       d="M5184 2638 l72 -253 60 -3 60 -3 69 243 c37 134 70 249 73 256 3 9 -11 12 -51 12 -49 0 -55 -3 -60 -22 -43 -192 -92 -379 -94 -363 -2 11 -22 102 -45 203 l-41 182 -57 0 -57 0 71 -252z"
       id="path374"
       style="fill:#ffffff;fill-opacity:1" />
    <path
       d="M6830 2680 c0 -203 1 -210 20 -210 19 0 20 8 22 178 l3 177 23 -110 c54 -253 52 -245 76 -245 21 0 25 11 60 168 21 92 39 172 41 177 2 6 4 -70 4 -167 l1 -178 25 0 25 0 -2 208 -3 207 -35 0 -35 0 -40 -169 -40 -169 -13 64 c-8 35 -25 112 -39 172 l-25 107 -34 0 -34 0 0 -210z"
       id="path376"
       style="fill:#ffffff;fill-opacity:1" />
    <path
       d="M7210 2680 l0 -211 97 3 c84 3 98 6 101 21 3 15 -6 17 -77 17 l-81 0 0 80 0 80 70 0 c63 0 70 2 70 20 0 18 -7 20 -70 20 l-71 0 3 68 3 67 73 3 c64 3 72 5 72 22 0 18 -7 20 -95 20 l-95 0 0 -210z"
       id="path378"
       style="fill:#ffffff;fill-opacity:1" />
    <path
       d="M7460 2681 l0 -211 25 0 c25 0 25 0 25 95 l0 95 38 0 c20 0 43 -4 50 -9 17 -10 31 -72 32 -133 0 -43 2 -48 23 -48 21 0 22 3 19 67 -3 86 -8 108 -28 128 -15 15 -15 18 6 40 34 36 32 118 -4 154 -23 23 -36 26 -106 29 l-80 4 0 -211z m150 149 c12 -12 20 -33 20 -55 0 -48 -29 -75 -80 -75 l-40 0 0 75 0 75 40 0 c27 0 47 -7 60 -20z"
       id="path380"
       style="fill:#ffffff;fill-opacity:1" />
    <path
       d="M7747 2883 c-4 -3 -7 -98 -7 -210 l0 -203 25 0 25 0 0 100 0 101 68 -3 67 -3 1 -95 c2 -89 3 -95 23 -98 21 -3 21 -2 21 208 0 210 0 211 -21 208 -20 -3 -22 -10 -23 -88 l-1 -85 -67 -3 -68 -3 0 91 c0 81 -2 90 -18 90 -10 0 -22 -3 -25 -7z"
       id="path382"
       style="fill:#ffffff;fill-opacity:1" />
    <path
       d="M8116 2873 c-7 -24 -96 -394 -96 -399 0 -2 10 -4 23 -4 21 0 25 7 36 65 l13 65 57 0 57 0 13 -65 c12 -58 16 -65 37 -65 13 0 24 2 24 5 0 5 -88 368 -96 398 -4 11 -15 17 -34 17 -19 0 -30 -6 -34 -17z m55 -130 c25 -106 25 -103 -21 -103 -25 0 -40 5 -40 13 0 23 34 176 38 172 2 -2 13 -39 23 -82z"
       id="path384"
       style="fill:#ffffff;fill-opacity:1" />
    <path
       d="M8330 2679 l0 -211 81 4 c77 3 82 5 110 36 24 27 29 41 29 83 0 42 -5 55 -29 79 -27 28 -28 30 -10 46 25 23 33 67 19 110 -15 45 -56 64 -140 64 l-60 0 0 -211z m138 155 c16 -11 22 -25 22 -53 0 -48 -18 -64 -73 -65 l-42 -1 -3 68 -3 67 38 0 c21 0 49 -7 61 -16z m16 -183 c15 -15 20 -33 20 -61 -2 -58 -26 -80 -86 -80 l-48 0 0 78 c0 43 3 82 8 86 13 14 84 -2 106 -23z"
       id="path386"
       style="fill:#ffffff;fill-opacity:1" />
    <path
       d="M8685 2878 c-9 -24 -95 -383 -95 -395 0 -7 9 -13 20 -13 19 0 23 10 44 103 6 25 10 27 61 27 l54 0 10 -37 c5 -21 12 -50 15 -65 5 -22 12 -28 31 -28 23 0 25 3 18 28 -97 389 -96 387 -126 390 -16 2 -29 -2 -32 -10z m68 -205 l7 -33 -45 0 c-25 0 -45 2 -45 4 0 3 10 46 22 98 l21 93 17 -65 c9 -36 19 -80 23 -97z"
       id="path388"
       style="fill:#ffffff;fill-opacity:1" />
    <path
       d="M0 2810 l0 -60 85 0 85 0 0 -335 0 -335 70 0 70 0 0 335 0 335 85 0 85 0 0 60 0 60 -240 0 -240 0 0 -60z"
       id="path390"
       style="fill:#ffffff;fill-opacity:1" />
    <path
       d="M560 2475 l0 -395 75 0 75 0 0 395 0 395 -75 0 -75 0 0 -395z"
       id="path392"
       style="fill:#ffffff;fill-opacity:1" />
    <path
       d="M850 2475 l0 -395 204 0 203 0 7 46 c3 26 6 53 6 60 0 11 -29 14 -140 14 l-140 0 0 115 0 115 125 0 125 0 0 65 0 65 -125 0 -125 0 0 95 0 95 130 0 130 0 0 60 0 60 -200 0 -200 0 0 -395z"
       id="path394"
       style="fill:#ffffff;fill-opacity:1" />
    <path
       d="M1360 2475 l0 -395 66 0 65 0 -3 284 c-2 157 0 279 3 273 4 -7 51 -135 105 -284 l97 -273 79 0 78 0 0 395 0 395 -66 0 -66 0 4 -270 c1 -149 3 -270 2 -270 0 0 -45 121 -100 270 l-99 270 -82 0 -83 0 0 -395z"
       id="path396"
       style="fill:#ffffff;fill-opacity:1" />
    <path
       d="M2945 2776 l-350 -92 -3 -95 -3 -94 343 -89 c189 -49 349 -91 356 -94 10 -3 12 12 10 69 l-3 74 -87 19 -88 19 0 93 0 93 79 17 c44 9 85 20 91 24 7 4 10 34 8 77 l-3 70 -350 -91z m65 -191 c0 -36 -3 -65 -7 -64 -5 0 -73 15 -152 33 l-144 32 134 31 c184 42 169 45 169 -32z"
       id="path398"
       style="fill:#ffffff;fill-opacity:1" />
    <path
       d="M9440 2814 c-63 -29 -134 -61 -157 -70 l-41 -16 -95 66 c-52 36 -98 66 -101 66 -3 0 -6 -24 -6 -53 l0 -53 115 -70 115 -69 -115 -3 -115 -3 0 -44 0 -45 260 0 260 0 0 45 0 45 -87 0 c-78 1 -91 4 -118 25 -16 13 -27 26 -25 28 3 2 52 23 110 47 58 24 109 46 113 50 5 4 7 29 5 57 l-3 49 -115 -52z"
       id="path400"
       style="fill:#ffffff;fill-opacity:1" />
    <path
       d="M9810 2450 l0 -60 370 0 370 0 0 60 0 60 -370 0 -370 0 0 -60z"
       id="path402"
       style="fill:#ffffff;fill-opacity:1" />
    <path
       d="M6090 2416 c0 -43 4 -56 18 -60 9 -3 111 -26 226 -51 205 -45 242 -55 197 -55 -24 0 -208 -37 -352 -71 l-89 -21 0 -58 0 -58 273 69 c149 38 282 74 295 79 19 8 22 17 22 64 0 31 -5 58 -12 63 -11 8 -553 153 -572 153 -3 0 -6 -24 -6 -54z"
       id="path404"
       style="fill:#ffffff;fill-opacity:1" />
    <path
       d="M9485 2461 c-3 -2 -5 -44 -5 -93 l0 -88 -220 0 -220 0 0 -45 0 -45 260 0 260 0 0 134 0 134 -35 4 c-20 2 -38 2 -40 -1z"
       id="path406"
       style="fill:#ffffff;fill-opacity:1" />
    <path
       d="M10010 2261 l0 -59 88 -20 c48 -11 128 -28 177 -38 86 -17 131 -34 90 -34 -11 0 -95 -16 -187 -37 l-168 -37 0 -69 c0 -60 2 -68 17 -63 9 4 133 41 276 82 164 48 268 73 284 69 35 -9 63 -41 63 -75 0 -30 0 -30 56 -30 l56 0 -4 55 c-6 68 -29 102 -89 132 -38 19 -618 183 -648 183 -7 0 -11 -23 -11 -59z"
       id="path408"
       style="fill:#ffffff;fill-opacity:1" />
    <path
       d="M2590 2150 l0 -70 140 0 140 0 0 -100 0 -100 -140 0 -140 0 0 -70 0 -70 355 0 355 0 0 70 0 70 -160 0 -160 0 0 100 0 100 160 0 160 0 0 70 0 70 -355 0 -355 0 0 -70z"
       id="path410"
       style="fill:#ffffff;fill-opacity:1" />
    <path
       d="M3470 2165 l0 -45 385 0 385 0 0 45 0 45 -385 0 -385 0 0 -45z"
       id="path412"
       style="fill:#ffffff;fill-opacity:1" />
    <path
       d="M4460 2192 c-45 -22 -75 -79 -66 -126 9 -46 38 -81 94 -113 26 -14 57 -35 70 -46 40 -36 23 -107 -26 -107 -35 0 -49 10 -61 43 -9 23 -16 27 -52 27 -41 0 -41 0 -34 -32 10 -48 32 -78 70 -94 101 -42 209 20 208 119 -1 64 -25 102 -86 136 -92 52 -98 59 -95 99 3 32 7 37 31 40 33 4 57 -13 57 -39 0 -16 8 -19 44 -19 l44 0 -8 35 c-10 45 -26 65 -67 82 -44 18 -81 16 -123 -5z"
       id="path414"
       style="fill:#ffffff;fill-opacity:1" />
    <path
       d="M4756 1993 c-26 -114 -50 -218 -53 -230 -5 -21 -2 -23 36 -23 36 0 41 3 46 28 19 90 16 87 72 90 l52 3 12 -60 12 -61 43 0 c41 0 44 2 39 23 -3 12 -27 114 -53 227 l-48 205 -55 3 -55 3 -48 -208z m119 41 c20 -106 21 -104 -21 -104 -32 0 -36 2 -31 23 3 12 11 54 18 94 7 40 14 71 16 69 1 -1 9 -38 18 -82z"
       id="path416"
       style="fill:#ffffff;fill-opacity:1" />
    <path
       d="M5060 1970 l0 -231 118 3 117 3 3 33 3 32 -80 0 -81 0 0 195 0 195 -40 0 -40 0 0 -230z"
       id="path418"
       style="fill:#ffffff;fill-opacity:1" />
    <path
       d="M5332 2006 c3 -179 5 -197 24 -223 43 -59 163 -69 217 -19 38 35 47 85 47 269 l0 167 -45 0 -45 0 0 -183 c0 -165 -2 -186 -18 -200 -25 -23 -55 -21 -78 4 -17 19 -19 41 -22 200 l-4 179 -40 0 -40 0 4 -194z"
       id="path420"
       style="fill:#ffffff;fill-opacity:1" />
    <path
       d="M5660 2165 l0 -35 50 0 50 0 0 -195 0 -195 40 0 40 0 0 195 0 195 50 0 50 0 0 35 0 35 -140 0 -140 0 0 -35z"
       id="path422"
       style="fill:#ffffff;fill-opacity:1" />
    <path
       d="M9480 2025 l0 -95 -75 0 -75 0 0 90 0 90 -40 0 -40 0 0 -90 0 -90 -65 0 -65 0 0 90 0 90 -40 0 -40 0 0 -135 0 -135 260 0 260 0 0 140 0 140 -40 0 -40 0 0 -95z"
       id="path424"
       style="fill:#ffffff;fill-opacity:1" />
    <path
       d="M6395 2004 c-143 -35 -270 -66 -283 -69 -22 -5 -23 -10 -20 -78 l3 -72 280 -67 c154 -37 286 -68 293 -68 9 0 12 14 10 53 l-3 52 -72 14 -73 15 0 72 0 72 73 14 72 13 0 54 c0 30 -4 55 -10 57 -5 1 -127 -26 -270 -62z m45 -150 c0 -52 6 -52 -145 -21 l-110 23 120 25 c66 14 123 23 128 21 4 -2 7 -23 7 -48z"
       id="path426"
       style="fill:#ffffff;fill-opacity:1" />
    <path
       d="M4168 1878 l-3 -143 -147 -3 -147 -3 -3 133 -3 133 -32 3 -32 3 -3 -133 -3 -133 -122 -3 -122 -3 -3 138 -3 138 -37 3 -38 3 0 -180 0 -181 385 0 385 0 0 179 c0 191 0 191 -51 191 -17 0 -19 -10 -21 -142z"
       id="path428"
       style="fill:#ffffff;fill-opacity:1" />
    <path
       d="M9842 1788 l3 -63 143 -3 142 -3 0 -79 0 -79 -142 -3 -143 -3 0 -60 0 -60 353 -3 352 -2 0 65 0 65 -155 0 -155 0 0 80 0 80 155 0 155 0 0 65 0 65 -355 0 -356 0 3 -62z"
       id="path430"
       style="fill:#ffffff;fill-opacity:1" />
    <path
       d="M9040 1735 c0 -52 -17 -45 185 -75 158 -24 194 -31 180 -35 -5 -2 -90 -18 -187 -36 l-178 -33 0 -42 c0 -50 -18 -43 204 -85 94 -18 166 -34 160 -36 -5 -1 -74 -12 -154 -23 -233 -33 -210 -24 -210 -81 0 -33 4 -49 13 -49 6 0 122 22 257 49 l245 48 3 50 3 49 -175 35 c-102 20 -168 37 -158 41 9 3 82 19 162 34 80 15 151 29 158 31 7 3 12 24 12 52 l0 47 -247 52 c-137 29 -254 52 -260 52 -9 0 -13 -16 -13 -45z"
       id="path432"
       style="fill:#ffffff;fill-opacity:1" />
    <path
       d="M2840 1611 c-179 -25 -260 -105 -260 -255 0 -119 60 -200 175 -235 95 -30 285 -30 380 0 127 39 182 118 173 252 -8 123 -60 188 -178 221 -67 18 -216 27 -290 17z m290 -163 c46 -20 71 -49 72 -85 1 -39 -17 -70 -52 -88 -44 -23 -174 -38 -266 -31 -143 10 -194 40 -194 112 0 35 5 47 30 68 17 14 47 28 68 31 20 4 42 8 47 11 25 10 262 -5 295 -18z"
       id="path434"
       style="fill:#ffffff;fill-opacity:1" />
    <path
       d="M6160 1578 c-58 -39 -70 -75 -70 -216 l0 -122 293 2 292 3 0 50 0 50 -125 5 -125 5 3 45 c4 69 20 79 142 88 l105 7 0 50 0 50 -105 -3 c-108 -4 -163 -19 -175 -49 -5 -13 -12 -10 -40 17 -31 30 -43 35 -98 38 -52 3 -67 0 -97 -20z m159 -114 c14 -18 21 -41 21 -70 l0 -44 -86 0 -87 0 5 50 c7 66 29 90 84 90 34 0 47 -5 63 -26z"
       id="path436"
       style="fill:#ffffff;fill-opacity:1" />
    <path
       d="M3470 1450 l0 -40 163 -2 162 -3 0 -125 0 -125 -163 -3 -163 -3 3 -42 3 -42 380 0 380 0 3 43 3 42 -186 0 -186 0 3 128 3 127 183 3 182 2 0 40 0 40 -385 0 -385 0 0 -40z"
       id="path438"
       style="fill:#ffffff;fill-opacity:1" />
    <path
       d="M9104 1171 c-47 -28 -64 -83 -64 -201 l0 -100 260 0 260 0 0 50 0 50 -110 0 -110 0 0 38 c0 66 15 76 122 82 l93 5 3 47 3 48 -78 -6 c-115 -8 -135 -12 -161 -37 -22 -20 -24 -21 -33 -4 -26 46 -129 62 -185 28z m140 -97 c10 -9 16 -33 16 -60 l0 -44 -70 0 -70 0 0 44 c0 27 6 51 16 60 20 21 88 21 108 0z"
       id="path440"
       style="fill:#ffffff;fill-opacity:1" />
    <path
       d="M6295 1150 c-74 -9 -122 -29 -156 -66 -39 -43 -49 -85 -49 -200 l0 -104 295 0 295 0 0 68 c0 109 -16 181 -48 221 -53 66 -189 98 -337 81z m207 -120 c58 -16 79 -40 85 -93 l6 -47 -207 0 -206 0 0 39 c0 57 8 71 54 92 47 21 204 26 268 9z"
       id="path442"
       style="fill:#ffffff;fill-opacity:1" />
    <path
       d="M3188 924 l-3 -139 -297 -3 -298 -2 0 -70 0 -70 355 0 355 0 0 205 0 205 -24 0 c-13 0 -37 3 -54 6 l-31 6 -3 -138z"
       id="path444"
       style="fill:#ffffff;fill-opacity:1" />
    <path
       d="M9480 715 l0 -95 -75 0 -75 0 0 85 0 85 -40 0 -40 0 0 -85 0 -85 -65 0 -65 0 0 90 0 90 -40 0 -41 0 3 -137 3 -138 258 -3 257 -2 0 139 c0 150 0 151 -56 151 -24 0 -24 -1 -24 -95z"
       id="path446"
       style="fill:#ffffff;fill-opacity:1" />
    <path
       d="M6586 713 c-3 -4 -6 -57 -6 -119 l0 -112 -207 114 c-162 90 -215 114 -245 114 l-38 0 0 -170 0 -170 45 0 44 0 3 108 3 108 210 -119 c174 -97 216 -117 245 -115 l35 3 3 173 c2 133 0 173 -10 176 -31 10 -76 15 -82 9z"
       id="path448"
       style="fill:#ffffff;fill-opacity:1" />
    <path
       d="M3160 524 c-69 -19 -224 -60 -345 -92 l-220 -59 -3 -94 -3 -94 343 -89 c189 -49 349 -91 356 -94 10 -3 12 12 10 69 l-3 74 -87 19 -88 20 0 92 c0 101 -4 95 70 109 19 4 52 11 73 16 l37 10 0 74 c0 41 -3 75 -7 74 -5 0 -64 -16 -133 -35z m-150 -249 c0 -36 -3 -65 -7 -64 -5 0 -73 15 -153 33 l-144 33 79 18 c44 9 105 23 135 30 93 22 90 24 90 -50z"
       id="path450"
       style="fill:#ffffff;fill-opacity:1" />
    <path
       d="M9040 422 l0 -47 207 -45 c197 -42 206 -45 163 -53 -25 -4 -116 -24 -202 -42 -87 -19 -160 -35 -163 -35 -3 0 -5 -22 -5 -50 0 -32 4 -50 12 -50 11 0 152 35 413 103 l90 23 0 59 0 58 -244 63 c-135 35 -251 64 -258 64 -9 0 -13 -15 -13 -48z"
       id="path452"
       style="fill:#ffffff;fill-opacity:1" />
  </g>
</svg>
