<?xml version="1.0" encoding="UTF-8" standalone="no"?>
<!-- Generator: Adobe Illustrator 19.2.1, SVG Export Plug-In . SVG Version: 6.00 Build 0)  -->

<svg
   xmlns:dc="http://purl.org/dc/elements/1.1/"
   xmlns:cc="http://creativecommons.org/ns#"
   xmlns:rdf="http://www.w3.org/1999/02/22-rdf-syntax-ns#"
   xmlns:svg="http://www.w3.org/2000/svg"
   xmlns="http://www.w3.org/2000/svg"
   xmlns:sodipodi="http://sodipodi.sourceforge.net/DTD/sodipodi-0.dtd"
   xmlns:inkscape="http://www.inkscape.org/namespaces/inkscape"
   version="1.1"
   id="layer"
   x="0px"
   y="0px"
   viewBox="0 0 1472.1749 743.91711"
   xml:space="preserve"
   sodipodi:docname="ieeerama-vector-logo.svg"
   width="1472.1748"
   height="743.91711"
   inkscape:version="0.92.4 (5da689c313, 2019-01-14)"><metadata
   id="metadata5800"><rdf:RDF><cc:Work
       rdf:about=""><dc:format>image/svg+xml</dc:format><dc:type
         rdf:resource="http://purl.org/dc/dcmitype/StillImage" /><dc:title /></cc:Work></rdf:RDF></metadata><defs
   id="defs5798">
	
	
	
	
	
	
	
	
	
	
	
	
	
	
	
	
	
	
	
	
	
	
	
	
	
	
	
	
	
	
	
	
	
	
	
	
	
</defs><sodipodi:namedview
   pagecolor="#ffffff"
   bordercolor="#666666"
   borderopacity="1"
   objecttolerance="10"
   gridtolerance="10"
   guidetolerance="10"
   inkscape:pageopacity="0"
   inkscape:pageshadow="2"
   inkscape:window-width="1600"
   inkscape:window-height="877"
   id="namedview5796"
   showgrid="false"
   inkscape:snap-text-baseline="false"
   showguides="true"
   inkscape:zoom="0.3619632"
   inkscape:cx="37.569094"
   inkscape:cy="241.51064"
   inkscape:window-x="1358"
   inkscape:window-y="-8"
   inkscape:window-maximized="1"
   inkscape:current-layer="layer1" />
<style
   type="text/css"
   id="style5717">
	.st0{fill:#0070AD;}
</style>

<flowRoot
   xml:space="preserve"
   id="flowRoot6349"
   style="font-style:normal;font-variant:normal;font-weight:normal;font-stretch:normal;font-size:40px;line-height:1.25;font-family:sans-serif;-inkscape-font-specification:'sans-serif, Normal';font-variant-ligatures:normal;font-variant-caps:normal;font-variant-numeric:normal;text-align:center;letter-spacing:0px;word-spacing:0px;writing-mode:lr-tb;text-anchor:middle;fill:#000000;fill-opacity:1;stroke:none"
   transform="translate(42.583492,-303.29729)"><flowRegion
     id="flowRegion6351"><rect
       id="rect6353"
       width="566.52435"
       height="135.77049"
       x="71.303932"
       y="387.29639" /></flowRegion><flowPara
     id="flowPara6355" /></flowRoot><flowRoot
   xml:space="preserve"
   id="flowRoot6365"
   style="font-style:normal;font-variant:normal;font-weight:normal;font-stretch:normal;font-size:40px;line-height:1.25;font-family:sans-serif;-inkscape-font-specification:'sans-serif, Normal';font-variant-ligatures:normal;font-variant-caps:normal;font-variant-numeric:normal;text-align:center;letter-spacing:0px;word-spacing:0px;writing-mode:lr-tb;text-anchor:middle;fill:#000000;fill-opacity:1;stroke:none"
   transform="translate(42.583492,-303.29729)"><flowRegion
     id="flowRegion6367"><rect
       id="rect6369"
       width="542.10522"
       height="84.001892"
       x="19.535322"
       y="416.59937" /></flowRegion><flowPara
     id="flowPara6371" /></flowRoot><g
   inkscape:groupmode="layer"
   id="layer10"
   inkscape:label="Layer 1"
   transform="translate(-1.3710322,99.646293)" /><g
   inkscape:groupmode="layer"
   id="layer11"
   inkscape:label="Layer 2"
   transform="translate(-1.3710322,99.646293)">
</g><g
   inkscape:groupmode="layer"
   id="layer1"
   inkscape:label="Layer 3"
   transform="translate(-1.3710322,99.646293)">



<g
   id="g1004"
   style="fill:#ffffff"><g
     style="fill:#ffffff"
     id="g984"><path
   style="fill:#ffffff;fill-opacity:1;stroke:none;stroke-width:0.13333333"
   id="path6455"
   d="m 1217.3333,1.9840179 c -1.8667,0.9333334 -4.2667,2.1333333 -5.3333,2.6666666 -4.8,1.8666667 -13.8667,8.2666665 -18.4,12.9333335 -1.4667,1.333333 -5.7334,2.533333 -11.6,3.066666 -5.0667,0.533333 -14.1334,2.133333 -20,3.6 -5.8667,1.333333 -13.0667,3.066667 -16,3.733333 -25.4667,6 -65.4667,22.533333 -90,37.333333 -4.8,2.8 -10.5334,6.133333 -12.9334,7.333333 -2.4,1.2 -4.9333,3.066666 -5.8666,4.133333 -0.8,1.066667 -2,1.866667 -2.6667,1.866667 -2.1333,0 -29.8667,21.199999 -39.06666,29.733337 l -6.8,6.4 8.66667,-6 c 4.79999,-3.33334 10.79999,-7.2 13.46669,-8.66667 2.5333,-1.466668 5.4666,-3.600001 6.4,-4.666668 1.0666,-1.2 2.4,-2.133333 3.2,-2.133333 0.6666,0 3.3333,-1.466667 5.7333,-3.333333 2.4,-1.866667 4.8,-3.333333 5.2,-3.333333 0.5333,0 2.5333,-1.066667 4.4,-2.533334 10.4,-7.333333 61.2,-33.466666 65.0667,-33.466666 0.6666,0 4.8,-1.466666 9.2,-3.2 7.3333,-2.933333 17.2,-6.133333 30.6666,-9.999999 14.5334,-4 44.5334,-5.6 47.2,-2.266667 0.8,0.933333 1.6,4.4 1.7334,7.6 0.5333,11.6 -13.0667,32.666666 -34.1334,53.066665 -4.9333,4.666668 -8.6666,8.799998 -8.4,9.066668 0.2667,0.26667 2.8,-0.53333 5.7334,-1.73333 4.8,-2 11.6,-2 16.6666,0.13333 2.2667,0.8 3.2,-0.53333 17.3334,-26.666667 3.0666,-5.866667 8,-14.933333 10.8,-20 2.8,-5.2 6.6666,-12.666666 8.5333,-16.666666 7.6,-16.133333 9.4667,-19.2 14.5333,-24.933333 5.7334,-6.6666662 11.4667,-9.7333328 18.2667,-9.7333328 h 4.4 l -4.4,-2.6666666 c -5.2,-3.19999992 -16.5333,-3.59999991 -21.6,-0.6666667 z"
   inkscape:connector-curvature="0" /><path
   style="fill:#ffffff;fill-opacity:1;stroke:none;stroke-width:0.13333333"
   id="path6457"
   d="m 938.39998,145.85068 c -3.46667,2.66667 -6.66667,4.8 -7.06667,4.8 -1.06667,0 -15.86667,12.26667 -16.4,13.6 -0.26667,0.66667 -1.2,1.06667 -2.13333,1.06667 -2.66667,0 -36.53334,34 -43.86667,44 -3.46667,4.8 -7.33333,9.73333 -8.4,11.06666 -1.06667,1.2 -1.86667,2.53334 -1.86667,2.93334 0,0.4 -2.13333,4 -4.8,8.13333 -6.93333,10.93333 -13.19999,24.8 -17.33333,38.53333 -3.2,10.53333 -3.6,14.4 -3.73333,31.6 -0.13333,12.26667 0.4,20.13333 1.33333,21.06667 0.93334,0.93333 2.8,-1.46667 6.26667,-8.26667 4.4,-8.66667 13.6,-23.73333 17.86666,-29.06667 14.4,-18.26666 19.2,-23.6 28.66667,-32.66666 14.93333,-14.4 24.93333,-23.33333 26.13333,-23.33333 0.53334,0 2.8,-1.6 4.93334,-3.73334 4.26666,-3.73333 6.53333,-5.33333 13.2,-9.33333 2.13333,-1.2 5.46666,-3.6 7.46666,-5.33333 2,-1.6 4.26667,-2.93334 4.93334,-2.93334 0.66666,0 3.2,-1.46666 5.6,-3.2 2.4,-1.73333 8.26666,-5.2 13.2,-7.46666 4.93333,-2.4 9.86666,-4.8 10.93333,-5.46667 1.06667,-0.66667 4.66667,-2.4 8,-3.86667 3.33333,-1.46666 7.2,-3.46666 8.53333,-4.26666 6,-3.33334 47.33336,-17.73334 54.39996,-18.93334 2.8,-0.53333 6.9334,-1.86666 9.3334,-2.93333 l 4.4,-2 -6.6667,0.93333 c -3.6,0.4 -10,1.33334 -14,2 -4,0.66667 -13.0667,1.86667 -20,2.53334 -6.9333,0.8 -18.13333,2.26666 -24.79999,3.46666 -12.93333,2.13334 -41.86667,4.13334 -50.13333,3.46667 -4,-0.4 -5.06667,-0.93333 -5.06667,-3.06667 0,-1.46666 1.33333,-3.06666 3.06667,-3.73333 1.6,-0.66667 5.2,-2.8 8,-4.66667 2.8,-1.86666 5.86666,-3.46666 6.8,-3.46666 2,0 8.8,-6.8 8.8,-8.8 0,-2.93334 -4.93334,-5.6 -12,-6.53334 -6.93334,-0.8 -7.6,-0.66666 -13.6,3.86667 z"
   inkscape:connector-curvature="0" /><path
   style="fill:#ffffff;fill-opacity:1;stroke:none;stroke-width:0.13333333"
   id="path6463"
   d="m 1215.3333,242.78401 c -20.6667,0.93334 -30.4,2.13334 -47.0667,5.73334 -5.3333,1.2 -11.8666,2.13333 -14.2666,2.13333 -2.5334,0 -5.8667,0.53333 -7.6,1.2 -6.4,2.4 -13.2,4.26666 -19.3334,5.46666 -14.9333,2.66667 -67.4666,23.06667 -71.3333,27.6 -0.8,0.93334 -2.2667,1.73334 -3.2,1.73334 -1.0667,0 -4.2667,1.46666 -7.2,3.33333 -2.9333,1.86667 -5.6,3.33333 -6,3.33333 -0.5333,0 -2.8,1.46667 -5.2,3.33334 -2.4,1.86666 -4.9333,3.33333 -5.6,3.33333 -0.8,0 -3.3333,1.73333 -5.8667,4 -2.5333,2.13333 -5.3333,3.86667 -6,4 -0.8,0 -2.4,1.06667 -3.6,2.26667 -1.2,1.33333 -6.9333,6.26666 -12.8,11.06666 -5.73329,4.8 -11.59996,10.13334 -13.06663,12 -2.8,3.86667 -3.46666,4.26667 10.13334,-5.86666 7.73329,-5.86667 9.86669,-7.06667 24.93329,-14.66667 14.2667,-7.06667 25.4667,-12.26667 31.0667,-14.13333 2.5333,-0.93334 9.7333,-3.46667 16,-5.6 6.2667,-2.26667 14.9333,-4.93334 19.3333,-6 4.4,-1.06667 10.1334,-2.4 12.6667,-3.06667 8.8,-2.13333 24.6667,-5.06667 36,-6.66667 16.6667,-2.26666 64.9333,-3.2 82,-1.46666 27.2,2.66666 45.3333,5.33333 55.8667,8 5.7333,1.6 11.6,2.8 13.0666,2.8 2.6667,0 20.9334,5.73333 26,8.26666 1.4667,0.8 4.6667,3.06667 6.9334,5.2 5.3333,4.8 5.3333,9.46667 0.2666,14.66667 -3.7333,3.6 -4.5333,3.86667 -14.4,3.86667 -5.7333,0 -14.5333,-0.66667 -19.7333,-1.46667 -5.0667,-0.8 -16.5333,-2.13333 -25.3333,-3.2 -8.8,-0.93333 -23.4667,-2.66667 -32.6667,-3.86667 -53.4667,-6.53333 -116.8,-6.53333 -154,-0.13333 -18.8,3.33333 -34.5333,6.93333 -39.8667,9.2 -2.8,1.2 -6.1333,2.13333 -7.4666,2.13333 -2.1334,0 -15.6,5.2 -26,10.13334 -2.13336,1.06666 -6.40003,2.66666 -9.33336,3.73333 l -5.33333,2 6,-0.8 c 3.33333,-0.4 9.33329,-1.73333 13.33329,-3.06667 23.8667,-7.86666 94.4,-8.4 134,-1.06666 8.1334,1.46666 18.1334,3.2 22.5334,3.86666 4.2666,0.66667 11.2,2.13334 15.3333,3.33334 4.1333,1.2 10.1333,2.53333 13.4667,3.2 3.4666,0.53333 10.8,2.66666 16.4,4.53333 5.7333,1.86667 11.6,3.46667 13.0666,3.46667 1.4667,0 4.5334,0.93333 6.8,2.13333 2.2667,1.2 7.8667,3.2 12.2667,4.53333 10.6667,3.06667 19.3333,6.13334 30.8,10.8 5.2,2.13334 10,3.86667 10.8,3.86667 0.6667,0 4.5333,1.46667 8.2667,3.33333 3.8666,1.86667 7.4666,3.33334 8.1333,3.33334 1.3333,0 12.5333,4.8 26.8,11.59999 5.4667,2.53334 12.6667,5.86667 16,7.46667 7.8667,3.46667 9.3333,4.26667 18.2667,9.06667 4,2.13333 7.7333,3.6 8.1333,3.2 0.8,-0.8 -15.7333,-16.66667 -17.3333,-16.66667 -0.5334,0 -2.9334,-1.6 -5.3334,-3.73333 -2.4,-2 -5.4666,-4.26667 -6.6666,-4.93333 -1.2,-0.8 -5.8667,-3.86667 -10.4,-7.06667 -4.5334,-3.06667 -8.5334,-5.6 -8.8,-5.6 -0.4,0 -5.2,-3.46667 -10.9334,-7.6 -19.8666,-14.8 -22.8,-17.86667 -22.9333,-24.66667 0,-3.2 0.5333,-3.6 6,-4.53333 9.7333,-1.46667 38.6667,0.8 56.1333,4.26667 17.3334,3.46666 25.8667,4 25.8667,1.86666 0,-0.8 -2.1333,-5.73333 -4.8,-11.06666 -2.6667,-5.2 -6.4,-13.46667 -8.1333,-18.26667 -5.2,-14.13333 -8.1334,-19.86667 -11.3334,-21.86667 -3.7333,-2.26666 -25.0666,-10.53333 -32.4,-12.53333 -7.4666,-2 -17.8666,-5.46667 -23.0666,-7.73333 -5.3334,-2.26667 -8.1334,-7.46667 -5.6,-10.53334 3.0666,-3.73333 12.2666,-8.26666 21.7333,-10.66666 6,-1.6 8.5333,-2.93333 7.7333,-3.73333 -1.4666,-1.46667 -46.5333,-3.6 -68.8,-3.33334 -7.3333,0.13334 -22.2666,0.66667 -33.3333,1.2 z"
   inkscape:connector-curvature="0" /><path
   style="fill:#ffffff;fill-opacity:1;stroke:none;stroke-width:0.13333333"
   id="path6465"
   d="m 924.53331,253.05068 c -2.4,1.2 -6.4,3.33333 -9.06667,4.66666 -2.53333,1.46667 -5.33333,3.33334 -6.26666,4.4 -0.8,1.06667 -2,1.86667 -2.66667,1.86667 -3.6,0 -26.53333,20.13333 -34.93333,30.8 -5.73334,7.2 -16.93334,28.53333 -16.93334,32.26667 0,6 23.06667,-0.66667 32.4,-9.6 5.33334,-4.8 8.53334,-12.4 10,-24 0.93334,-6.66667 2.53334,-11.46667 5.06667,-15.2 5.06667,-7.73334 5.33333,-8 17.6,-18.26667 11.2,-9.46666 12.4,-11.06666 4.8,-6.93333 z"
   inkscape:connector-curvature="0" /><path
   style="fill:#ffffff;fill-opacity:1;stroke:none;stroke-width:0.13333333"
   id="path6475"
   d="m 901.99998,331.45068 c -5.06667,2 -11.46667,4 -14,4.53333 -2.53334,0.66667 -8.26667,2.26667 -12.66667,3.73333 -18.26667,6 -34.26666,8.53334 -36,5.6 -2.26666,-3.6 -6.53333,0.66667 -16,15.73334 -0.66666,1.2 -2,2.93333 -2.93333,3.86666 -0.8,0.93334 -2,2.93334 -2.4,4.4 -0.4,1.46667 -1.46667,2.66667 -2.13333,2.66667 -0.66667,0 -1.2,0.66667 -1.2,1.46667 0,0.93333 -1.86667,4.53333 -4.13334,8.26666 l -4.13333,6.8 3.73333,-2.4 c 2.13334,-1.33333 5.06667,-3.6 6.66667,-4.93333 1.46667,-1.46667 3.2,-2.53333 3.73333,-2.53333 0.53334,0 2.93334,-1.46667 5.33334,-3.33334 2.4,-1.86666 4.8,-3.33333 5.33333,-3.33333 0.53333,0 3.46667,-1.6 6.53333,-3.73333 11.06667,-7.2 8.53334,-5.73334 43.6,-23.46667 9.86667,-5.06667 19.2,-9.73333 20.66667,-10.53333 1.46666,-0.8 4.8,-2.53334 7.33333,-3.73334 6.66667,-3.46666 3.46667,-2.93333 -7.33333,0.93334 z"
   inkscape:connector-curvature="0" /><path
   style="fill:#ffffff;fill-opacity:1;stroke:none;stroke-width:0.13333333"
   id="path6477"
   d="m 1084.6666,351.18401 c 0.8,0.26667 7.3334,1.86667 14.6667,3.33333 21.6,4.53334 56.2667,16.4 65.3333,22.4 1.4667,0.93334 3.3334,1.73334 4.1334,1.73334 1.7333,0 12.6666,6 39.2,21.46666 2.5333,1.6 5.8666,3.86667 7.4666,5.33333 1.4667,1.33334 3.0667,2.53334 3.6,2.53334 0.9334,0 18.4,12.26666 25.2,17.86666 2.4,2 9.6,7.73334 16.1334,12.93334 6.4,5.2 11.6,9.86666 11.6,10.66666 0,0.66667 0.5333,1.2 1.3333,1.2 0.6667,0 3.2,1.86667 5.6,4.13334 11.6,10.93333 27.8667,27.06666 34.8,34.4 4.1333,4.53333 7.6,7.86666 7.6,7.46666 0,-0.66666 -10.8,-16.93333 -12,-18 -2.4,-2.13333 -11.0667,-17.06666 -15.8667,-26.93333 -3.6,-7.33333 -5.8666,-14.26667 -6.4,-18.93333 -0.6666,-6.53334 -0.4,-7.6 2.6667,-10.66667 3.2,-3.06667 4.5333,-3.46667 13.6,-3.46667 5.6,0 10,-0.53333 9.7333,-1.06666 -0.6666,-1.86667 -19.4666,-17.6 -20.9333,-17.6 -0.6667,0 -2.1333,-0.93334 -3.3333,-2 -5.4667,-5.46667 -49.2,-26 -55.4667,-26 -0.9333,0 -7.2,-1.73333 -13.8667,-3.86667 -6.6666,-2.13333 -15.7333,-4.53333 -20.1333,-5.46666 -4.4,-0.93334 -10.6667,-2.13334 -14,-2.8 -3.3333,-0.66667 -11.3333,-1.86667 -18,-2.53334 -6.5333,-0.66666 -18.2667,-2.13333 -26,-3.2 -12.5333,-1.86666 -59.8667,-4.26666 -56.6667,-2.93333 z"
   inkscape:connector-curvature="0" /><path
   style="fill:#ffffff;fill-opacity:1;stroke:none;stroke-width:0.13333333"
   id="path6479"
   d="m 969.99998,367.31734 c -6.13334,1.86667 -10.26667,4 -16.26667,8.26667 -2.26667,1.73333 -4.53333,3.06667 -5.06667,3.06667 -0.4,0 -2.8,1.46666 -5.2,3.33333 -2.4,1.86667 -4.8,3.33333 -5.33333,3.33333 -0.66667,0 -2.93333,1.33333 -5.2,2.93333 -5.2,3.73334 -18.4,11.73334 -19.2,11.73334 -0.4,0 -2.93333,1.73333 -5.73333,4 -2.8,2.13333 -5.46667,4 -6,4 -0.53334,0 -2.8,1.33333 -4.93334,2.93333 -8.26666,5.86667 -39.6,21.73333 -56.26666,28.53333 -8,3.33334 -11.06667,3.86667 -22.4,3.86667 -7.2,0 -13.06667,0 -13.06667,0.13333 0,0 4.53334,4.8 10.13334,10.53334 9.73333,9.86666 10.53333,10.4 16.13333,10.4 3.86667,0 7.06667,-0.93334 9.46667,-2.8 2,-1.46667 6.4,-4.4 9.99999,-6.26667 6,-3.2 6.53334,-3.2 9.6,-1.2 1.86667,1.2 3.33334,2.53333 3.33334,3.06667 0,0.53333 2.26666,4.53333 5.2,8.93333 5.73333,8.8 16.26666,18.26667 21.73333,19.73333 l 3.73333,0.8 -2.66666,-4.26666 c -3.6,-5.73334 -9.33334,-24.13334 -9.33334,-29.46667 0.13334,-18.8 14.93334,-33.46667 40.4,-39.86667 9.73334,-2.4 13.33334,-2.66666 36.26667,-1.86666 13.86667,0.4 30.13333,1.2 36,1.6 15.86669,1.2 37.06669,-2.66667 43.06669,-7.86667 15.8666,-14.26667 -42.00003,-46 -68.40002,-37.6 z"
   inkscape:connector-curvature="0" /><path
   style="fill:#ffffff;fill-opacity:1;stroke:none;stroke-width:0.13333333"
   id="path6483"
   d="m 1061.8666,455.18401 c -7.0666,7.33333 -17.7333,16.8 -18.8,16.8 -0.6666,0 -2.6666,1.46666 -4.4,3.33333 -1.7333,1.86667 -3.7333,3.33333 -4.5333,3.33333 -0.6667,0 -2.5333,1.2 -4,2.53334 -3.4667,3.2 -22.1333,10.8 -26.5333,10.8 -1.7334,0 -5.60003,-1.6 -8.40003,-3.46667 -3.2,-2.26667 -5.73333,-3.06667 -6.66666,-2.4 -0.93334,0.66667 -5.2,4 -9.6,7.46667 -4.4,3.46666 -9.73333,7.2 -11.86667,8.4 -2,1.06666 -6.13333,3.6 -9.06666,5.33333 -10.93334,6.8 -15.73334,7.46667 -16.4,2.26667 -0.26667,-1.6 -0.66667,-2.93334 -0.8,-2.93334 -0.26667,0 -3.33334,1.6 -6.66667,3.46667 -6.13333,3.46667 -9.33333,3.6 -15.73333,1.2 -1.46667,-0.53333 -2.4,-0.4 -2.4,0.53333 0,0.93334 1.06666,1.86667 2.4,2.4 1.2,0.4 4,2 6,3.46667 2,1.33333 5.73333,3.06666 8.13333,3.73333 5.86667,1.6 11.46667,6.13333 11.46667,9.2 0,4.26667 3.73333,5.73333 16.4,6.4 13.86666,0.66667 25.73333,-1.2 33.19999,-5.06667 2.8,-1.46666 6,-2.66666 6.93333,-2.66666 0.9333,0 4.2667,-1.86667 7.2,-4 3.0667,-2.26667 6.1333,-4 6.6667,-4 0.6666,0 2.5333,-1.46667 4.2666,-3.33333 1.7334,-1.86667 3.8667,-3.33334 4.9334,-3.33334 0.9333,0 1.7333,-0.4 1.7333,-1.06666 0,-0.53334 2,-3.06667 4.4,-5.73334 11.4667,-12.8 14.4,-16.4 21.2,-26.8 6.5333,-9.73333 15.7333,-26.4 15.7333,-28.4 0,-1.33333 -2,-0.26666 -4.8,2.53334 z"
   inkscape:connector-curvature="0" /><rect
   style="fill:#ffffff"
   id="rect5779"
   height="132.8"
   width="36.799999"
   class="st0"
   y="160.38402"
   x="317.09998" /><polygon
   style="fill:#ffffff"
   id="polygon5781"
   points="312.4,283.9 376.8,283.9 376.8,309.6 275.6,309.6 275.6,176.8 376.8,176.8 376.8,202.5 312.4,202.5 312.4,230 371.6,230 371.6,255.7 312.4,255.7 "
   class="st0"
   transform="translate(97.599987,-16.415991)" /><polygon
   style="fill:#ffffff"
   id="polygon5783"
   points="434.2,283.9 498.5,283.9 498.5,309.6 397.4,309.6 397.4,176.8 498.5,176.8 498.5,202.5 434.2,202.5 434.2,230 493.4,230 493.4,255.7 434.2,255.7 "
   class="st0"
   transform="translate(97.599987,-16.415991)" /><polygon
   style="fill:#ffffff"
   id="polygon5785"
   points="556,283.9 620.3,283.9 620.3,309.6 519.1,309.6 519.1,176.8 620.3,176.8 620.3,202.5 556,202.5 556,230 615.2,230 615.2,255.7 556,255.7 "
   class="st0"
   transform="translate(97.599987,-16.415991)" /><path
   style="fill:#ffffff"
   inkscape:connector-curvature="0"
   id="path5787"
   d="m 270.29999,229.28401 c -1.9,2.6 -14.1,18.8 -28.3,33.1 v 0 c -14.2,14.3 -28.7,25.1 -31.2,27 v 0 c -2.7,2.2 -7.1,2.1 -9.8,0 -2.6,-1.9 -17.7,-13.4 -31.9,-27.7 v 0 c -14.3,-14.2 -25.7,-29.3 -27.7,-31.9 v 0 c -2.2,-2.7 -2.1,-7.1 0,-9.8 1.9,-2.6 13.4,-17.7 27.7,-31.9 v 0 c 14.2,-14.3 29.3,-25.7 31.9,-27.7 2.7,-2.1 7.1,-2.2 9.8,0 v 0 0 c 2.6,1.9 17.7,13.4 31.9,27.7 v 0 c 14.3,14.2 25.8,29.8 27.7,32.3 v 0 c 2.1,2.7 2,6.2 -0.1,8.9 m 20,-10.2 c -6.5,-5.9 -26.4,-18.9 -43.1,-35.6 -16.6,-16.6 -29.8,-36.7 -35.6,-43.2 -4.4,-4.4 -7,-4.4 -11.4,0 -5.8,6.4 -19.1,26.6 -35.6,43.2 -16.7,16.7 -36.7,30.3 -43.1,35.6 -4.4,4.4 -4.4,7 0,11.4 6.4,5.7 26.6,19.1 43.1,35.7 16.7,16.7 29.8,36.7 35.6,43.1 4.4,4.4 6.9,4.4 11.4,0 5.7,-6.4 18.9,-26.4 35.6,-43.1 16.6,-16.6 36.8,-30.3 43.2,-35.7 4.3,-4.5 4.3,-7 -0.1,-11.4"
   class="st0" /><path
   style="fill:#ffffff"
   inkscape:connector-curvature="0"
   id="path5789"
   d="m 204.09999,238.58401 c -20.2,0 -36.4,-6.5 -36.5,-14.5 0,-5.5 7.6,-10.3 19,-12.7 l 8.7,5.6 c -8.9,1.6 -14.9,4.8 -14.9,8.6 0,5.3 12.2,9.6 27.3,9.6 13,0 27.5,-4.3 27.5,-9.6 -0.1,-3.3 -3.9,-5.3 -7.7,-7.2 l -5.2,1.2 -2.7,-7.5 16.8,4.1 -3.8,1 c 0,0 6.4,3.3 7.8,7 2.6,8 -14.9,14.4 -36.3,14.4 m -4.1,29 1.2,-27.4 c 1.9,0.3 7.5,0.3 9.4,0 l 1.2,27.4 c -3.1,0.8 -8.8,0.6 -11.8,0 m 5.7,-89.2 9.7,28 h -6.5 l 1.2,26.6 c -3.2,0.6 -5.6,0.4 -8.7,-0.1 l 1.1,-26.6 h -6.6 z m 59.9,42.4 c -1.8,-2.4 -12.5,-16.8 -25.7,-30 v 0 c -13.2,-13.2 -27.2,-23.9 -29.6,-25.7 v 0 0 c -2.5,-2 -6.5,-1.9 -9.1,0 -2.4,1.8 -16.4,12.4 -29.6,25.7 v 0 c -13.2,13.2 -23.9,27.2 -25.7,29.6 -2,2.5 -2.1,6.6 0,9.1 v 0 c 1.8,2.4 12.4,16.4 25.7,29.6 v 0 c 13.2,13.2 27.2,23.9 29.6,25.7 2.5,2 6.6,2 9.1,0 v 0 c 2.4,-1.8 15.8,-11.8 29,-25.1 v 0 c 13.2,-13.2 24.5,-28.3 26.3,-30.7 2,-2.5 2.1,-5.7 0,-8.2 z"
   class="st0" /><path
   style="fill:#ffffff"
   inkscape:connector-curvature="0"
   id="path5791"
   d="m 235.99999,298.58401 h -1.3 v -1.6 h 1 c 0.5,0 1.3,0.1 1.3,0.7 0,0.8 -0.3,0.9 -1,0.9 m 2.5,-0.7 c 0,-1.5 -1,-2 -2.7,-2 h -2.5 v 6.6 h 1.4 v -2.8 h 0.7 l 1.5,2.8 h 1.7 l -1.7,-2.9 c 0.9,0 1.6,-0.5 1.6,-1.7 m -2.7,6.1 v 0 c -2.4,0 -4.4,-1.9 -4.4,-4.7 0,-2.8 2,-4.7 4.4,-4.7 2.4,0 4.4,1.9 4.4,4.7 0,2.8 -2,4.7 -4.4,4.7 m 0,-10.9 c -3.3,0 -6.2,2.3 -6.2,6.1 0,3.9 2.9,6.2 6.2,6.2 3.2,0 6.2,-2.3 6.2,-6.2 -0.1,-3.8 -3,-6.1 -6.2,-6.1"
   class="st0" /><text
   xml:space="preserve"
   style="font-style:normal;font-variant:normal;font-weight:normal;font-stretch:normal;font-size:48.35666656px;line-height:1.25;font-family:sans-serif;-inkscape-font-specification:'sans-serif, Normal';font-variant-ligatures:normal;font-variant-caps:normal;font-variant-numeric:normal;text-align:center;letter-spacing:-0.81601876px;word-spacing:0px;writing-mode:lr-tb;text-anchor:middle;fill:#ffffff;fill-opacity:1;stroke:none;stroke-width:1.13335931"
   x="348.75882"
   y="422.2327"
   id="text6375"
   transform="scale(1.0410886,0.96053304)"><tspan
     sodipodi:role="line"
     id="tspan6373"
     x="348.3508"
     y="422.2327"
     style="fill:#ffffff;stroke-width:1.13335931">Mechatronics Branch</tspan></text>


<text
   xml:space="preserve"
   style="font-style:normal;font-variant:normal;font-weight:normal;font-stretch:normal;font-size:26.66666603px;line-height:1.25;font-family:sans-serif;-inkscape-font-specification:'sans-serif, Normal';font-variant-ligatures:normal;font-variant-caps:normal;font-variant-numeric:normal;text-align:center;letter-spacing:-0.81601876px;word-spacing:0px;writing-mode:lr-tb;text-anchor:middle;fill:#ffffff;fill-opacity:1;stroke:none;stroke-width:1.13335931"
   x="422.9668"
   y="370.17108"
   id="text6375-0"
   transform="matrix(1.0410886,0,-0.20216892,0.96053304,0,0)"><tspan
     sodipodi:role="line"
     id="tspan6373-4"
     x="422.55878"
     y="370.17108"
     style="font-size:26.66666603px;fill:#ffffff;stroke-width:1.13335931">Instituto Tecnológico Superior de Atlixco</tspan></text>


</g></g></g></svg>