<?xml version="1.0" encoding="UTF-8" standalone="no"?>
<!-- Generator: Adobe Illustrator 19.2.1, SVG Export Plug-In . SVG Version: 6.00 Build 0)  -->

<svg
   xmlns:dc="http://purl.org/dc/elements/1.1/"
   xmlns:cc="http://creativecommons.org/ns#"
   xmlns:rdf="http://www.w3.org/1999/02/22-rdf-syntax-ns#"
   xmlns:svg="http://www.w3.org/2000/svg"
   xmlns="http://www.w3.org/2000/svg"
   xmlns:sodipodi="http://sodipodi.sourceforge.net/DTD/sodipodi-0.dtd"
   xmlns:inkscape="http://www.inkscape.org/namespaces/inkscape"
   version="1.1"
   id="layer"
   x="0px"
   y="0px"
   viewBox="0 0 568.00003 537.18346"
   xml:space="preserve"
   sodipodi:docname="ieeerama-vector-logo-ico.svg"
   width="568"
   height="537.18347"
   inkscape:version="0.92.4 (5da689c313, 2019-01-14)"><metadata
   id="metadata5800"><rdf:RDF><cc:Work
       rdf:about=""><dc:format>image/svg+xml</dc:format><dc:type
         rdf:resource="http://purl.org/dc/dcmitype/StillImage" /><dc:title></dc:title></cc:Work></rdf:RDF></metadata><defs
   id="defs5798">
	
	
	
	
	
	
	
	
	
	
	
	
	
	
	
	
	
	
	
	
	
	
	
	
	
	
	
	
	
	
	
	
	
	
	
	
	








</defs><sodipodi:namedview
   pagecolor="#ffffff"
   bordercolor="#666666"
   borderopacity="1"
   objecttolerance="10"
   gridtolerance="10"
   guidetolerance="10"
   inkscape:pageopacity="0"
   inkscape:pageshadow="2"
   inkscape:window-width="1366"
   inkscape:window-height="745"
   id="namedview5796"
   showgrid="false"
   inkscape:snap-text-baseline="false"
   showguides="true"
   inkscape:zoom="0.25594664"
   inkscape:cx="-165.3348"
   inkscape:cy="-0.9665444"
   inkscape:window-x="-8"
   inkscape:window-y="-8"
   inkscape:window-maximized="1"
   inkscape:current-layer="layer1" />
<style
   type="text/css"
   id="style5717">
	.st0{fill:#0070AD;}
</style>

<flowRoot
   xml:space="preserve"
   id="flowRoot6349"
   style="font-style:normal;font-variant:normal;font-weight:normal;font-stretch:normal;font-size:40px;line-height:1.25;font-family:sans-serif;-inkscape-font-specification:'sans-serif, Normal';font-variant-ligatures:normal;font-variant-caps:normal;font-variant-numeric:normal;text-align:center;letter-spacing:0px;word-spacing:0px;writing-mode:lr-tb;text-anchor:middle;fill:#000000;fill-opacity:1;stroke:none"
   transform="translate(-771.37879,-68.94358)"><flowRegion
     id="flowRegion6351"><rect
       id="rect6353"
       width="566.52435"
       height="135.77049"
       x="71.303932"
       y="387.29639" /></flowRegion><flowPara
     id="flowPara6355" /></flowRoot><flowRoot
   xml:space="preserve"
   id="flowRoot6365"
   style="font-style:normal;font-variant:normal;font-weight:normal;font-stretch:normal;font-size:40px;line-height:1.25;font-family:sans-serif;-inkscape-font-specification:'sans-serif, Normal';font-variant-ligatures:normal;font-variant-caps:normal;font-variant-numeric:normal;text-align:center;letter-spacing:0px;word-spacing:0px;writing-mode:lr-tb;text-anchor:middle;fill:#000000;fill-opacity:1;stroke:none"
   transform="translate(-771.37879,-68.94358)"><flowRegion
     id="flowRegion6367"><rect
       id="rect6369"
       width="542.10522"
       height="84.001892"
       x="19.535322"
       y="416.59937" /></flowRegion><flowPara
     id="flowPara6371" /></flowRoot><g
   inkscape:groupmode="layer"
   id="layer10"
   inkscape:label="Layer 1"
   transform="translate(-815.33331,334)" /><g
   inkscape:groupmode="layer"
   id="layer11"
   inkscape:label="Layer 2"
   transform="translate(-815.33331,334)">
</g><g
   inkscape:groupmode="layer"
   id="layer1"
   inkscape:label="Layer 3"
   transform="translate(-815.33331,334)">



<g
   id="g891"
   style="fill:#00629b;fill-opacity:1"><path
     inkscape:connector-curvature="0"
     d="m 1227.3333,-332.01598 c -1.8667,0.93333 -4.2667,2.13333 -5.3333,2.66666 -4.8,1.86667 -13.8667,8.26667 -18.4,12.93334 -1.4667,1.33333 -5.7334,2.53333 -11.6,3.06666 -5.0667,0.53334 -14.1334,2.13334 -20,3.6 -5.8667,1.33334 -13.0667,3.06667 -16,3.73334 -25.4667,6 -65.4667,22.53333 -90,37.33333 -4.8,2.8 -10.5334,6.13333 -12.9334,7.33333 -2.4,1.2 -4.9333,3.06667 -5.8666,4.13334 -0.8,1.06666 -2,1.86666 -2.6667,1.86666 -2.1333,0 -29.8667,21.2 -39.0667,29.73334 l -6.79996,6.4 8.66666,-6 c 4.8,-3.33334 10.8,-7.2 13.4667,-8.66667 2.5333,-1.46667 5.4666,-3.6 6.4,-4.66667 1.0666,-1.2 2.4,-2.13333 3.2,-2.13333 0.6666,0 3.3333,-1.46667 5.7333,-3.33333 2.4,-1.86667 4.8,-3.33334 5.2,-3.33334 0.5333,0 2.5333,-1.06666 4.4,-2.53333 10.4,-7.33333 61.2,-33.46667 65.0667,-33.46667 0.6666,0 4.8,-1.46666 9.2,-3.2 7.3333,-2.93333 17.2,-6.13333 30.6666,-10 14.5334,-4 44.5334,-5.6 47.2,-2.26666 0.8,0.93333 1.6,4.4 1.7334,7.6 0.5333,11.6 -13.0667,32.66666 -34.1334,53.06666 -4.9333,4.66667 -8.6666,8.8 -8.4,9.06667 0.2667,0.26667 2.8,-0.53333 5.7334,-1.73333 4.8,-2 11.6,-2 16.6666,0.13333 2.2667,0.8 3.2,-0.53333 17.3334,-26.66667 3.0666,-5.86666 8,-14.93333 10.8,-20 2.8,-5.2 6.6666,-12.66666 8.5333,-16.66666 7.6,-16.13334 9.4667,-19.2 14.5333,-24.93334 5.7334,-6.66666 11.4667,-9.73333 18.2667,-9.73333 h 4.4 l -4.4,-2.66667 c -5.2,-3.2 -16.5333,-3.6 -21.6,-0.66666 z"
     id="path6455"
     style="fill:#00629b;fill-opacity:1;stroke:none;stroke-width:0.13333333" /><path
     inkscape:connector-curvature="0"
     d="m 948.39998,-188.14932 c -3.46667,2.66667 -6.66667,4.8 -7.06667,4.8 -1.06667,0 -15.86667,12.26667 -16.4,13.6 -0.26667,0.66667 -1.2,1.06667 -2.13333,1.06667 -2.66667,0 -36.53334,34 -43.86667,44 -3.46667,4.8 -7.33333,9.73333 -8.4,11.06666 -1.06667,1.2 -1.86667,2.53334 -1.86667,2.93334 0,0.4 -2.13333,4 -4.8,8.13333 -6.93333,10.93333 -13.19999,24.8 -17.33333,38.53333 -3.2,10.53333 -3.6,14.4 -3.73333,31.6 -0.13333,12.26667 0.4,20.13333 1.33333,21.06667 0.93334,0.93333 2.8,-1.46667 6.26667,-8.26667 4.4,-8.66667 13.6,-23.73333 17.86666,-29.06667 14.4,-18.26666 19.2,-23.6 28.66667,-32.66666 14.93333,-14.4 24.93333,-23.33333 26.13333,-23.33333 0.53334,0 2.8,-1.6 4.93334,-3.73334 4.26666,-3.73333 6.53333,-5.33333 13.2,-9.33333 2.13333,-1.2 5.46666,-3.6 7.46666,-5.33333 2,-1.6 4.26667,-2.93334 4.93334,-2.93334 0.66666,0 3.2,-1.46666 5.6,-3.2 2.4,-1.73333 8.26666,-5.2 13.2,-7.46666 4.93333,-2.4 9.86666,-4.8 10.93333,-5.46667 1.06667,-0.66667 4.66667,-2.4 8,-3.86667 3.33333,-1.46666 7.2,-3.46666 8.53333,-4.26666 5.99996,-3.33334 47.33336,-17.73334 54.39996,-18.93334 2.8,-0.53333 6.9334,-1.86666 9.3334,-2.93333 l 4.4,-2 -6.6667,0.93333 c -3.6,0.4 -10,1.33334 -14,2 -4,0.66667 -13.0667,1.86667 -20,2.53334 -6.9333,0.8 -18.1333,2.26666 -24.8,3.46666 -12.93332,2.13334 -41.86666,4.13334 -50.13332,3.46667 -4,-0.4 -5.06667,-0.93333 -5.06667,-3.06667 0,-1.46666 1.33333,-3.06666 3.06667,-3.73333 1.6,-0.66667 5.2,-2.8 8,-4.66667 2.8,-1.86666 5.86666,-3.46666 6.8,-3.46666 2,0 8.8,-6.8 8.8,-8.8 0,-2.93334 -4.93334,-5.6 -12,-6.53334 -6.93334,-0.8 -7.6,-0.66666 -13.6,3.86667 z"
     id="path6457"
     style="fill:#00629b;fill-opacity:1;stroke:none;stroke-width:0.13333333" /><path
     inkscape:connector-curvature="0"
     d="m 1225.3333,-91.21599 c -20.6667,0.93334 -30.4,2.13334 -47.0667,5.73334 -5.3333,1.2 -11.8666,2.13333 -14.2666,2.13333 -2.5334,0 -5.8667,0.53333 -7.6,1.2 -6.4,2.4 -13.2,4.26666 -19.3334,5.46666 -14.9333,2.66667 -67.4666,23.06667 -71.3333,27.6 -0.8,0.93334 -2.2667,1.73334 -3.2,1.73334 -1.0667,0 -4.2667,1.46666 -7.2,3.33333 -2.9333,1.86667 -5.6,3.33333 -6,3.33333 -0.5333,0 -2.8,1.46667 -5.2,3.33334 -2.4,1.86666 -4.9333,3.33333 -5.6,3.33333 -0.8,0 -3.3333,1.73333 -5.8667,4 -2.5333,2.13333 -5.3333,3.86667 -6,4 -0.8,0 -2.4,1.06667 -3.6,2.26667 -1.2,1.33333 -6.9333,6.26666 -12.8,11.06666 -5.7333,4.8 -11.59996,10.13334 -13.06663,12 -2.8,3.86667 -3.46666,4.26667 10.13333,-5.86666 7.7333,-5.86667 9.8667,-7.06667 24.9333,-14.66667 14.2667,-7.06667 25.4667,-12.26667 31.0667,-14.13333 2.5333,-0.93334 9.7333,-3.46667 16,-5.6 6.2667,-2.26667 14.9333,-4.93334 19.3333,-6 4.4,-1.06667 10.1334,-2.4 12.6667,-3.06667 8.8,-2.13333 24.6667,-5.06667 36,-6.66667 16.6667,-2.26666 64.9333,-3.2 82,-1.46666 27.2,2.66666 45.3333,5.33333 55.8667,8 5.7333,1.6 11.6,2.8 13.0666,2.8 2.6667,0 20.9334,5.73333 26,8.26666 1.4667,0.8 4.6667,3.06667 6.9334,5.2 5.3333,4.8 5.3333,9.46667 0.2666,14.66667 -3.7333,3.6 -4.5333,3.86667 -14.4,3.86667 -5.7333,0 -14.5333,-0.66667 -19.7333,-1.46667 -5.0667,-0.8 -16.5333,-2.13333 -25.3333,-3.2 -8.8,-0.93333 -23.4667,-2.66667 -32.6667,-3.86667 -53.4667,-6.53333 -116.8,-6.53333 -154,-0.13333 -18.8,3.33333 -34.5333,6.93333 -39.8667,9.2 -2.8,1.2 -6.1333,2.13333 -7.4666,2.13333 -2.1334,0 -15.6,5.2 -26,10.13334 -2.1334,1.06666 -6.4,2.66666 -9.3334,3.73333 l -5.33329,2 5.99999,-0.8 c 3.3333,-0.4 9.3333,-1.73333 13.3333,-3.06667 23.8667,-7.86666 94.4,-8.4 134,-1.06666 8.1334,1.46666 18.1334,3.2 22.5334,3.86666 4.2666,0.66667 11.2,2.13334 15.3333,3.33334 4.1333,1.2 10.1333,2.53333 13.4667,3.2 3.4666,0.53333 10.8,2.66666 16.4,4.53333 5.7333,1.86667 11.6,3.46667 13.0666,3.46667 1.4667,0 4.5334,0.93333 6.8,2.13333 2.2667,1.2 7.8667,3.2 12.2667,4.53333 10.6667,3.06667 19.3333,6.13334 30.8,10.8 5.2,2.13334 10,3.86667 10.8,3.86667 0.6667,0 4.5333,1.46667 8.2667,3.33333 3.8666,1.86667 7.4666,3.33334 8.1333,3.33334 1.3333,0 12.5333,4.8 26.8,11.59999 5.4667,2.53334 12.6667,5.86667 16,7.46667 7.8667,3.46667 9.3333,4.26667 18.2667,9.06667 4,2.13333 7.7333,3.6 8.1333,3.2 0.8,-0.8 -15.7333,-16.66667 -17.3333,-16.66667 -0.5334,0 -2.9334,-1.6 -5.3334,-3.73333 -2.4,-2 -5.4666,-4.26667 -6.6666,-4.93333 -1.2,-0.8 -5.8667,-3.86667 -10.4,-7.06667 -4.5334,-3.06667 -8.5334,-5.6 -8.8,-5.6 -0.4,0 -5.2,-3.46667 -10.9334,-7.6 -19.8666,-14.8 -22.8,-17.86667 -22.9333,-24.66667 0,-3.2 0.5333,-3.6 6,-4.53333 9.7333,-1.46667 38.6667,0.8 56.1333,4.26667 17.3334,3.46666 25.8667,4 25.8667,1.86666 0,-0.8 -2.1333,-5.73333 -4.8,-11.06666 -2.6667,-5.2 -6.4,-13.46667 -8.1333,-18.26667 -5.2,-14.13333 -8.1334,-19.86667 -11.3334,-21.86667 -3.7333,-2.26666 -25.0666,-10.53333 -32.4,-12.53333 -7.4666,-2 -17.8666,-5.46667 -23.0666,-7.73333 -5.3334,-2.26667 -8.1334,-7.46667 -5.6,-10.53334 3.0666,-3.73333 12.2666,-8.26666 21.7333,-10.66666 6,-1.6 8.5333,-2.93333 7.7333,-3.73333 -1.4666,-1.46667 -46.5333,-3.6 -68.8,-3.33334 -7.3333,0.13334 -22.2666,0.66667 -33.3333,1.2 z"
     id="path6463"
     style="fill:#00629b;fill-opacity:1;stroke:none;stroke-width:0.13333333" /><path
     inkscape:connector-curvature="0"
     d="m 934.53331,-80.94932 c -2.4,1.2 -6.4,3.33333 -9.06667,4.66666 -2.53333,1.46667 -5.33333,3.33334 -6.26666,4.4 -0.8,1.06667 -2,1.86667 -2.66667,1.86667 -3.6,0 -26.53333,20.13333 -34.93333,30.8 -5.73334,7.2 -16.93334,28.53333 -16.93334,32.26667 0,6 23.06667,-0.66667 32.4,-9.6 5.33334,-4.8 8.53334,-12.4 10,-24 0.93334,-6.66667 2.53334,-11.46667 5.06667,-15.2 5.06667,-7.73334 5.33333,-8 17.6,-18.26667 11.2,-9.46666 12.4,-11.06666 4.8,-6.93333 z"
     id="path6465"
     style="fill:#00629b;fill-opacity:1;stroke:none;stroke-width:0.13333333" /><path
     inkscape:connector-curvature="0"
     d="m 911.99998,-2.54932 c -5.06667,2 -11.46667,4 -14,4.53333 -2.53334,0.66667 -8.26667,2.26667 -12.66667,3.73333 -18.26667,6 -34.26666,8.53334 -36,5.6 -2.26666,-3.6 -6.53333,0.66667 -16,15.73334 -0.66666,1.2 -2,2.93333 -2.93333,3.86666 -0.8,0.93334 -2,2.93334 -2.4,4.4 -0.4,1.46667 -1.46667,2.66667 -2.13333,2.66667 -0.66667,0 -1.2,0.66667 -1.2,1.46667 0,0.93333 -1.86667,4.53333 -4.13334,8.26666 l -4.13333,6.8 3.73333,-2.4 c 2.13334,-1.33333 5.06667,-3.6 6.66667,-4.93333 1.46667,-1.46667 3.2,-2.53333 3.73333,-2.53333 0.53334,0 2.93334,-1.46667 5.33334,-3.33334 2.4,-1.86666 4.8,-3.33333 5.33333,-3.33333 0.53333,0 3.46667,-1.6 6.53333,-3.73333 11.06667,-7.2 8.53334,-5.73334 43.6,-23.46667 9.86667,-5.06667 19.2,-9.73333 20.66667,-10.53333 1.46666,-0.8 4.8,-2.53334 7.33333,-3.73334 6.66667,-3.46666 3.46667,-2.93333 -7.33333,0.93334 z"
     id="path6475"
     style="fill:#00629b;fill-opacity:1;stroke:none;stroke-width:0.13333333" /><path
     inkscape:connector-curvature="0"
     d="m 1094.6666,17.18401 c 0.8,0.26667 7.3334,1.86667 14.6667,3.33333 21.6,4.53334 56.2667,16.4 65.3333,22.4 1.4667,0.93334 3.3334,1.73334 4.1334,1.73334 1.7333,0 12.6666,6 39.2,21.46666 2.5333,1.6 5.8666,3.86667 7.4666,5.33333 1.4667,1.33334 3.0667,2.53334 3.6,2.53334 0.9334,0 18.4,12.26666 25.2,17.86666 2.4,2 9.6,7.73334 16.1334,12.93334 6.4,5.2 11.6,9.86666 11.6,10.66666 0,0.66667 0.5333,1.2 1.3333,1.2 0.6667,0 3.2,1.86667 5.6,4.13334 11.6,10.93333 27.8667,27.06666 34.8,34.4 4.1333,4.53333 7.6,7.86666 7.6,7.46666 0,-0.66666 -10.8,-16.93333 -12,-18 -2.4,-2.13333 -11.0667,-17.06666 -15.8667,-26.93333 -3.6,-7.33333 -5.8666,-14.26667 -6.4,-18.93333 -0.6666,-6.53334 -0.4,-7.6 2.6667,-10.66667 3.2,-3.06667 4.5333,-3.46667 13.6,-3.46667 5.6,0 10,-0.53333 9.7333,-1.06666 -0.6666,-1.86667 -19.4666,-17.6 -20.9333,-17.6 -0.6667,0 -2.1333,-0.93334 -3.3333,-2 -5.4667,-5.46667 -49.2,-26 -55.4667,-26 -0.9333,0 -7.2,-1.73333 -13.8667,-3.86667 -6.6666,-2.13333 -15.7333,-4.53333 -20.1333,-5.46666 -4.4,-0.93334 -10.6667,-2.13334 -14,-2.8 -3.3333,-0.66667 -11.3333,-1.86667 -18,-2.53334 -6.5333,-0.66666 -18.2667,-2.13333 -26,-3.2 -12.5333,-1.86666 -59.8667,-4.26666 -56.6667,-2.93333 z"
     id="path6477"
     style="fill:#00629b;fill-opacity:1;stroke:none;stroke-width:0.13333333" /><path
     inkscape:connector-curvature="0"
     d="m 979.99998,33.31734 c -6.13334,1.86667 -10.26667,4 -16.26667,8.26667 -2.26667,1.73333 -4.53333,3.06667 -5.06667,3.06667 -0.4,0 -2.8,1.46666 -5.2,3.33333 -2.4,1.86667 -4.8,3.33333 -5.33333,3.33333 -0.66667,0 -2.93333,1.33333 -5.2,2.93333 -5.2,3.73334 -18.4,11.73334 -19.2,11.73334 -0.4,0 -2.93333,1.73333 -5.73333,4 -2.8,2.13333 -5.46667,4 -6,4 -0.53334,0 -2.8,1.33333 -4.93334,2.93333 -8.26666,5.86667 -39.6,21.73333 -56.26666,28.53333 -8,3.33334 -11.06667,3.86667 -22.4,3.86667 -7.2,0 -13.06667,0 -13.06667,0.13333 0,0 4.53334,4.8 10.13334,10.53334 9.73333,9.86666 10.53333,10.4 16.13333,10.4 3.86667,0 7.06667,-0.93334 9.46667,-2.8 2,-1.46667 6.4,-4.4 9.99999,-6.26667 6,-3.2 6.53334,-3.2 9.6,-1.2 1.86667,1.2 3.33334,2.53333 3.33334,3.06667 0,0.53333 2.26666,4.53333 5.2,8.93333 5.73333,8.8 16.26666,18.26667 21.73333,19.73333 l 3.73333,0.8 -2.66666,-4.26666 c -3.6,-5.73334 -9.33334,-24.13334 -9.33334,-29.46667 0.13334,-18.8 14.93334,-33.46667 40.4,-39.86667 9.73334,-2.4 13.33334,-2.66666 36.26667,-1.86666 13.86667,0.4 30.13333,1.2 35.99999,1.6 15.8667,1.2 37.0667,-2.66667 43.0667,-7.86667 15.8666,-14.26667 -42,-46 -68.40002,-37.6 z"
     id="path6479"
     style="fill:#00629b;fill-opacity:1;stroke:none;stroke-width:0.13333333" /><path
     inkscape:connector-curvature="0"
     d="m 1071.8666,121.18401 c -7.0666,7.33333 -17.7333,16.8 -18.8,16.8 -0.6666,0 -2.6666,1.46666 -4.4,3.33333 -1.7333,1.86667 -3.7333,3.33333 -4.5333,3.33333 -0.6667,0 -2.5333,1.2 -4,2.53334 -3.4667,3.2 -22.1333,10.8 -26.5333,10.8 -1.7334,0 -5.6,-1.6 -8.4,-3.46667 -3.2,-2.26667 -5.73336,-3.06667 -6.66669,-2.4 -0.93334,0.66667 -5.2,4 -9.6,7.46667 -4.4,3.46666 -9.73333,7.2 -11.86667,8.4 -2,1.06666 -6.13333,3.6 -9.06666,5.33333 -10.93334,6.8 -15.73334,7.46667 -16.4,2.26667 -0.26667,-1.6 -0.66667,-2.93334 -0.8,-2.93334 -0.26667,0 -3.33334,1.6 -6.66667,3.46667 -6.13333,3.46667 -9.33333,3.6 -15.73333,1.2 -1.46667,-0.53333 -2.4,-0.4 -2.4,0.53333 0,0.93334 1.06666,1.86667 2.4,2.4 1.2,0.4 4,2 6,3.46667 2,1.33333 5.73333,3.06666 8.13333,3.73333 5.86667,1.6 11.46667,6.13333 11.46667,9.2 0,4.26667 3.73333,5.73333 16.4,6.4 13.86666,0.66667 25.73333,-1.2 33.20002,-5.06667 2.8,-1.46666 6,-2.66666 6.9333,-2.66666 0.9333,0 4.2667,-1.86667 7.2,-4 3.0667,-2.26667 6.1333,-4 6.6667,-4 0.6666,0 2.5333,-1.46667 4.2666,-3.33333 1.7334,-1.86667 3.8667,-3.33334 4.9334,-3.33334 0.9333,0 1.7333,-0.4 1.7333,-1.06666 0,-0.53334 2,-3.06667 4.4,-5.73334 11.4667,-12.8 14.4,-16.4 21.2,-26.8 6.5333,-9.73333 15.7333,-26.4 15.7333,-28.4 0,-1.33333 -2,-0.26666 -4.8,2.53334 z"
     id="path6483"
     style="fill:#00629b;fill-opacity:1;stroke:none;stroke-width:0.13333333" /></g></g></svg>