<?xml version="1.0" encoding="UTF-8" standalone="no"?>
<!-- Generator: Adobe Illustrator 19.2.1, SVG Export Plug-In . SVG Version: 6.00 Build 0)  -->

<svg
   xmlns:dc="http://purl.org/dc/elements/1.1/"
   xmlns:cc="http://creativecommons.org/ns#"
   xmlns:rdf="http://www.w3.org/1999/02/22-rdf-syntax-ns#"
   xmlns:svg="http://www.w3.org/2000/svg"
   xmlns="http://www.w3.org/2000/svg"
   xmlns:sodipodi="http://sodipodi.sourceforge.net/DTD/sodipodi-0.dtd"
   xmlns:inkscape="http://www.inkscape.org/namespaces/inkscape"
   version="1.1"
   id="layer"
   x="0px"
   y="0px"
   viewBox="0 0 732.85144 265.19146"
   xml:space="preserve"
   sodipodi:docname="ieee-vector-white.svg"
   width="732.85144"
   height="265.19147"
   inkscape:version="0.92.4 (5da689c313, 2019-01-14)"><metadata
   id="metadata85"><rdf:RDF><cc:Work
       rdf:about=""><dc:format>image/svg+xml</dc:format><dc:type
         rdf:resource="http://purl.org/dc/dcmitype/StillImage" /><dc:title></dc:title></cc:Work></rdf:RDF></metadata><defs
   id="defs83">
	
	
	
	
	
	
	
	
	
	
	
	
	
	
	
	
	
	
	
	
	
	
	
	
	
	
	
	
	
	
	
	
	
	
	
	
	
</defs><sodipodi:namedview
   pagecolor="#ffffff"
   bordercolor="#666666"
   borderopacity="1"
   objecttolerance="10"
   gridtolerance="10"
   guidetolerance="10"
   inkscape:pageopacity="0"
   inkscape:pageshadow="2"
   inkscape:window-width="1366"
   inkscape:window-height="745"
   id="namedview81"
   showgrid="false"
   inkscape:zoom="0.72392638"
   inkscape:cx="407.52001"
   inkscape:cy="181.77867"
   inkscape:window-x="1358"
   inkscape:window-y="-8"
   inkscape:window-maximized="1"
   inkscape:current-layer="layer" />
<style
   type="text/css"
   id="style2">
	.st0{fill:#0070AD;}
</style>

<g
   id="g889"
   style="fill:#ffffff;fill-opacity:1"><rect
     x="263.7923"
     y="66.380219"
     class="st0"
     width="36.799999"
     height="132.8"
     id="rect64"
     style="fill:#ffffff;fill-opacity:1" /><polygon
     transform="translate(44.292292,-110.41979)"
     class="st0"
     points="275.6,309.6 275.6,176.8 376.8,176.8 376.8,202.5 312.4,202.5 312.4,230 371.6,230 371.6,255.7 312.4,255.7 312.4,283.9 376.8,283.9 376.8,309.6 "
     id="polygon66"
     style="fill:#ffffff;fill-opacity:1" /><polygon
     transform="translate(44.292292,-110.41979)"
     class="st0"
     points="397.4,309.6 397.4,176.8 498.5,176.8 498.5,202.5 434.2,202.5 434.2,230 493.4,230 493.4,255.7 434.2,255.7 434.2,283.9 498.5,283.9 498.5,309.6 "
     id="polygon68"
     style="fill:#ffffff;fill-opacity:1" /><polygon
     transform="translate(44.292292,-110.41979)"
     class="st0"
     points="519.1,309.6 519.1,176.8 620.3,176.8 620.3,202.5 556,202.5 556,230 615.2,230 615.2,255.7 556,255.7 556,283.9 620.3,283.9 620.3,309.6 "
     id="polygon70"
     style="fill:#ffffff;fill-opacity:1" /><path
     class="st0"
     d="m 216.99229,135.28021 c -1.9,2.6 -14.1,18.8 -28.3,33.1 v 0 c -14.2,14.3 -28.7,25.1 -31.2,27 v 0 c -2.7,2.2 -7.1,2.1 -9.8,0 -2.6,-1.9 -17.7,-13.4 -31.9,-27.7 v 0 c -14.3,-14.2 -25.699998,-29.3 -27.699998,-31.9 v 0 c -2.2,-2.7 -2.1,-7.1 0,-9.8 1.9,-2.6 13.399998,-17.7 27.699998,-31.899997 v 0 c 14.2,-14.3 29.3,-25.7 31.9,-27.7 2.7,-2.1 7.1,-2.2 9.8,0 v 0 0 c 2.6,1.9 17.7,13.4 31.9,27.7 v 0 c 14.3,14.199997 25.8,29.799997 27.7,32.299997 v 0 c 2.1,2.7 2,6.2 -0.1,8.9 m 20,-10.2 c -6.5,-5.9 -26.4,-18.9 -43.1,-35.599997 -16.6,-16.6 -29.8,-36.7 -35.6,-43.2 -4.4,-4.4 -7,-4.4 -11.4,0 -5.8,6.4 -19.1,26.6 -35.6,43.2 -16.699998,16.699997 -36.699998,30.299997 -43.099998,35.599997 -4.4,4.4 -4.4,7 0,11.4 6.4,5.7 26.6,19.1 43.099998,35.7 16.7,16.7 29.8,36.7 35.6,43.1 4.4,4.4 6.9,4.4 11.4,0 5.7,-6.4 18.9,-26.4 35.6,-43.1 16.6,-16.6 36.8,-30.3 43.2,-35.7 4.3,-4.5 4.3,-7 -0.1,-11.4"
     id="path72"
     inkscape:connector-curvature="0"
     style="fill:#ffffff;fill-opacity:1" /><path
     class="st0"
     d="m 150.79229,144.58021 c -20.2,0 -36.4,-6.5 -36.5,-14.5 0,-5.5 7.6,-10.3 19,-12.7 l 8.7,5.6 c -8.9,1.6 -14.9,4.8 -14.9,8.6 0,5.3 12.2,9.6 27.3,9.6 13,0 27.5,-4.3 27.5,-9.6 -0.1,-3.3 -3.9,-5.3 -7.7,-7.2 l -5.2,1.2 -2.7,-7.5 16.8,4.1 -3.8,1 c 0,0 6.4,3.3 7.8,7 2.6,8 -14.9,14.4 -36.3,14.4 m -4.1,29 1.2,-27.4 c 1.9,0.3 7.5,0.3 9.4,0 l 1.2,27.4 c -3.1,0.8 -8.8,0.6 -11.8,0 m 5.7,-89.199997 9.7,27.999997 h -6.5 l 1.2,26.6 c -3.2,0.6 -5.6,0.4 -8.7,-0.1 l 1.1,-26.6 h -6.6 z m 59.9,42.399997 c -1.8,-2.4 -12.5,-16.8 -25.7,-29.999997 v 0 c -13.2,-13.2 -27.2,-23.9 -29.6,-25.7 v 0 0 c -2.5,-2 -6.5,-1.9 -9.1,0 -2.4,1.8 -16.4,12.4 -29.6,25.7 v 0 c -13.2,13.199997 -23.899998,27.199997 -25.699998,29.599997 -2,2.5 -2.1,6.6 0,9.1 v 0 c 1.8,2.4 12.399998,16.4 25.699998,29.6 v 0 c 13.2,13.2 27.2,23.9 29.6,25.7 2.5,2 6.6,2 9.1,0 v 0 c 2.4,-1.8 15.8,-11.8 29,-25.1 v 0 c 13.2,-13.2 24.5,-28.3 26.3,-30.7 2,-2.5 2.1,-5.7 0,-8.2 z"
     id="path74"
     inkscape:connector-curvature="0"
     style="fill:#ffffff;fill-opacity:1" /><path
     class="st0"
     d="m 182.69229,204.58021 h -1.3 v -1.6 h 1 c 0.5,0 1.3,0.1 1.3,0.7 0,0.8 -0.3,0.9 -1,0.9 m 2.5,-0.7 c 0,-1.5 -1,-2 -2.7,-2 h -2.5 v 6.6 h 1.4 v -2.8 h 0.7 l 1.5,2.8 h 1.7 l -1.7,-2.9 c 0.9,0 1.6,-0.5 1.6,-1.7 m -2.7,6.1 v 0 c -2.4,0 -4.4,-1.9 -4.4,-4.7 0,-2.8 2,-4.7 4.4,-4.7 2.4,0 4.4,1.9 4.4,4.7 0,2.8 -2,4.7 -4.4,4.7 m 0,-10.9 c -3.3,0 -6.2,2.3 -6.2,6.1 0,3.9 2.9,6.2 6.2,6.2 3.2,0 6.2,-2.3 6.2,-6.2 -0.1,-3.8 -3,-6.1 -6.2,-6.1"
     id="path76"
     inkscape:connector-curvature="0"
     style="fill:#ffffff;fill-opacity:1" /></g></svg>