<?xml version="1.0" encoding="UTF-8" standalone="no"?>
<svg
   xmlns:dc="http://purl.org/dc/elements/1.1/"
   xmlns:cc="http://creativecommons.org/ns#"
   xmlns:rdf="http://www.w3.org/1999/02/22-rdf-syntax-ns#"
   xmlns:svg="http://www.w3.org/2000/svg"
   xmlns="http://www.w3.org/2000/svg"
   xmlns:sodipodi="http://sodipodi.sourceforge.net/DTD/sodipodi-0.dtd"
   xmlns:inkscape="http://www.inkscape.org/namespaces/inkscape"
   id="Layer_5"
   enable-background="new 0 0 64 64"
   height="512"
   viewBox="0 0 64 64"
   width="512"
   version="1.1"
   sodipodi:docname="isc.svg"
   inkscape:version="0.92.4 (5da689c313, 2019-01-14)">
  <metadata
     id="metadata71">
    <rdf:RDF>
      <cc:Work
         rdf:about="">
        <dc:format>image/svg+xml</dc:format>
        <dc:type
           rdf:resource="http://purl.org/dc/dcmitype/StillImage" />
      </cc:Work>
    </rdf:RDF>
  </metadata>
  <defs
     id="defs69" />
  <sodipodi:namedview
     pagecolor="#ffffff"
     bordercolor="#666666"
     borderopacity="1"
     objecttolerance="10"
     gridtolerance="10"
     guidetolerance="10"
     inkscape:pageopacity="0"
     inkscape:pageshadow="2"
     inkscape:window-width="1366"
     inkscape:window-height="745"
     id="namedview67"
     showgrid="false"
     inkscape:zoom="0.65186406"
     inkscape:cx="548.53933"
     inkscape:cy="287.74554"
     inkscape:window-x="-8"
     inkscape:window-y="-8"
     inkscape:window-maximized="1"
     inkscape:current-layer="Layer_5" />
  <g
     style="fill:#888888;fill-opacity:0.53333327"
     id="g4">
    <path
       inkscape:connector-curvature="0"
       style="fill:#888888;fill-opacity:0.53333327"
       id="path2"
       d="M 53,51.716 V 46.284 L 51.383,45.733 C 51.337,45.617 51.288,45.5 51.237,45.383 l 0.755,-1.535 -3.84,-3.84 -1.535,0.755 c -0.116,-0.052 -0.233,-0.101 -0.35,-0.146 L 45.716,39 h -5.432 l -0.551,1.617 c -0.116,0.046 -0.233,0.095 -0.35,0.146 l -1.535,-0.755 -3.84,3.84 0.755,1.535 c -0.052,0.116 -0.101,0.233 -0.146,0.35 L 33,46.284 v 5.432 l 1.617,0.551 c 0.046,0.116 0.095,0.233 0.146,0.35 l -0.755,1.533 3.84,3.842 1.535,-0.755 c 0.116,0.052 0.233,0.101 0.35,0.146 L 40.284,59 h 5.432 l 0.551,-1.617 c 0.116,-0.046 0.233,-0.095 0.35,-0.146 l 1.535,0.755 3.84,-3.842 -0.755,-1.533 c 0.052,-0.116 0.101,-0.233 0.146,-0.35 z M 43,53 c -2.209,0 -4,-1.791 -4,-4 0,-2.209 1.791,-4 4,-4 2.209,0 4,1.791 4,4 0,2.209 -1.791,4 -4,4 z" />
  </g>
  <g
     style="fill:#888888;fill-opacity:0.53333327"
     id="g8">
    <path
       inkscape:connector-curvature="0"
       style="fill:#888888;fill-opacity:0.53333327"
       id="path6"
       d="m 31,32 h 22 v 5 H 31 Z" />
  </g>
  <path
     d="M 40.293,11.707 45.586,17 40.293,22.293 41.707,23.707 48.414,17 41.707,10.293 Z"
     id="path10"
     style="fill:#888888;fill-opacity:0.53333315"
     inkscape:connector-curvature="0" />
  <path
     d="M 34.293,10.293 27.586,17 34.293,23.707 35.707,22.293 30.414,17 35.707,11.707 Z"
     id="path12"
     style="fill:#888888;fill-opacity:0.53333315"
     inkscape:connector-curvature="0" />
  <path
     d="m 36.002312,24.883504 1.9995,-15.996 1.984,0.248 -1.9995,15.996 z"
     id="path14"
     style="fill:#888888;fill-opacity:0.53333309;stroke-width:0.99971998"
     inkscape:connector-curvature="0" />
  <path
     d="m 43,44 c -2.757,0 -5,2.243 -5,5 0,2.757 2.243,5 5,5 2.757,0 5,-2.243 5,-5 0,-2.757 -2.243,-5 -5,-5 z m 0,8 c -1.654,0 -3,-1.346 -3,-3 0,-1.654 1.346,-3 3,-3 1.654,0 3,1.346 3,3 0,1.654 -1.346,3 -3,3 z"
     id="path16"
     style="fill:#888888;fill-opacity:0.53333315"
     inkscape:connector-curvature="0" />
  <path
     d="m 5,19 h 2 v 2 H 5 Z"
     id="path18"
     style="fill:#888888;fill-opacity:0.53333315"
     inkscape:connector-curvature="0" />
  <path
     d="m 13,19 h 2 v 2 h -2 z"
     id="path20"
     style="fill:#888888;fill-opacity:0.53333315"
     inkscape:connector-curvature="0" />
  <path
     d="m 9,19 h 2 v 2 H 9 Z"
     id="path22"
     style="fill:#888888;fill-opacity:0.53333315"
     inkscape:connector-curvature="0" />
  <path
     d="m 8,31 c -1.654,0 -3,1.346 -3,3 v 4 c 0,1.654 1.346,3 3,3 1.654,0 3,-1.346 3,-3 V 34 C 11,32.346 9.654,31 8,31 Z m 1,7 C 9,38.552 8.552,39 8,39 7.448,39 7,38.552 7,38 v -4 c 0,-0.552 0.448,-1 1,-1 0.552,0 1,0.448 1,1 z"
     id="path24"
     style="fill:#888888;fill-opacity:0.53333315"
     inkscape:connector-curvature="0" />
  <path
     d="m 19,38 v -4 c 0,-1.654 -1.346,-3 -3,-3 -1.654,0 -3,1.346 -3,3 v 4 c 0,1.654 1.346,3 3,3 1.654,0 3,-1.346 3,-3 z m -2,0 c 0,0.552 -0.448,1 -1,1 -0.552,0 -1,-0.448 -1,-1 v -4 c 0,-0.552 0.448,-1 1,-1 0.552,0 1,0.448 1,1 z"
     id="path26"
     style="fill:#888888;fill-opacity:0.53333315"
     inkscape:connector-curvature="0" />
  <path
     d="m 25,31 h 2 v 10 h -2 z"
     id="path28"
     style="fill:#888888;fill-opacity:0.53333315"
     inkscape:connector-curvature="0" />
  <path
     d="m 21,31 h 2 v 10 h -2 z"
     id="path30"
     style="fill:#888888;fill-opacity:0.53333315"
     inkscape:connector-curvature="0" />
  <path
     d="m 8,43 c -1.654,0 -3,1.346 -3,3 v 4 c 0,1.654 1.346,3 3,3 1.654,0 3,-1.346 3,-3 V 46 C 11,44.346 9.654,43 8,43 Z m 1,7 C 9,50.552 8.552,51 8,51 7.448,51 7,50.552 7,50 v -4 c 0,-0.552 0.448,-1 1,-1 0.552,0 1,0.448 1,1 z"
     id="path32"
     style="fill:#888888;fill-opacity:0.53333315"
     inkscape:connector-curvature="0" />
  <path
     d="m 13,43 h 2 v 10 h -2 z"
     id="path34"
     style="fill:#888888;fill-opacity:0.53333315"
     inkscape:connector-curvature="0" />
  <path
     d="m 20,43 c -1.654,0 -3,1.346 -3,3 v 4 c 0,1.654 1.346,3 3,3 1.654,0 3,-1.346 3,-3 v -4 c 0,-1.654 -1.346,-3 -3,-3 z m 1,7 c 0,0.552 -0.448,1 -1,1 -0.552,0 -1,-0.448 -1,-1 v -4 c 0,-0.552 0.448,-1 1,-1 0.552,0 1,0.448 1,1 z"
     id="path36"
     style="fill:#888888;fill-opacity:0.53333315"
     inkscape:connector-curvature="0" />
  <path
     d="m 25,43 h 2 v 10 h -2 z"
     id="path38"
     style="fill:#888888;fill-opacity:0.53333315"
     inkscape:connector-curvature="0" />
  <path
     d="m 31,31 h 22 v 2 H 31 Z"
     id="path40"
     style="fill:#888888;fill-opacity:0.53333315"
     inkscape:connector-curvature="0" />
  <path
     d="m 51,35 h 2 v 2 h -2 z"
     id="path42"
     style="fill:#888888;fill-opacity:0.53333315"
     inkscape:connector-curvature="0" />
  <path
     d="m 31,35 h 18 v 2 H 31 Z"
     id="path44"
     style="fill:#888888;fill-opacity:0.53333315"
     inkscape:connector-curvature="0" />
  <path
     d="m 9,57 h 2 v 2 H 9 Z"
     id="path46"
     style="fill:#888888;fill-opacity:0.53333315"
     inkscape:connector-curvature="0" />
  <path
     d="m 5,57 h 2 v 2 H 5 Z"
     id="path48"
     style="fill:#888888;fill-opacity:0.53333315"
     inkscape:connector-curvature="0" />
  <path
     d="m 13,57 h 2 v 2 h -2 z"
     id="path50"
     style="fill:#888888;fill-opacity:0.53333315"
     inkscape:connector-curvature="0" />
  <path
     d="M 63,21 C 63,16.514 59.264,12.856 54.774,13.004 53.859,8.949 50.247,6 46,6 44.839,6 43.686,6.227 42.614,6.661 40.686,3.191 37.016,1 33,1 26.954,1 22.032,5.903 22,11.941 20.563,12.652 19.386,13.719 18.528,15 H 4 c -1.654,0 -3,1.346 -3,3 v 42 c 0,1.654 1.346,3 3,3 h 50 c 1.654,0 3,-1.346 3,-3 V 28.737 C 60.445,27.845 63,24.719 63,21 Z M 4,17 H 17.532 C 17.198,17.947 17,18.952 17,20 c 0,1.053 0.191,2.06 0.525,3 H 3 v -5 c 0,-0.552 0.448,-1 1,-1 z m 51,43 c 0,0.552 -0.448,1 -1,1 H 4 C 3.448,61 3,60.552 3,60 V 25 h 15.522 c 1.617,2.41 4.365,4 7.478,4 H 55 Z M 55,27 H 26 c -3.859,0 -7,-3.141 -7,-7 0,-2.874 1.728,-5.424 4.401,-6.495 l 0.667,-0.268 -0.053,-0.898 C 24.009,12.227 24,12.114 24,12 c 0,-4.963 4.037,-9 9,-9 3.567,0 6.802,2.114 8.24,5.387 l 0.438,1 0.958,-0.525 C 43.663,8.298 44.826,8 46,8 c 3.561,0 6.549,2.666 6.951,6.201 l 0.116,1.029 1.025,-0.153 C 54.441,15.024 54.73,15 55,15 c 3.309,0 6,2.691 6,6 0,3.309 -2.691,6 -6,6 z"
     id="path52"
     style="fill:#888888;fill-opacity:0.53333315"
     inkscape:connector-curvature="0" />
  <path
     d="M 33,7 V 5 c -3.859,0 -7,3.141 -7,7 h 2 c 0,-2.757 2.243,-5 5,-5 z"
     id="path54"
     style="fill:#888888;fill-opacity:0.53333315"
     inkscape:connector-curvature="0" />
  <path
     d="m 55,23 h -2 v 2 h 2 c 2.206,0 4,-1.794 4,-4 h -2 c 0,1.103 -0.897,2 -2,2 z"
     id="path56"
     style="fill:#888888;fill-opacity:0.53333315"
     inkscape:connector-curvature="0" />
  <path
     d="m 45,23 h 2 v 2 h -2 z"
     id="path58"
     style="fill:#888888;fill-opacity:0.53333315"
     inkscape:connector-curvature="0" />
  <path
     d="m 49,23 h 2 v 2 h -2 z"
     id="path60"
     style="fill:#888888;fill-opacity:0.53333315"
     inkscape:connector-curvature="0" />
</svg>
