<?xml version="1.0" encoding="UTF-8" standalone="no"?>
<!-- Created with Inkscape (http://www.inkscape.org/) -->

<svg
   xmlns:dc="http://purl.org/dc/elements/1.1/"
   xmlns:cc="http://creativecommons.org/ns#"
   xmlns:rdf="http://www.w3.org/1999/02/22-rdf-syntax-ns#"
   xmlns:svg="http://www.w3.org/2000/svg"
   xmlns="http://www.w3.org/2000/svg"
   xmlns:sodipodi="http://sodipodi.sourceforge.net/DTD/sodipodi-0.dtd"
   xmlns:inkscape="http://www.inkscape.org/namespaces/inkscape"
   width="11491.594mm"
   height="8065.1108mm"
   viewBox="0 0 11491.594 8065.1108"
   version="1.1"
   id="svg8"
   inkscape:version="0.92.4 (5da689c313, 2019-01-14)"
   sodipodi:docname="JAM.svg">
  <defs
     id="defs2" />
  <sodipodi:namedview
     id="base"
     pagecolor="#ffffff"
     bordercolor="#666666"
     borderopacity="1.0"
     inkscape:pageopacity="0.0"
     inkscape:pageshadow="2"
     inkscape:zoom="0.01"
     inkscape:cx="29468.045"
     inkscape:cy="13782.866"
     inkscape:document-units="mm"
     inkscape:current-layer="layer2"
     showgrid="false"
     inkscape:snap-nodes="false"
     showguides="false"
     inkscape:window-width="1366"
     inkscape:window-height="745"
     inkscape:window-x="-8"
     inkscape:window-y="-8"
     inkscape:window-maximized="1" />
  <metadata
     id="metadata5">
    <rdf:RDF>
      <cc:Work
         rdf:about="">
        <dc:format>image/svg+xml</dc:format>
        <dc:type
           rdf:resource="http://purl.org/dc/dcmitype/StillImage" />
        <dc:title></dc:title>
      </cc:Work>
    </rdf:RDF>
  </metadata>
  <g
     inkscape:label="Capa 1"
     inkscape:groupmode="layer"
     id="layer1"
     transform="translate(8689.6651,7704.7586)" />
  <g
     inkscape:groupmode="layer"
     id="layer2"
     inkscape:label="Capa 2"
     transform="translate(8689.6651,7704.7586)">
    <g
       id="g1820"
       style="fill:#000000;fill-opacity:1">
      <path
         inkscape:connector-curvature="0"
         d="m -8003.9071,-4456.826 c 349.0081,-152.2349 587.4583,-332.0995 923.0386,-611.6688 133.6048,-114.4159 258.2693,-238.1893 379.9393,-364.9707 0,0 302.392,-125.6454 302.392,-125.6454 v 0 c -129.9358,130.47 -262.6786,257.9989 -402.722,377.7443 -174.1334,145.379 -215.3394,185.7579 -404.1717,318.329 -337.8166,237.1666 -702.3621,435.1202 -1070.2734,621.017 0,0 271.7972,-214.8054 271.7972,-214.8054 z"
         id="path1763"
         style="opacity:1;fill:#000000;fill-opacity:1;stroke:#ffffff;stroke-width:0.26458332;stroke-miterlimit:4;stroke-dasharray:none;stroke-opacity:1" />
      <path
         inkscape:connector-curvature="0"
         d="m -6324.9132,-5642.6499 c -100.9785,396.3755 -144.3913,804.2595 -187.1554,1210.0626 -71.133,745.1204 -42.5961,1494.6127 -77.4761,2241.3358 -6.2825,134.503 -17.804,268.7102 -26.7062,403.0652 -46.3111,434.8179 -140.5054,851.45296 -383.7834,1221.13811 -120.9546,183.80283 -177.7416,227.91867 -327.6756,381.57421 -54.7331,45.72497 -107.3214,94.146561 -164.1989,137.174896 -49.1416,37.176141 -100.3458,71.820696 -153.4281,103.113537 -149.5372,88.154747 -355.1674,225.763707 -544.8493,279.721747 -93.1442,26.49635 -124.8818,22.38364 -217.8347,25.68297 -30.4175,-7.40868 -62.3289,-10.2452 -91.2526,-22.22603 -130.6891,-54.13454 -196.5831,-195.08458 -189.7812,-331.0876651 2.563,-51.2486069 16.8191,-101.2377399 25.2283,-151.8566049 24.6965,-63.61525 42.8477,-130.17632 74.0894,-190.84573 102.4229,-198.89996 232.296,-357.99207 383.5628,-523.83433 290.2667,-318.23551 550.1444,-556.53451 892.5748,-830.82911 216.2214,-173.1984 443.4146,-332.2362 665.122,-498.3542 683.0435,-443.2161 894.3845,-601.6213 1642.3944,-991.6816 502.8932,-262.241 1078.6104,-503.1492 1610.8653,-697.946 624.886,-228.6984 1054.7219,-346.9291 1692.1638,-537.7714 1204.91601,-351.1325 2438.25218,-584.5294 3663.8703,-847.9624 186.4795,-46.8442 378.1127,-80.3132 559.0987,-147.4091 26.1284,-9.6864 100.2891,-48.2621 76.4372,-33.8535 -84.2698,50.9061 -172.0675,95.7295 -258.1011,143.5942 0,0 326.9131,-127.5496 326.9131,-127.5496 v 0 c -112.8673,65.3836 -223.873,134.0914 -338.6017,196.1507 -33.341,18.0348 -158.3136,48.9638 -180.9853,54.3039 -138.7911,32.6909 -263.0193,54.3804 -405.0275,81.4626 -439.6879,78.9157 -880.39865,153.8041 -1318.69438,240.1808 -751.77022,148.1547 -1499.44302,318.3736 -2236.81582,527.4789 -653.7008,196.4515 -1053.9746,306.0038 -1694.7629,541.3639 -567.3759,208.3962 -1068.3684,421.3572 -1606.66,697.0985 -586.0577,300.2095 -816.4319,473.5116 -1382.9996,843.1766 -211.3946,161.489 -428.729,315.4858 -634.184,484.467 -327.0628,269.0003 -549.9796,485.9316 -821.1529,796.89256 -142.0651,162.90975 -256.4606,306.42514 -350.5874,498.79178 -28.0271,57.27834 -43.7772,119.78661 -65.6657,179.67991 -15.9313,103.29801 -35.1147,149.22947 -10.5838,248.691133 20.457,82.94553 81.353,154.428607 162.0803,183.494227 26.8478,9.66645 56.0128,10.93216 84.0195,16.39825 88.6775,-5.20835 116.1936,-1.92083 204.6864,-28.76916 41.7515,-12.66719 132.3314,-89.200622 122.2595,-46.748382 -12.0399,50.745832 -176.2641,111.527252 -131.3418,85.030362 172.6057,-101.809684 169.2214,-109.025626 332.805,-239.472639 154.0534,-151.204201 214.6009,-196.810511 340.1772,-378.703721 250.9422,-363.48116 362.8739,-788.85412 416.174,-1222.50382 11.294,-135.1656 25.6466,-270.1104 33.8817,-405.4967 45.2729,-744.2735 17.3152,-1491.1268 62.7579,-2235.4275 24.9983,-392.1123 50.8188,-784.2039 107.088,-1173.3438 0,0 322.0558,-157.4514 322.0558,-157.4514 z"
         id="path1765"
         style="opacity:1;fill:#000000;fill-opacity:1;stroke:#ffffff;stroke-width:0.26458332;stroke-miterlimit:4;stroke-dasharray:none;stroke-opacity:1" />
      <path
         inkscape:connector-curvature="0"
         d="m -5720.0766,-3811.8789 c -140.8316,63.905 -278.5126,135.1702 -414.496,208.8197 -36.6213,19.8343 -145.2885,81.4954 -109.2736,60.5802 65.6555,-38.1287 132.1367,-74.8174 198.2051,-112.2262 -9.2798,6.901 -66.5256,42.2993 -74.3751,66.1384 -1.2056,3.6617 7.2736,2.715 11.0836,3.3029 17.7213,2.7347 35.4993,5.3179 53.3812,6.6451 94.639,7.0238 98.5027,3.8468 197.6187,-0.1775 39.3204,3.0874 174.7437,-29.6717 185.1854,46.9016 9.9846,73.2206 -94.4824,163.192 -136.2146,208.7567 -67.6186,76.8171 -135.9375,153.3276 -197.8621,234.9123 -19.6739,25.92 -52.9911,68.1336 -62.4749,102.7699 -2.5713,9.3907 0.5682,19.4644 0.8523,29.1965 7.592,5.5348 14.1727,12.8285 22.7759,16.6043 79.3131,34.8092 203.5322,38.1621 289.3644,34.3021 15.0461,-3.8499 30.425,-6.5776 45.1384,-11.5498 76.062,-25.7042 463.752,-258.8095 -193.947,114.8732 0,0 328.9113,-128.4791 328.9113,-128.4791 v 0 c -144.9903,84.9421 -288.7633,211.7209 -463.0868,231.1071 -84.5745,-2.4446 -236.0351,-8.2386 -306.6436,-55.0328 -14.7684,-9.7875 -24.1061,-25.9711 -36.1592,-38.9566 -1.6675,-15.5363 -7.7295,-31.2231 -5.0025,-46.6089 7.232,-40.8031 44.6913,-84.9526 67.7875,-114.7734 63.3026,-81.7333 132.8171,-158.3622 198.9481,-237.752 12.0447,-13.1863 133.0525,-140.4915 141.0023,-160.9474 17.5891,-45.2591 -162.6637,-17.9785 -149.7082,-26.7914 -73.5412,2.4867 -217.4921,20.9276 -283.9012,-21.8479 -43.5294,-28.0382 -35.868,-54.8665 -6.879,-84.9689 17.4359,-18.1055 39.6629,-30.8891 59.4943,-46.3337 125.0518,-72.5259 249.6528,-145.8347 375.1554,-217.5777 177.0284,-101.1974 362.228,-187.5437 541.7295,-284.126 0,0 -276.6096,223.2393 -276.6096,223.2393 z"
         id="path1702-5"
         style="opacity:1;fill:#000000;fill-opacity:1;stroke:#ffffff;stroke-width:0.26458332;stroke-miterlimit:4;stroke-dasharray:none;stroke-opacity:1" />
      <path
         inkscape:connector-curvature="0"
         d="m -5064.9032,-3960.2139 c -152.0075,51.4342 -302.007,109.2988 -448.6396,174.5856 -15.0708,8.962 -60.5119,35.4516 -45.2124,26.8859 94.7272,-53.035 190.4648,-104.3652 283.5087,-160.3009 2.7584,-1.6583 -4.0772,-9.3931 -0.8663,-9.6168 20.5354,-1.4313 113.7699,36.8015 133.8403,43.4951 81.6814,33.2758 178.3903,54.0092 243.6133,117.8843 10.4322,10.2167 18.5627,22.5451 27.8439,33.8176 65.1826,112.6642 -13.0934,225.5262 -77.2016,318.8632 -86.5202,112.5808 -182.7008,217.11 -274.7618,325.0364 -9.0958,10.4754 -18.1914,20.9509 -27.2872,31.4263 0,0 -324.8634,136.3761 -324.8634,136.3761 v 0 c 9.911,-10.4305 19.822,-20.861 29.7331,-31.2915 93.4022,-109.0549 194.5312,-211.5302 282.8293,-325.04 55.6384,-76.2884 136.5599,-175.4471 88.9515,-273.7727 -65.3902,-78.0404 -163.1693,-105.2581 -256.4045,-137.7592 -0.7869,-0.2441 -220.5165,-57.0326 -174.7008,-92.5402 149.1267,-115.5744 229.5574,-153.0044 361.1035,-217.0524 151.5212,-63.1843 306.1256,-118.5986 456.8496,-183.639 0,0 -278.3356,222.6422 -278.3356,222.6422 z"
         id="path1704-6"
         style="opacity:1;fill:#000000;fill-opacity:1;stroke:#ffffff;stroke-width:0.26458332;stroke-miterlimit:4;stroke-dasharray:none;stroke-opacity:1" />
      <path
         inkscape:connector-curvature="0"
         d="m -4404.5078,-4385.9835 c -13.0802,144.2258 -0.8547,287.4009 15.0491,430.7291 19.4536,120.1569 41.0908,241.5661 89.4292,354.057 15.8833,36.9627 37.4431,75.2466 56.6019,110.7476 10.575,16.0014 29.32,50.0822 48.7307,61.3495 24.2529,14.0781 48.7752,-10.2479 44.8624,-8.1429 -293.0286,157.6434 -347.0952,231.2216 -248.4349,113.6685 109.8668,-216.7041 112.0973,-466.7551 114.2829,-704.3159 -2.2631,-63.5814 -2.1804,-117.6176 -10.2097,-179.4925 -1.2753,-9.8272 -15.0614,-24.0306 -6.4942,-29.0109 101.5673,-59.0441 205.9566,-116.5955 317.9604,-152.0536 16.0917,-5.0944 1.0243,33.7648 2.6022,50.5698 2.576,27.4334 6.5683,54.7153 9.8525,82.073 27.4415,203.3376 91.6037,397.729 178.318,582.8894 26.3197,41.7807 47.8608,96.41 90.3105,126.1857 5.4137,3.7973 12.659,7.8088 18.9651,5.8188 5.9968,-1.8924 16.6349,-18.1807 11.0501,-15.2904 -98.7087,51.0824 -194.7482,107.165 -292.1221,160.7476 18.9791,-23.6651 28.0493,-53.0199 39.3005,-80.7375 0,0 321.3362,-148.9245 321.3362,-148.9245 v 0 c -11.2361,29.9227 -23.0561,59.7028 -31.6616,90.5293 -107.306,65.1086 -211.5757,135.5072 -321.9181,195.3258 -38.7091,20.9848 -125.9582,-144.8155 -133.3254,-165.7175 -80.3827,-190.3713 -143.2505,-387.2501 -182.9169,-590.2994 -5.6002,-26.2698 -10.7476,-52.6402 -16.8007,-78.8094 -3.8489,-16.64 -26.6086,-39.403 -12.8983,-49.588 347.1602,-257.8983 320.3759,-289.6436 315.3254,-141.1826 -2.3865,70.1506 -2.9807,114.6062 -4.5002,188.6067 -4.4075,238.7772 -1.8091,484.814 -85.171,712.1038 -81.6059,155.1306 -24.9079,66.5584 -357.7631,240.3175 -16.7971,8.7686 -52.5946,-12.9321 -62.743,-21.9403 -20.1623,-17.8969 -35.8137,-49.9075 -48.6138,-72.006 -16.906,-35.0279 -40.0354,-81.5198 -53.9984,-117.0212 -45.8024,-116.4536 -66.4797,-240.7382 -88.8182,-363.2482 -1.9562,-14.5916 -22.9309,-169.549 -24.6761,-188.2044 -7.3793,-78.8849 -3.8683,-158.3159 -9.7356,-237.2848 0,0 318.8242,-162.4491 318.8242,-162.4491 z"
         id="path1710-9"
         style="opacity:1;fill:#000000;fill-opacity:1;stroke:#ffffff;stroke-width:0.26458332;stroke-miterlimit:4;stroke-dasharray:none;stroke-opacity:1" />
      <path
         inkscape:connector-curvature="0"
         d="m -3268.9699,-4611.9673 c -152.0074,51.4342 -302.0071,109.2988 -448.6397,174.5856 -15.0707,8.962 -60.5118,35.4516 -45.2123,26.8859 94.7272,-53.035 190.4648,-104.3652 283.5087,-160.3009 2.7586,-1.6583 -4.0772,-9.3931 -0.8665,-9.6168 20.5354,-1.4313 113.7703,36.8015 133.8403,43.4951 81.6816,33.2758 178.3905,54.0092 243.6135,117.8843 10.4323,10.2167 18.5627,22.5451 27.844,33.8176 65.1825,112.6642 -13.0935,225.5262 -77.2015,318.8632 -86.5206,112.5808 -182.7009,217.11 -274.7621,325.0364 -9.0956,10.4754 -18.1914,20.9509 -27.287,31.4263 0,0 -324.8634,136.3761 -324.8634,136.3761 v 0 c 9.9108,-10.4305 19.8221,-20.861 29.7331,-31.2915 93.4022,-109.0549 194.5312,-211.5302 282.8293,-325.04 55.6384,-76.2884 136.5596,-175.4471 88.9516,-273.7727 -65.3902,-78.0404 -163.1694,-105.2581 -256.4048,-137.7592 -0.7869,-0.2441 -220.5164,-57.0326 -174.7007,-92.5402 149.1266,-115.5744 229.5575,-153.0044 361.1033,-217.0524 151.5216,-63.1843 306.1259,-118.5986 456.85,-183.639 0,0 -278.3358,222.6422 -278.3358,222.6422 z"
         id="path1704-5-0"
         style="opacity:1;fill:#000000;fill-opacity:1;stroke:#ffffff;stroke-width:0.26458332;stroke-miterlimit:4;stroke-dasharray:none;stroke-opacity:1" />
      <path
         inkscape:connector-curvature="0"
         d="m -2386.8785,-4057.0905 c 15.3192,-60.4101 23.7355,-89.7657 34.8978,-157.5143 50.8795,-308.8065 66.3931,-623.8355 89.6562,-935.4618 38.7137,-577.8089 33.5753,-1157.1649 39.9569,-1735.8817 15.8157,-184.375 -10.249,-188.2069 359.4462,-210.4481 36.0348,-2.168 28.1539,66.5345 40.1327,100.589 15.8683,45.1115 28.775,91.2115 43.3546,136.7557 120.8237,377.4353 -15.7599,-53.221 112.0978,351.0856 110.5294,373.7562 206.4639,751.5857 311.5975,1126.8856 75.4019,204.3255 126.1369,440.6438 269.698,611.2534 11.1057,7.0146 20.9186,16.7052 33.3168,21.0439 33.5089,11.7267 74.38203,-15.3843 62.23213,-11.3484 -479.66933,159.3445 -340.53473,145.194 -230.10923,54.2355 31.3362,-26.9303 57.8818,-58.2456 83.5831,-90.3688 0,0 342.79561,-85.3553 342.79561,-85.3553 v 0 c -25.37577,34.3508 -51.63218,67.8923 -83.36928,96.7797 -126.66673,126.5217 -175.31173,107.3901 -426.39873,189.8191 -41.8799,13.7486 -81.1582,-21.4284 -107.1205,-47.3396 -126.2895,-189.7553 -169.3179,-422.0547 -244.2123,-633.9406 -102.0669,-375.6488 -193.7671,-754.3195 -308.8002,-1126.247 -51.5855,-151.0503 -66.3805,-200.4372 -123.7365,-345.7938 -17.1148,-43.3738 -33.3637,-87.2263 -53.9657,-129.0566 -10.9139,-22.1594 -59.9237,-47.2962 -40.2435,-62.224 85.3067,-64.707 187.975,-113.2028 293.7142,-130.0387 30.178,-4.805 -18.0507,58.3897 -27.076,87.5847 -62.725,579.625 -54.9409,1164.3908 -74.0342,1746.3864 -12.3239,358.6596 -19.6255,718.4747 -54.69,1075.7442 0,0 -342.7234,102.8559 -342.7234,102.8559 z"
         id="path1795"
         style="opacity:1;fill:#000000;fill-opacity:1;stroke:#ffffff;stroke-width:0.26458332;stroke-miterlimit:4;stroke-dasharray:none;stroke-opacity:1" />
      <path
         inkscape:connector-curvature="0"
         d="m -2737.6151,-4790.5528 c 149.9557,-67.4428 298.1557,-138.7299 445.8092,-211.0852 182.857,-92.5473 374.1919,-169.173 550.0954,-274.939 0,0 339.0968,-71.2149 339.0968,-71.2149 v 0 c -178.9132,109.5679 -376.0451,184.5665 -562.2775,280.3924 -139.6317,70.1745 -279.2513,140.8689 -421.751,204.9863 0,0 -350.9729,71.8604 -350.9729,71.8604 z"
         id="path1797"
         style="opacity:1;fill:#000000;fill-opacity:1;stroke:#ffffff;stroke-width:0.26458332;stroke-miterlimit:4;stroke-dasharray:none;stroke-opacity:1" />
      <path
         inkscape:connector-curvature="0"
         d="m -183.28232,-4894.4207 c 34.35865,-278.8912 52.86309,-559.2693 67.45918,-839.7864 11.82492,-308.9323 -5.90654,-619.0768 -52.17933,-924.7031 -34.62612,-168.5819 -62.11958,-121.8825 311.54544,-209.8321 20.25102,-4.7664 10.80087,40.2037 17.28113,59.9731 33.78081,103.056 30.62176,86.985 81.28016,192.1849 110.28044,202.5494 235.87921,397.3737 395.35721,564.6663 36.6245,30.4774 72.88183,72.2842 121.93016,83.388 10.24136,2.3182 21.30689,3.7433 31.48076,1.1445 12.84168,-3.28 23.5632,-12.1427 35.3448,-18.2141 -83.48431,46.3269 -166.96863,92.6539 -250.45296,138.9808 143.76323,-107.2838 239.86046,-263.2323 297.92896,-431.4317 17.6526,-51.1318 29.9248,-103.9653 44.8872,-155.948 9.9919,-60.5131 23.156,-120.5876 29.9756,-181.5399 30.4212,-271.9009 14.0544,-572.3244 -11.6699,-845.0974 -15.7515,-162.0803 -35.2074,-167.4934 307.31501,-243.4132 35.9554,-7.9696 27.9312,68.2937 38.315,103.6275 22.525,76.6484 88.1925,367.3916 101.6561,422.3358 23.0166,93.9289 47.7313,187.434 71.597,281.1507 111.417,401.143 258.1924,793.6156 456.5163,1160.2906 104.5737,193.3429 136.7783,233.1463 253.9338,407.8679 85.158,113.1437 177.472,222.1309 289.0988,310.2366 28.3014,22.338 76.5815,58.8285 116.5574,64.87 12.3082,1.86 24.5187,-4.3164 36.7779,-6.4746 -513.3427,272.7055 -308.7774,200.2118 -239.0379,109.7997 47.436,-61.4971 78.3654,-136.8348 112.8957,-205.8577 0,0 319.1126,-143.6593 319.1126,-143.6593 v 0 c -28.2694,51.6922 -53.8216,104.6086 -81.3925,156.6844 -0.953,1.8 -49.3141,95.413 -56.1115,99.7535 -109.8428,70.1416 -227.7317,126.8045 -341.5975,190.2068 -13.8767,-2.7326 -28.5074,-2.9228 -41.6302,-8.1978 -40.7411,-16.3761 -81.3246,-51.6202 -111.9331,-80.4889 -103.9699,-98.0599 -189.0718,-213.7108 -268.7767,-331.7044 -104.5241,-172.3917 -145.2727,-233.1506 -240.4481,-419.4548 -190.2882,-372.4865 -334.385,-766.4122 -459.6881,-1164.8623 -64.5543,-220.9638 -123.1496,-463.6592 -214.04091,-675.4878 -9.4088,-21.9279 -52.3521,-45.6991 -35.2274,-62.3155 82.04521,-79.6097 183.80541,-140.1421 289.29191,-184.2071 20.3896,-8.5172 -4.1979,43.9944 -6.2969,65.9916 2.4755,153.3104 6.8755,306.6319 7.7245,459.963 0.6197,111.9219 0.8388,286.9449 -8.2874,398.589 -4.9961,61.119 -15.6174,121.6474 -23.4261,182.4709 -12.8908,52.2669 -23.4184,105.1737 -38.6724,156.8003 -50.2225,169.9771 -138.0093,325.2182 -270.86051,443.9385 -117.61168,67.2772 -232.68203,139.2055 -352.83507,201.8311 -13.91438,7.2525 -30.96553,7.131 -46.63852,6.3804 -65.36219,-3.1311 -114.00814,-71.0419 -156.61119,-110.4302 -150.1236,-178.3778 -272.706429,-376.9053 -392.153539,-576.6482 -65.980781,-121.7105 -43.76619,-75.1896 -95.324271,-189.1938 -8.2191,-18.1737 -39.37281,-41.6779 -24.26269,-54.6984 91.232361,-78.614 204.412271,-127.4154 307.6237,-189.471 4.12318,-2.4791 -6.61633,6.9863 -9.9245,10.4796 0.50422,19.3654 1.00843,38.7308 1.51268,58.0962 23.55331,312.9129 48.57684,626.6497 32.38746,940.6818 -11.29073,272.7947 -25.28102,545.5994 -29.12359,818.6116 0,0 -318.18368,162.1226 -318.18368,162.1226 z"
         id="path1803"
         style="opacity:1;fill:#000000;fill-opacity:1;stroke:#ffffff;stroke-width:0.26458332;stroke-miterlimit:4;stroke-dasharray:none;stroke-opacity:1" />
      <path
         inkscape:connector-curvature="0"
         d="m -416.98228,-5239.9728 c 30.6718,13.897 59.84458,30.6285 88.9775,47.4229 0,0 -296.03821,193.1434 -296.03821,193.1434 v 0 c -29.55695,-15.4291 -59.11747,-31.0126 -91.18161,-40.7606 0,0 298.24232,-199.8057 298.24232,-199.8057 z"
         id="path1805"
         style="opacity:1;fill:#000000;fill-opacity:1;stroke:#ffffff;stroke-width:0.26458332;stroke-miterlimit:4;stroke-dasharray:none;stroke-opacity:1" />
      <path
         inkscape:connector-curvature="0"
         d="m 2704.248,-5700.8826 c 24.2705,41.6635 53.0072,80.708 83.1689,118.2667 0,0 -303.6702,181.0898 -303.6702,181.0898 v 0 c -30.841,-40.2683 -60.3198,-81.5351 -90.6333,-122.2012 0,0 311.1346,-177.1553 311.1346,-177.1553 z"
         id="path1807"
         style="opacity:1;fill:#000000;fill-opacity:1;stroke:#ffffff;stroke-width:0.26458332;stroke-miterlimit:4;stroke-dasharray:none;stroke-opacity:1" />
    </g>
  </g>
</svg>
