<?xml version="1.0" encoding="UTF-8" standalone="no"?>
<!-- Generator: Adobe Illustrator 19.0.0, SVG Export Plug-In . SVG Version: 6.00 Build 0)  -->

<svg
   xmlns:dc="http://purl.org/dc/elements/1.1/"
   xmlns:cc="http://creativecommons.org/ns#"
   xmlns:rdf="http://www.w3.org/1999/02/22-rdf-syntax-ns#"
   xmlns:svg="http://www.w3.org/2000/svg"
   xmlns="http://www.w3.org/2000/svg"
   xmlns:sodipodi="http://sodipodi.sourceforge.net/DTD/sodipodi-0.dtd"
   xmlns:inkscape="http://www.inkscape.org/namespaces/inkscape"
   version="1.1"
   id="Capa_1"
   x="0px"
   y="0px"
   viewBox="0 0 512.00098 320"
   xml:space="preserve"
   sodipodi:docname="menu.svg"
   width="512.00098"
   height="320"
   inkscape:version="0.92.4 (5da689c313, 2019-01-14)"><metadata
   id="metadata55"><rdf:RDF><cc:Work
       rdf:about=""><dc:format>image/svg+xml</dc:format><dc:type
         rdf:resource="http://purl.org/dc/dcmitype/StillImage" /></cc:Work></rdf:RDF></metadata><defs
   id="defs53" /><sodipodi:namedview
   pagecolor="#ffffff"
   bordercolor="#666666"
   borderopacity="1"
   objecttolerance="10"
   gridtolerance="10"
   guidetolerance="10"
   inkscape:pageopacity="0"
   inkscape:pageshadow="2"
   inkscape:window-width="1366"
   inkscape:window-height="745"
   id="namedview51"
   showgrid="false"
   inkscape:zoom="0.4609375"
   inkscape:cx="256"
   inkscape:cy="160"
   inkscape:window-x="-8"
   inkscape:window-y="-8"
   inkscape:window-maximized="1"
   inkscape:current-layer="Capa_1" />
<g
   id="g6"
   transform="translate(0,-96)"
   style="fill:#ffffff;fill-opacity:1">
	<g
   id="g4"
   style="fill:#ffffff;fill-opacity:1">
		<path
   d="M 501.333,96 H 10.667 C 4.779,96 0,100.779 0,106.667 c 0,5.888 4.779,10.667 10.667,10.667 h 490.667 c 5.888,0 10.667,-4.779 10.667,-10.667 0,-5.888 -4.78,-10.667 -10.668,-10.667 z"
   id="path2"
   inkscape:connector-curvature="0"
   style="fill:#ffffff;fill-opacity:1" />
	</g>
</g>
<g
   id="g12"
   transform="translate(0,-96)"
   style="fill:#ffffff;fill-opacity:1">
	<g
   id="g10"
   style="fill:#ffffff;fill-opacity:1">
		<path
   d="M 501.333,245.333 H 10.667 C 4.779,245.333 0,250.112 0,256 c 0,5.888 4.779,10.667 10.667,10.667 h 490.667 c 5.888,0 10.667,-4.779 10.667,-10.667 0,-5.888 -4.78,-10.667 -10.668,-10.667 z"
   id="path8"
   inkscape:connector-curvature="0"
   style="fill:#ffffff;fill-opacity:1" />
	</g>
</g>
<g
   id="g18"
   transform="translate(0,-96)"
   style="fill:#ffffff;fill-opacity:1">
	<g
   id="g16"
   style="fill:#ffffff;fill-opacity:1">
		<path
   d="M 501.333,394.667 H 10.667 C 4.779,394.667 0,399.445 0,405.333 0,411.221 4.779,416 10.667,416 h 490.667 c 5.888,0 10.667,-4.779 10.667,-10.667 -10e-4,-5.888 -4.78,-10.666 -10.668,-10.666 z"
   id="path14"
   inkscape:connector-curvature="0"
   style="fill:#ffffff;fill-opacity:1" />
	</g>
</g>
<g
   id="g20"
   transform="translate(0,-96)">
</g>
<g
   id="g22"
   transform="translate(0,-96)">
</g>
<g
   id="g24"
   transform="translate(0,-96)">
</g>
<g
   id="g26"
   transform="translate(0,-96)">
</g>
<g
   id="g28"
   transform="translate(0,-96)">
</g>
<g
   id="g30"
   transform="translate(0,-96)">
</g>
<g
   id="g32"
   transform="translate(0,-96)">
</g>
<g
   id="g34"
   transform="translate(0,-96)">
</g>
<g
   id="g36"
   transform="translate(0,-96)">
</g>
<g
   id="g38"
   transform="translate(0,-96)">
</g>
<g
   id="g40"
   transform="translate(0,-96)">
</g>
<g
   id="g42"
   transform="translate(0,-96)">
</g>
<g
   id="g44"
   transform="translate(0,-96)">
</g>
<g
   id="g46"
   transform="translate(0,-96)">
</g>
<g
   id="g48"
   transform="translate(0,-96)">
</g>
</svg>