<svg id="Layer_3" enable-background="new 0 0 64 64" height="512" viewBox="0 0 64 64" width="512" xmlns="http://www.w3.org/2000/svg"><g><path d="m28 18h8l-2 3 2 3h-8" fill="#d23f34"/><path d="m52 49-24-20-24 20" fill="#6bc13b"/><path d="m38.408 37.673 4.592-3.673 17 15h-8" fill="#559b2d"/><path d="m35.111 34.926-7.111-5.926-7.091 5.909 3.091 3.091 5-4 3 3z" fill="#e2e7f6"/><g><path d="m27 15h2v16h-2z" fill="#e2e7f6"/></g><path d="m39.778 38.815 1.222-.815 14 11h-3" fill="#4d8c28"/><g><path d="m1 48h62v2h-62z" fill="#8e8d92"/></g><path d="m34.027 34.023-6.027-5.023-5.751 4.793 1.825 2.04 5.502-3.429 2.715 2.858z" fill="#fff"/><path d="m15 24h-10c-1.657 0-3 1.343-3 3s1.343 3 3 3h10c1.657 0 3-1.343 3-3s-1.343-3-3-3z" fill="#e2e7f6"/><circle cx="10" cy="23" fill="#d4d9f0" r="5"/><circle cx="15" cy="27" fill="#e2e7f6" r="3"/></g></svg>