<?xml version="1.0" encoding="UTF-8" standalone="no"?>
<!-- Generator: Adobe Illustrator 19.0.0, SVG Export Plug-In . SVG Version: 6.00 Build 0)  -->

<svg
   xmlns:dc="http://purl.org/dc/elements/1.1/"
   xmlns:cc="http://creativecommons.org/ns#"
   xmlns:rdf="http://www.w3.org/1999/02/22-rdf-syntax-ns#"
   xmlns:svg="http://www.w3.org/2000/svg"
   xmlns="http://www.w3.org/2000/svg"
   xmlns:sodipodi="http://sodipodi.sourceforge.net/DTD/sodipodi-0.dtd"
   xmlns:inkscape="http://www.inkscape.org/namespaces/inkscape"
   version="1.1"
   id="Capa_1"
   x="0px"
   y="0px"
   viewBox="0 0 513.28 513.28"
   style="enable-background:new 0 0 513.28 513.28;"
   xml:space="preserve"
   sodipodi:docname="search.svg"
   inkscape:version="0.92.4 (5da689c313, 2019-01-14)"><metadata
   id="metadata899"><rdf:RDF><cc:Work
       rdf:about=""><dc:format>image/svg+xml</dc:format><dc:type
         rdf:resource="http://purl.org/dc/dcmitype/StillImage" /></cc:Work></rdf:RDF></metadata><defs
   id="defs897" /><sodipodi:namedview
   pagecolor="#ffffff"
   bordercolor="#666666"
   borderopacity="1"
   objecttolerance="10"
   gridtolerance="10"
   guidetolerance="10"
   inkscape:pageopacity="0"
   inkscape:pageshadow="2"
   inkscape:window-width="1366"
   inkscape:window-height="745"
   id="namedview895"
   showgrid="false"
   inkscape:zoom="1.0052992"
   inkscape:cx="256.64001"
   inkscape:cy="256.64001"
   inkscape:window-x="-8"
   inkscape:window-y="-8"
   inkscape:window-maximized="1"
   inkscape:current-layer="Capa_1" />
<g
   id="g862"
   style="fill:#ffffff">
	<g
   id="g860"
   style="fill:#ffffff">
		<path
   d="M495.04,404.48L410.56,320c15.36-30.72,25.6-66.56,25.6-102.4C436.16,97.28,338.88,0,218.56,0S0.96,97.28,0.96,217.6    s97.28,217.6,217.6,217.6c35.84,0,71.68-10.24,102.4-25.6l84.48,84.48c25.6,25.6,64,25.6,89.6,0    C518.08,468.48,518.08,430.08,495.04,404.48z M218.56,384c-92.16,0-166.4-74.24-166.4-166.4S126.4,51.2,218.56,51.2    s166.4,74.24,166.4,166.4S310.72,384,218.56,384z"
   id="path858"
   style="fill:#ffffff" />
	</g>
</g>
<g
   id="g864">
</g>
<g
   id="g866">
</g>
<g
   id="g868">
</g>
<g
   id="g870">
</g>
<g
   id="g872">
</g>
<g
   id="g874">
</g>
<g
   id="g876">
</g>
<g
   id="g878">
</g>
<g
   id="g880">
</g>
<g
   id="g882">
</g>
<g
   id="g884">
</g>
<g
   id="g886">
</g>
<g
   id="g888">
</g>
<g
   id="g890">
</g>
<g
   id="g892">
</g>
</svg>