<svg height="477pt" viewBox="0 -1 477.054 477" width="477pt" xmlns="http://www.w3.org/2000/svg"><path d="m440.140625 374.335938h-403.222656c-18.179688 0-32.914063-14.738282-32.914063-32.917969v-304.476563c0-18.179687 14.734375-32.914062 32.914063-32.914062h403.222656c18.179687 0 32.917969 14.738281 32.917969 32.914062v304.476563c-.003906 18.179687-14.738282 32.917969-32.917969 32.917969zm0 0" fill="#6bdddd"/><path d="m4 298.570312v42.847657c0 18.179687 14.738281 32.917969 32.914062 32.917969h403.226563c18.179687 0 32.914063-14.738282 32.914063-32.917969v-42.847657zm0 0" fill="#e0ebfc"/><path d="m28.6875 263.242188v-222.183594c0-6.820313 5.527344-12.34375 12.34375-12.34375h394.996094c6.816406 0 12.34375 5.523437 12.34375 12.34375v222.183594c0 6.816406-5.527344 12.34375-12.34375 12.34375h-394.996094c-6.816406 0-12.34375-5.527344-12.34375-12.34375zm0 0" fill="#f9cfcf"/><path d="m381.277344 471.023438h-285.496094c-6.378906 0-11.546875-5.167969-11.546875-11.542969v-5.710938c0-6.375 5.167969-11.542969 11.546875-11.542969h285.496094c6.375 0 11.542968 5.167969 11.542968 11.542969v5.710938c.003907 6.375-5.167968 11.542969-11.542968 11.542969zm0 0" fill="#e0ebfc"/><path d="m239.585938 357.875h-2.113282c-10.734375 0-19.515625-8.78125-19.515625-19.515625v-2.113281c0-10.734375 8.78125-19.515625 19.515625-19.515625h2.113282c10.730468 0 19.515624 8.78125 19.515624 19.515625v2.113281c0 10.734375-8.785156 19.515625-19.515624 19.515625zm0 0" fill="#a4c9ff"/><path d="m141.972656 374.335938-16.59375 67.886718h226.300782l-16.59375-67.886718zm0 0" fill="#6bdddd"/><path d="m380.777344 276.832031h-284.316406c-9.613282 0-17.410157-7.792969-17.410157-17.40625v-182.773437c0-9.617188 7.796875-17.410156 17.410157-17.410156h284.316406c9.613281 0 17.40625 7.792968 17.40625 17.410156v182.773437c0 9.613281-7.792969 17.40625-17.40625 17.40625zm0 0" fill="#e0ebfc"/><path d="m380.777344 59.242188h-284.316406c-9.613282 0-17.410157 7.792968-17.410157 17.410156v40.769531h319.132813v-40.769531c0-9.617188-7.792969-17.410156-17.40625-17.410156zm0 0" fill="#4671c6"/><path d="m371.984375 86.726562 3.792969-3.398437c2.445312-2.191406 2.652344-5.949219.457031-8.394531-2.191406-2.441406-5.945313-2.652344-8.394531-.457032l-4.761719 4.269532-4.757813-4.269532c-2.449218-2.191406-6.199218-1.984374-8.394531.457032-2.195312 2.445312-1.988281 6.207031.457031 8.394531l3.792969 3.402344-3.792969 3.398437c-2.445312 2.191406-2.652343 5.949219-.457031 8.390625 1.175781 1.3125 2.796875 1.976563 4.429688 1.976563 1.410156 0 2.828125-.5 3.964843-1.515625l4.757813-4.269531 4.761719 4.269531c1.136718 1.015625 2.550781 1.515625 3.964844 1.515625 1.632812 0 3.253906-.664063 4.429687-1.976563 2.195313-2.441406 1.988281-6.203125-.457031-8.390625zm0 0" fill="#f9cfcf"/><path d="m329.070312 93.5625h-13.054687c-1.910156 0-3.460937-1.550781-3.460937-3.460938v-13.054687c0-1.914063 1.550781-3.464844 3.460937-3.464844h13.054687c1.914063 0 3.464844 1.550781 3.464844 3.464844v13.054687c0 1.910157-1.550781 3.460938-3.464844 3.460938zm0 0" fill="#f9cfcf"/><path d="m284.101562 96.589844h-18.886718c-3.863282 0-6.996094-3.132813-6.996094-6.996094 0-3.859375 3.132812-6.992188 6.996094-6.992188h18.886718c3.859376 0 6.992188 3.132813 6.992188 6.992188 0 3.863281-3.128906 6.996094-6.992188 6.996094zm0 0" fill="#f9cfcf"/><path d="m319.078125 99.871094h-13.054687c-1.910157 0-3.460938-1.546875-3.460938-3.460938v-13.054687c0-1.914063 1.550781-3.460938 3.460938-3.460938h13.054687c1.914063 0 3.464844 1.546875 3.464844 3.460938v13.054687c0 1.914063-1.550781 3.460938-3.464844 3.460938zm0 0" fill="#e0ebfc"/><path d="m229.023438 100.605469h-119.5625c-7.460938 0-13.511719-6.046875-13.511719-13.511719 0-7.460938 6.050781-13.511719 13.511719-13.511719h119.5625c7.460937 0 13.511718 6.050781 13.511718 13.511719 0 7.464844-6.050781 13.511719-13.511718 13.511719zm0 0" fill="#a4c9ff"/><path d="m266.71875 153.355469c0 4.207031-3.410156 7.621093-7.617188 7.621093-4.210937 0-7.621093-3.414062-7.621093-7.621093s3.410156-7.621094 7.621093-7.621094c4.207032 0 7.617188 3.414063 7.617188 7.621094zm0 0" fill="#f9a7a7"/><path d="m259.101562 170.210938c-9.292968 0-16.855468-7.5625-16.855468-16.855469s7.5625-16.855469 16.855468-16.855469c9.289063 0 16.851563 7.5625 16.851563 16.855469s-7.5625 16.855469-16.851563 16.855469zm0-27.707032c-5.984374 0-10.855468 4.867188-10.855468 10.851563 0 5.988281 4.871094 10.855469 10.855468 10.855469 5.984376 0 10.851563-4.867188 10.851563-10.855469 0-5.984375-4.867187-10.851563-10.851563-10.851563zm0 0" fill="#b9befc"/><path d="m258.21875 239.371094c-9.289062 0-16.851562-7.558594-16.851562-16.851563s7.5625-16.855469 16.851562-16.855469c9.292969 0 16.855469 7.5625 16.855469 16.855469s-7.5625 16.851563-16.855469 16.851563zm0-27.703125c-5.984375 0-10.851562 4.867187-10.851562 10.851562 0 5.988281 4.867187 10.855469 10.851562 10.855469s10.855469-4.867188 10.855469-10.855469c0-5.984375-4.871094-10.851562-10.855469-10.851562zm0 0" fill="#b9befc"/><path d="m436.203125 279.589844h-394.992187c-9.011719 0-16.34375-7.332032-16.34375-16.34375v-222.183594c0-9.011719 7.332031-16.34375 16.34375-16.34375h394.992187c9.011719 0 16.34375 7.332031 16.34375 16.34375v222.183594c0 9.011718-7.332031 16.34375-16.34375 16.34375zm-394.992187-246.871094c-4.601563 0-8.34375 3.742188-8.34375 8.34375v222.183594c0 4.601562 3.742187 8.34375 8.34375 8.34375h394.992187c4.601563 0 8.34375-3.742188 8.34375-8.34375v-222.183594c0-4.601562-3.742187-8.34375-8.34375-8.34375zm0 0" fill="#3762cc"/><path d="m145.90625 160.636719-54.042969 21.289062c-2.585937 1.015625-2.539062 4.703125.074219 5.652344l54.121094 19.695313c1.355468.496093 2.84375.496093 4.203125 0l54.136719-19.699219c2.605468-.945313 2.652343-4.625.074218-5.640625l-54.0625-21.296875c-1.445312-.570313-3.054687-.570313-4.503906 0zm0 0" fill="#4671c6"/><path d="m148.160156 211.644531c-1.175781 0-2.351562-.203125-3.46875-.613281l-54.125-19.691406c-2.761718-1.007813-4.578125-3.558594-4.617187-6.507813-.039063-2.945312 1.707031-5.546875 4.445312-6.628906l54.046875-21.289063c2.398438-.945312 5.039063-.945312 7.4375 0l54.058594 21.296876c2.738281 1.074218 4.480469 3.675781 4.441406 6.621093-.039062 2.945313-1.847656 5.496094-4.613281 6.5l-54.136719 19.703125c-1.117187.40625-2.292968.609375-3.46875.609375zm-52.433594-26.941406 51.703126 18.8125c.46875.175781.992187.171875 1.464843 0l51.699219-18.8125-51.648438-20.347656c-.503906-.199219-1.0625-.199219-1.570312 0zm50.183594-24.066406h.019532zm0 0" fill="#3762cc"/><path d="m206.382812 184.636719c.152344-1.535157-.984374-2.789063-2.527343-2.789063h-52.972657c-1.457031 0-2.785156 1.046875-2.929687 2.5-.167969 1.667969 1.136719 3.074219 2.769531 3.074219h48.730469c.746094 0 1.351563.605469 1.351563 1.351563v30.800781c0 1.457031 1.050781 2.789062 2.5 2.933593 1.667968.167969 3.074218-1.140624 3.074218-2.777343v-35.089844c.003906 0 .003906-.003906.003906-.003906zm0 0" fill="#ffea92"/><path d="m207.894531 233.222656h-8.601562c-.765625 0-1.390625-.625-1.390625-1.394531v-8.992187c0-3.136719 2.542968-5.679688 5.679687-5.679688h.023438c3.136719 0 5.679687 2.542969 5.679687 5.679688v8.992187c0 .769531-.625 1.394531-1.390625 1.394531zm0 0" fill="#ffea92"/><g fill="#3762cc"><path d="m347.46875 185.078125h-49.851562c-2.207032 0-4-1.792969-4-4v-49.847656c0-2.207031 1.792968-4 4-4h49.851562c2.207031 0 4 1.792969 4 4v49.847656c0 2.207031-1.792969 4-4 4zm-45.851562-8h41.851562v-41.847656h-41.851562zm0 0"/><path d="m354.105469 254.445312h-63.125c-1.464844 0-2.8125-.800781-3.515625-2.089843-.699219-1.285157-.640625-2.855469.15625-4.085938l31.5625-48.773437c.738281-1.140625 2-1.828125 3.359375-1.828125 1.355469 0 2.621093.6875 3.355469 1.828125l31.5625 48.773437c.796874 1.230469.855468 2.800781.15625 4.085938-.703126 1.289062-2.046876 2.089843-3.511719 2.089843zm-55.769531-8h48.414062l-24.207031-37.414062zm0 0"/><path d="m440.140625 378.332031h-403.226563c-20.355468 0-36.914062-16.558593-36.914062-36.914062v-304.476563c0-20.355468 16.558594-36.9140622 36.914062-36.9140622h403.222657c20.355469 0 36.917969 16.5585942 36.917969 36.9140622v304.476563c0 20.355469-16.5625 36.914062-36.914063 36.914062zm-403.226563-370.304687c-15.941406 0-28.914062 12.972656-28.914062 28.914062v304.476563c0 15.945312 12.972656 28.914062 28.914062 28.914062h403.222657c15.949219 0 28.917969-12.96875 28.917969-28.914062v-304.476563c0-15.941406-12.96875-28.914062-28.917969-28.914062zm0 0"/><path d="m381.277344 475.023438h-285.496094c-8.574219 0-15.546875-6.972657-15.546875-15.542969v-5.710938c0-8.570312 6.972656-15.542969 15.546875-15.542969h285.496094c8.570312 0 15.542968 6.972657 15.542968 15.542969v5.710938c.003907 8.570312-6.972656 15.542969-15.542968 15.542969zm-285.496094-28.796876c-4.164062 0-7.546875 3.382813-7.546875 7.542969v5.707031c0 4.164063 3.382813 7.546876 7.546875 7.546876h285.496094c4.160156 0 7.542968-3.382813 7.542968-7.546876v-5.707031c0-4.160156-3.382812-7.542969-7.542968-7.542969zm0 0"/><path d="m351.679688 446.226562h-226.300782c-1.226562 0-2.386718-.566406-3.144531-1.53125-.757813-.964843-1.03125-2.226562-.742187-3.421874l16.597656-67.882813c.4375-1.792969 2.039062-3.050781 3.882812-3.050781h193.113282c1.84375 0 3.445312 1.257812 3.882812 3.050781l16.59375 67.882813c.292969 1.195312.023438 2.457031-.738281 3.421874-.757813.964844-1.917969 1.53125-3.144531 1.53125zm-221.203126-8h216.109376l-14.640626-59.886718h-186.832031zm0 0"/></g><path d="m150.261719 207.273438c-1.359375.496093-2.84375.496093-4.203125 0l-31.753906-11.550782v18.40625c0 1.179688.773437 2.234375 1.949218 2.628906 7.535156 2.519532 35.761719 10.539063 63.921875.019532 1.117188-.417969 1.839844-1.460938 1.839844-2.597656v-18.457032zm0 0" fill="#4671c6"/><path d="m149.578125 226.058594c-16.28125 0-29.476563-3.796875-34.59375-5.507813-2.796875-.941406-4.679687-3.523437-4.679687-6.421875v-18.40625c0-1.304687.636718-2.53125 1.707031-3.28125 1.066406-.746094 2.4375-.921875 3.664062-.480468l31.753907 11.554687c.46875.171875.992187.175781 1.460937 0l31.753906-11.554687c1.226563-.441407 2.589844-.265626 3.664063.480468 1.070312.75 1.707031 1.972656 1.707031 3.28125v18.457032c0 2.800781-1.785156 5.351562-4.441406 6.347656-11.054688 4.128906-22.097657 5.53125-31.996094 5.53125zm-31.273437-12.839844c8.4375 2.71875 34.039062 9.367188 59.710937.09375v-11.878906l-26.386719 9.601562c-2.234375.816406-4.699218.816406-6.9375 0l-26.386718-9.601562zm0 0" fill="#3762cc"/></svg>