<?xml version="1.0" encoding="UTF-8" standalone="no"?>
<!-- Generator: Adobe Illustrator 19.0.0, SVG Export Plug-In . SVG Version: 6.00 Build 0)  -->

<svg
   xmlns:dc="http://purl.org/dc/elements/1.1/"
   xmlns:cc="http://creativecommons.org/ns#"
   xmlns:rdf="http://www.w3.org/1999/02/22-rdf-syntax-ns#"
   xmlns:svg="http://www.w3.org/2000/svg"
   xmlns="http://www.w3.org/2000/svg"
   xmlns:sodipodi="http://sodipodi.sourceforge.net/DTD/sodipodi-0.dtd"
   xmlns:inkscape="http://www.inkscape.org/namespaces/inkscape"
   version="1.1"
   id="Capa_1"
   x="0px"
   y="0px"
   viewBox="0 0 512.07385 509.62311"
   xml:space="preserve"
   sodipodi:docname="user.svg"
   width="512.07385"
   height="509.62311"
   inkscape:version="0.92.4 (5da689c313, 2019-01-14)"><metadata
   id="metadata43"><rdf:RDF><cc:Work
       rdf:about=""><dc:format>image/svg+xml</dc:format><dc:type
         rdf:resource="http://purl.org/dc/dcmitype/StillImage" /></cc:Work></rdf:RDF></metadata><defs
   id="defs41" /><sodipodi:namedview
   pagecolor="#ffffff"
   bordercolor="#666666"
   borderopacity="1"
   objecttolerance="10"
   gridtolerance="10"
   guidetolerance="10"
   inkscape:pageopacity="0"
   inkscape:pageshadow="2"
   inkscape:window-width="1366"
   inkscape:window-height="745"
   id="namedview39"
   showgrid="false"
   inkscape:zoom="0.4609375"
   inkscape:cx="477.8297"
   inkscape:cy="274.36258"
   inkscape:window-x="-8"
   inkscape:window-y="-8"
   inkscape:window-maximized="1"
   inkscape:current-layer="Capa_1" />

<g
   id="g8"
   transform="translate(221.8297,-20.739472)">
</g>
<g
   id="g10"
   transform="translate(221.8297,-20.739472)">
</g>
<g
   id="g12"
   transform="translate(221.8297,-20.739472)">
</g>
<g
   id="g14"
   transform="translate(221.8297,-20.739472)">
</g>
<g
   id="g16"
   transform="translate(221.8297,-20.739472)">
</g>
<g
   id="g18"
   transform="translate(221.8297,-20.739472)">
</g>
<g
   id="g20"
   transform="translate(221.8297,-20.739472)">
</g>
<g
   id="g22"
   transform="translate(221.8297,-20.739472)">
</g>
<g
   id="g24"
   transform="translate(221.8297,-20.739472)">
</g>
<g
   id="g26"
   transform="translate(221.8297,-20.739472)">
</g>
<g
   id="g28"
   transform="translate(221.8297,-20.739472)">
</g>
<g
   id="g30"
   transform="translate(221.8297,-20.739472)">
</g>
<g
   id="g32"
   transform="translate(221.8297,-20.739472)">
</g>
<g
   id="g34"
   transform="translate(221.8297,-20.739472)">
</g>
<g
   id="g36"
   transform="translate(221.8297,-20.739472)">
</g>
<path
   style="opacity:1;fill:#ffffff;fill-opacity:1;stroke:#ffffff;stroke-width:1.14549148;stroke-miterlimit:4;stroke-dasharray:none;stroke-opacity:1"
   d="m 2.0300814,494.40629 c 3.84933,-40.26485 11.6652496,-67.69966 28.7971496,-101.08138 25.25089,-49.20173 63.91068,-86.6047 115.225349,-111.47941 13.87539,-6.72608 25.49064,-12.39548 25.81167,-12.5987 0.32103,-0.20328 -7.55891,-8.56784 -17.51099,-18.58805 -20.1632,-20.30123 -28.70429,-33.81233 -37.57459,-59.4389 -5.22259,-15.08828 -6.02295,-20.75742 -6.1257,-43.38983 -0.0971,-21.39745 0.78266,-28.93169 4.94013,-42.30509 6.93194,-22.298102 17.72393,-40.914637 33.48582,-57.764145 30.13084,-32.209967 64.26961,-47.14035957 107.89655,-47.18793657 40.07029,-0.0437 73.69523,13.83169557 101.92047,42.05766557 33.86964,33.870527 48.41042,74.734006 43.19166,121.380196 -3.84427,34.36073 -17.48469,61.27662 -44.76248,88.32738 l -17.88764,17.73874 8.12492,2.63235 c 24.90566,8.06906 61.94348,31.73606 85.19251,54.4376 46.27976,45.18994 73.17905,101.48723 77.32636,161.83578 l 1.37912,20.0678 H 493.0282 474.59603 l -2.68469,-22.15105 c -11.02737,-90.98633 -72.6521,-161.77584 -162.48748,-186.65253 -13.81222,-3.82482 -22.75601,-4.62223 -52.44839,-4.67632 -42.7297,-0.0779 -60.0994,3.65961 -94.37288,20.30616 C 93.294071,349.53958 46.472081,417.12364 40.712191,491.81631 l -1.32899,17.23405 H 20.006651 0.63011141 Z M 284.00397,251.89794 c 55.49157,-14.45373 90.74138,-71.21257 79.0486,-127.28317 -6.07104,-29.112502 -30.16869,-61.23154 -55.61325,-74.12529 -60.67615,-30.74693 -134.82207,-0.350431 -154.65004,63.39957 -5.35517,17.2177 -5.74116,46.64216 -0.83139,63.37771 10.48571,35.74184 40.18216,64.6804 76.81419,74.85382 13.71821,3.8098 40.15948,3.70321 55.23189,-0.22264 z"
   id="path850"
   inkscape:connector-curvature="0" /></svg>