<?xml version="1.0" encoding="UTF-8" standalone="no"?>
<!-- Generator: Adobe Illustrator 19.0.0, SVG Export Plug-In . SVG Version: 6.00 Build 0)  -->

<svg
   xmlns:dc="http://purl.org/dc/elements/1.1/"
   xmlns:cc="http://creativecommons.org/ns#"
   xmlns:rdf="http://www.w3.org/1999/02/22-rdf-syntax-ns#"
   xmlns:svg="http://www.w3.org/2000/svg"
   xmlns="http://www.w3.org/2000/svg"
   xmlns:sodipodi="http://sodipodi.sourceforge.net/DTD/sodipodi-0.dtd"
   xmlns:inkscape="http://www.inkscape.org/namespaces/inkscape"
   version="1.1"
   id="Capa_1"
   x="0px"
   y="0px"
   viewBox="0 0 512.001 512.001"
   style="enable-background:new 0 0 512.001 512.001;"
   xml:space="preserve"
   sodipodi:docname="vision.svg"
   inkscape:version="0.92.4 (5da689c313, 2019-01-14)"><metadata
   id="metadata79"><rdf:RDF><cc:Work
       rdf:about=""><dc:format>image/svg+xml</dc:format><dc:type
         rdf:resource="http://purl.org/dc/dcmitype/StillImage" /></cc:Work></rdf:RDF></metadata><defs
   id="defs77" /><sodipodi:namedview
   pagecolor="#ffffff"
   bordercolor="#666666"
   borderopacity="1"
   objecttolerance="10"
   gridtolerance="10"
   guidetolerance="10"
   inkscape:pageopacity="0"
   inkscape:pageshadow="2"
   inkscape:window-width="1366"
   inkscape:window-height="745"
   id="namedview75"
   showgrid="false"
   inkscape:zoom="0.46093662"
   inkscape:cx="256.00049"
   inkscape:cy="256.00049"
   inkscape:window-x="-8"
   inkscape:window-y="-8"
   inkscape:window-maximized="1"
   inkscape:current-layer="Capa_1" />
<path
   style="fill:#e6eaee;stroke-width:0.72117168"
   d="m 77.523482,255.14709 c 83.933568,141.18162 273.445958,141.18162 357.379538,0 0.67429,-1.13513 0.67429,-2.55873 0,-3.69313 -83.93358,-141.18162 -273.44597,-141.18162 -357.379538,0 -0.674295,1.1344 -0.674295,2.55872 0,3.69313 z"
   id="path2"
   inkscape:connector-curvature="0" />
<path
   style="fill:#cdd3d9;stroke-width:0.72117168"
   d="m 434.90518,255.1442 c -45.60691,76.7132 -122.37851,111.74484 -196.45295,105.08698 62.25588,-5.58043 122.60279,-40.61207 160.93019,-105.08698 0.67935,-1.12792 0.67935,-2.55872 0,-3.68663 -38.32811,-64.47491 -98.67504,-99.50656 -160.93019,-105.08697 74.07515,-6.65787 150.84604,28.37377 196.45366,105.08697 0.67142,1.12791 0.67142,2.55871 -7.1e-4,3.68663 z"
   id="path4"
   inkscape:connector-curvature="0" />
<circle
   style="fill:#63cff1;stroke-width:0.72117168"
   cx="256.21326"
   cy="253.30017"
   r="105.58602"
   id="circle6" />
<path
   style="fill:#33bddd;stroke-width:0.72117168"
   d="m 361.79928,253.30089 c 0,58.31611 -47.26993,105.58602 -105.58604,105.58602 -5.89845,0 -11.68947,-0.48462 -17.32759,-1.4171 50.07456,-8.26247 88.26493,-51.75199 88.26493,-104.16892 0,-52.41693 -38.19037,-95.90647 -88.26493,-104.16894 5.63885,-0.93247 11.42914,-1.4171 17.32759,-1.4171 58.31611,0 105.58604,47.26993 105.58604,105.58604 z"
   id="path8"
   inkscape:connector-curvature="0" />
<path
   d="m 439.56394,248.68322 c -5.08138,-8.54732 -10.66901,-16.7831 -16.60786,-24.47729 -1.83033,-2.37122 -5.23354,-2.80751 -7.60547,-0.97863 -2.36977,1.82961 -2.80824,5.23427 -0.97863,7.60476 5.45855,7.07109 10.60844,14.62608 15.31912,22.46883 -19.76803,32.92437 -45.64583,58.67886 -76.9245,76.55382 -11.07503,6.329 -22.69959,11.53658 -34.68403,15.57298 29.61996,-19.95627 49.14064,-53.80446 49.14064,-92.1268 0,-38.29999 -19.49759,-72.1316 -49.08727,-92.09219 25.59654,8.6519 49.58633,22.67075 70.40727,41.57916 2.21544,2.01351 5.64605,1.84836 7.65812,-0.36852 2.01351,-2.21616 1.84836,-5.64605 -0.36851,-7.65884 -46.72905,-42.43879 -108.6301,-61.52388 -169.83017,-52.36573 -30.58634,4.57728 -59.24282,15.78502 -85.17399,33.31237 -27.26679,18.42954 -50.134418,42.98183 -67.966832,72.97825 -1.691869,2.84646 -1.691869,6.38453 0.0014,9.23244 20.806525,34.99846 48.198792,62.36837 81.417402,81.35177 31.12217,17.78554 66.37016,27.18602 101.9333,27.18602 35.56314,0 70.81113,-9.40048 101.93329,-27.18602 33.2179,-18.9834 60.61088,-46.35331 81.41668,-81.35105 1.69332,-2.84863 1.69332,-6.38742 0,-9.23533 z m -356.827829,4.61767 c 16.928064,-28.19133 38.512009,-51.27171 64.165529,-68.61083 14.91383,-10.07982 30.78034,-17.93915 47.42065,-23.54266 -16.21122,10.90484 -29.27308,25.8504 -37.8644,43.3965 -1.31614,2.68926 -0.20409,5.9367 2.48516,7.25355 2.68852,1.31614 5.9374,0.2041 7.25354,-2.48515 8.12545,-16.5956 20.676,-30.62456 36.29586,-40.57024 16.03741,-10.21179 34.61407,-15.60976 53.72152,-15.60976 55.23165,0 100.16642,44.93477 100.16642,100.16714 0,55.23238 -44.93404,100.1686 -100.16715,100.1686 -55.23309,0 -100.16714,-44.93477 -100.16714,-100.16715 0,-2.67699 0.10601,-5.37995 0.31732,-8.03458 0.23726,-2.98492 -1.99116,-5.59629 -4.97537,-5.83355 -2.98421,-0.23871 -5.59701,1.99115 -5.83356,4.97535 -0.23293,2.93878 -0.35121,5.93165 -0.35121,8.89278 0,38.32307 19.52068,72.17053 49.13993,92.1268 -11.98371,-4.0364 -23.60829,-9.2447 -34.6826,-15.57226 -31.28154,-17.87641 -57.15646,-43.62873 -76.924499,-76.55454 z"
   id="path10"
   inkscape:connector-curvature="0"
   style="stroke-width:0.72117168" />
<circle
   style="fill:#5c6d7d;stroke-width:0.72117168"
   cx="254.09515"
   cy="257.47867"
   r="35.515545"
   id="circle12" />
<path
   style="fill:#53616d;stroke-width:0.72117168"
   d="m 289.6172,257.47719 c 0,19.61947 -15.90399,35.52275 -35.52275,35.52275 -3.10825,0 -6.12275,-0.39735 -8.99302,-1.14954 15.26721,-3.98303 26.53046,-17.8627 26.53046,-34.37321 0,-16.5105 -11.26253,-30.39017 -26.53046,-34.3732 2.86955,-0.75147 5.88404,-1.14956 8.99302,-1.14956 19.61876,-7.1e-4 35.52275,15.90328 35.52275,35.52276 z"
   id="path14"
   inkscape:connector-curvature="0" />
<g
   id="g20"
   transform="matrix(0.7211717,0,0,0.7211717,71.593287,68.680197)">
	<circle
   style="fill:#edebed"
   cx="280.77899"
   cy="228.364"
   r="27.41"
   id="circle16" />
	<path
   style="fill:#edebed"
   d="m 308.193,228.365 c 0,15.14 -12.273,27.413 -27.413,27.413 -2.399,0 -4.725,-0.307 -6.94,-0.887 11.782,-3.073 20.474,-13.785 20.474,-26.526 0,-12.741 -8.692,-23.452 -20.474,-26.526 2.214,-0.58 4.541,-0.887 6.94,-0.887 15.139,0 27.413,12.272 27.413,27.413 z"
   id="path18"
   inkscape:connector-curvature="0" />
</g>
<path
   d="m 299.27224,233.37059 c 0,-13.88977 -11.29931,-25.18909 -25.18907,-25.18909 -7.43601,0 -14.12704,3.24095 -18.74182,8.38146 -0.41467,-0.0135 -0.83007,-0.0259 -1.24762,-0.0259 -22.57556,0 -40.94093,18.36607 -40.94093,40.94091 0,22.57483 18.36609,40.94092 40.94093,40.94092 22.57483,0 40.94092,-18.36609 40.94092,-40.94092 0,-3.02316 -0.33463,-5.96842 -0.96204,-8.80479 3.25753,-4.24553 5.19963,-9.55047 5.19963,-15.30253 z m -25.18907,-14.34555 c 7.9098,0 14.34555,6.43501 14.34555,14.34555 0,7.90981 -6.43502,14.34555 -14.34555,14.34555 -7.91054,0 -14.34628,-6.43502 -14.34628,-14.34555 0,-7.91054 6.43574,-14.34555 14.34628,-14.34555 z m -19.98944,68.55025 c -16.59561,0 -30.09739,-13.50249 -30.09739,-30.09737 0,-15.04509 11.101,-27.53074 25.53885,-29.73463 -0.41467,1.81086 -0.64184,3.69311 -0.64184,5.62802 0,13.88904 11.30005,25.18908 25.18982,25.18908 3.58205,0 6.98814,-0.75579 10.07621,-2.10942 0.0122,0.34182 0.0317,0.68222 0.0317,1.02695 7.2e-4,16.59559 -13.50178,30.09737 -30.09738,30.09737 z"
   id="path22"
   inkscape:connector-curvature="0"
   style="stroke-width:0.72117168" />
<path
   d="m 256.21324,100.24228 c -2.99502,0 -5.42177,-2.427463 -5.42177,-5.421773 v -19.89784 c 0,-2.99431 2.42675,-5.42177 5.42177,-5.42177 2.99503,0 5.42177,2.42746 5.42177,5.42177 v 19.89784 c 0,2.99431 -2.42674,5.421773 -5.42177,5.421773 z"
   id="path24"
   inkscape:connector-curvature="0"
   style="stroke-width:0.72117168" />
<path
   d="m 256.21324,437.10015 c -2.99502,0 -5.42177,-2.42746 -5.42177,-5.42177 v -19.89784 c 0,-2.99431 2.42675,-5.42177 5.42177,-5.42177 2.99503,0 5.42177,2.42746 5.42177,5.42177 v 19.89784 c 0,2.99503 -2.42674,5.42177 -5.42177,5.42177 z"
   id="path26"
   inkscape:connector-curvature="0"
   style="stroke-width:0.72117168" />
<path
   d="m 176.97883,121.47575 c -1.8736,0 -3.69528,-0.97215 -4.70059,-2.71161 l -9.94929,-17.23167 c -1.49716,-2.593343 -0.60867,-5.909293 1.98466,-7.405723 2.59261,-1.49787 5.90856,-0.60867 7.40572,1.98466 l 9.94928,17.231683 c 1.49716,2.59333 0.60867,5.90928 -1.98466,7.40572 -0.85315,0.49184 -1.78562,0.72694 -2.70512,0.72694 z"
   id="path28"
   inkscape:connector-curvature="0"
   style="stroke-width:0.72117168" />
<path
   d="m 345.40777,413.20341 c -1.87361,0 -3.69529,-0.97215 -4.7006,-2.71161 l -9.94929,-17.2324 c -1.49715,-2.59334 -0.60867,-5.90928 1.98467,-7.40571 2.59262,-1.49788 5.90856,-0.6094 7.4057,1.98467 l 9.9493,17.23167 c 1.49714,2.59333 0.60866,5.90927 -1.98467,7.40571 -0.85243,0.49328 -1.7849,0.72767 -2.70511,0.72767 z"
   id="path30"
   inkscape:connector-curvature="0"
   style="stroke-width:0.72117168" />
<path
   d="m 118.96057,179.48319 c -0.9195,0 -1.85197,-0.23438 -2.70584,-0.72694 l -17.232398,-9.94929 c -2.593333,-1.49715 -3.481095,-4.81309 -1.984665,-7.40571 1.496432,-2.59333 4.810933,-3.48181 7.405713,-1.98466 l 17.2324,9.94929 c 2.59333,1.49715 3.48109,4.81309 1.98466,7.40571 -1.00387,1.73874 -2.82627,2.7116 -4.69987,2.7116 z"
   id="path32"
   inkscape:connector-curvature="0"
   style="stroke-width:0.72117168" />
<path
   d="m 410.68895,347.91212 c -0.91949,0 -1.85196,-0.23438 -2.70584,-0.72694 l -17.2324,-9.94928 c -2.59333,-1.49716 -3.48109,-4.8131 -1.98465,-7.40572 1.49642,-2.59333 4.81092,-3.48181 7.4057,-1.98467 l 17.23241,9.9493 c 2.59332,1.49714 3.48181,4.8131 1.98465,7.4057 -1.00386,1.73875 -2.82626,2.71161 -4.69987,2.71161 z"
   id="path34"
   inkscape:connector-curvature="0"
   style="stroke-width:0.72117168" />
<path
   d="m 101.73826,347.91212 c -1.873599,0 -3.696,-0.97213 -4.700593,-2.71161 -1.497152,-2.59333 -0.608668,-5.90927 1.984665,-7.4057 l 17.232398,-9.9493 c 2.59189,-1.49786 5.91,-0.60938 7.40571,1.98467 1.49715,2.59334 0.60867,5.90929 -1.98466,7.40572 l -17.2324,9.94928 c -0.85315,0.49329 -1.78562,0.72694 -2.70512,0.72694 z"
   id="path36"
   inkscape:connector-curvature="0"
   style="stroke-width:0.72117168" />
<path
   d="m 393.46665,179.48319 c -1.8736,0 -3.696,-0.97214 -4.70059,-2.7116 -1.49716,-2.59334 -0.60868,-5.90928 1.98465,-7.40571 l 17.2324,-9.94929 c 2.59189,-1.49715 5.90928,-0.60867 7.40571,1.98466 1.49716,2.59334 0.60867,5.90928 -1.98465,7.40571 l -17.23241,9.94856 c -0.85242,0.49329 -1.78561,0.72767 -2.70511,0.72767 z"
   id="path38"
   inkscape:connector-curvature="0"
   style="stroke-width:0.72117168" />
<path
   d="m 167.02017,413.20341 c -0.91949,0 -1.85197,-0.23439 -2.70584,-0.72694 -2.59333,-1.49717 -3.48109,-4.81311 -1.98466,-7.40572 l 9.94857,-17.23239 c 1.49643,-2.59334 4.81165,-3.48182 7.40571,-1.98467 2.59333,1.49715 3.48109,4.8131 1.98466,7.40571 l -9.94928,17.23168 c -1.00316,1.74018 -2.82628,2.71233 -4.69916,2.71233 z"
   id="path40"
   inkscape:connector-curvature="0"
   style="stroke-width:0.72117168" />
<path
   d="m 335.4491,121.47575 c -0.91949,0 -1.85196,-0.23439 -2.70584,-0.72694 -2.59333,-1.49715 -3.48181,-4.81311 -1.98465,-7.40572 l 9.94928,-17.231683 c 1.49643,-2.59405 4.81166,-3.48181 7.40571,-1.98466 2.59333,1.49716 3.48182,4.8131 1.98466,7.405723 l -9.94928,17.23167 c -1.00387,1.73875 -2.82627,2.71161 -4.69988,2.71161 z"
   id="path42"
   inkscape:connector-curvature="0"
   style="stroke-width:0.72117168" />
<g
   id="g44">
</g>
<g
   id="g46">
</g>
<g
   id="g48">
</g>
<g
   id="g50">
</g>
<g
   id="g52">
</g>
<g
   id="g54">
</g>
<g
   id="g56">
</g>
<g
   id="g58">
</g>
<g
   id="g60">
</g>
<g
   id="g62">
</g>
<g
   id="g64">
</g>
<g
   id="g66">
</g>
<g
   id="g68">
</g>
<g
   id="g70">
</g>
<g
   id="g72">
</g>
</svg>