<?xml version="1.0" encoding="UTF-8" standalone="no"?>
<svg
   xmlns:dc="http://purl.org/dc/elements/1.1/"
   xmlns:cc="http://creativecommons.org/ns#"
   xmlns:rdf="http://www.w3.org/1999/02/22-rdf-syntax-ns#"
   xmlns:svg="http://www.w3.org/2000/svg"
   xmlns="http://www.w3.org/2000/svg"
   xmlns:sodipodi="http://sodipodi.sourceforge.net/DTD/sodipodi-0.dtd"
   xmlns:inkscape="http://www.inkscape.org/namespaces/inkscape"
   height="512pt"
   viewBox="0 0 512 512"
   width="512pt"
   version="1.1"
   id="svg6"
   sodipodi:docname="whatsapp.svg"
   inkscape:version="0.92.4 (5da689c313, 2019-01-14)">
  <metadata
     id="metadata12">
    <rdf:RDF>
      <cc:Work
         rdf:about="">
        <dc:format>image/svg+xml</dc:format>
        <dc:type
           rdf:resource="http://purl.org/dc/dcmitype/StillImage" />
      </cc:Work>
    </rdf:RDF>
  </metadata>
  <defs
     id="defs10" />
  <sodipodi:namedview
     pagecolor="#ffffff"
     bordercolor="#666666"
     borderopacity="1"
     objecttolerance="10"
     gridtolerance="10"
     guidetolerance="10"
     inkscape:pageopacity="0"
     inkscape:pageshadow="2"
     inkscape:window-width="1366"
     inkscape:window-height="745"
     id="namedview8"
     showgrid="false"
     inkscape:zoom="0.34570313"
     inkscape:cx="240.0904"
     inkscape:cy="341.33333"
     inkscape:window-x="-8"
     inkscape:window-y="-8"
     inkscape:window-maximized="1"
     inkscape:current-layer="svg6" />
  <path
     style="opacity:1;fill:#ffffff;fill-opacity:1;stroke:#ffffff;stroke-width:2.89265537;stroke-miterlimit:4;stroke-dasharray:none;stroke-opacity:1"
     d="m 312.98531,620.82597 c -3.9774,-0.70765 -15.04181,-2.64113 -24.58757,-4.29663 -23.82471,-4.13187 -51.31743,-13.27226 -74.00784,-24.60507 l -19.04738,-9.51328 -60.50064,13.85469 c -33.27535,7.62009 -60.816886,13.61188 -61.203412,13.3151 -0.386526,-0.29679 5.248988,-27.2708 12.523362,-59.94224 L 99.387968,490.23592 86.151096,463.87972 C 65.653057,423.06569 58.051151,393.79022 56.296615,348.90804 54.009294,290.39684 66.846166,239.76961 95.968068,192.4481 124.51266,146.06469 165.88125,108.79995 216.08136,84.250307 c 39.0531,-19.098365 66.78901,-26.04703 111.36723,-27.900784 43.45789,-1.807167 69.55048,1.783899 107.78751,14.834562 81.26441,27.736327 152.01624,99.704565 177.99524,181.055465 10.42469,32.64396 13.3083,52.47098 13.0418,89.67231 -0.53998,75.37881 -28.37319,140.98143 -82.98387,195.5921 -52.37106,52.37104 -116.79862,80.50032 -190.94377,83.36659 -17.6707,0.68313 -35.38279,0.66305 -39.36019,-0.0446 z M 453.60359,479.37816 c 15.86671,-4.7119 36.55027,-20.73195 43.08663,-33.3719 2.31473,-4.47618 5.0583,-15.36815 6.09682,-24.20438 l 1.88824,-16.06589 -38.7845,-19.05517 c -23.97539,-11.77935 -40.62957,-18.34718 -43.61664,-17.20091 -2.65768,1.01983 -10.11998,8.70825 -16.58284,17.08532 -21.76796,28.21531 -19.71006,27.64575 -48.02071,13.29092 -15.54071,-7.87989 -32.10446,-19.41302 -44.91573,-31.27429 -20.1829,-18.68627 -46.05204,-51.56646 -46.05204,-58.53306 0,-2.00648 5.16267,-9.24899 11.4726,-16.09446 17.2122,-18.67302 17.30415,-22.43329 1.50054,-61.36171 -7.56192,-18.62697 -15.72867,-36.14517 -18.14834,-38.92935 -3.25561,-3.74605 -8.81202,-5.06215 -21.37165,-5.06215 -15.79654,0 -17.84677,0.80612 -29.5969,11.63701 -17.27248,15.92121 -25.71065,36.26999 -25.76212,62.1257 -0.0518,26.02874 7.39511,46.68228 27.95481,77.53079 51.01717,76.548 105.46544,117.70823 182.67423,138.0928 24.93376,6.58296 39.51934,6.93164 58.1776,1.39073 z"
     id="path816"
     inkscape:connector-curvature="0"
     transform="scale(0.74999998)" />
</svg>
