<?xml version="1.0" encoding="UTF-8" standalone="no"?>
<svg
   xmlns:dc="http://purl.org/dc/elements/1.1/"
   xmlns:cc="http://creativecommons.org/ns#"
   xmlns:rdf="http://www.w3.org/1999/02/22-rdf-syntax-ns#"
   xmlns:svg="http://www.w3.org/2000/svg"
   xmlns="http://www.w3.org/2000/svg"
   xmlns:sodipodi="http://sodipodi.sourceforge.net/DTD/sodipodi-0.dtd"
   xmlns:inkscape="http://www.inkscape.org/namespaces/inkscape"
   height="512pt"
   viewBox="0 0 512 512"
   width="512pt"
   version="1.1"
   id="svg6"
   sodipodi:docname="whatsapp (1).svg"
   inkscape:version="0.92.4 (5da689c313, 2019-01-14)">
  <metadata
     id="metadata12">
    <rdf:RDF>
      <cc:Work
         rdf:about="">
        <dc:format>image/svg+xml</dc:format>
        <dc:type
           rdf:resource="http://purl.org/dc/dcmitype/StillImage" />
      </cc:Work>
    </rdf:RDF>
  </metadata>
  <defs
     id="defs10" />
  <sodipodi:namedview
     pagecolor="#ffffff"
     bordercolor="#666666"
     borderopacity="1"
     objecttolerance="10"
     gridtolerance="10"
     guidetolerance="10"
     inkscape:pageopacity="0"
     inkscape:pageshadow="2"
     inkscape:window-width="1366"
     inkscape:window-height="745"
     id="namedview8"
     showgrid="false"
     inkscape:zoom="0.34570313"
     inkscape:cx="341.33333"
     inkscape:cy="343.73056"
     inkscape:window-x="-8"
     inkscape:window-y="-8"
     inkscape:window-maximized="1"
     inkscape:current-layer="svg6" />
  <path
     style="opacity:1;fill:#ffffff;fill-opacity:1;stroke:#ffffff;stroke-width:2.89265537;stroke-miterlimit:4;stroke-dasharray:none;stroke-opacity:1"
     d="m 145.82888,536.77227 c 0.80551,-2.96532 7.08563,-26.03483 13.95581,-51.26558 11.34582,-41.66751 12.14101,-46.70727 8.67187,-54.96045 -17.43828,-41.48595 -21.34019,-58.04329 -21.56934,-91.52703 -0.27398,-40.03566 3.33393,-56.21083 20.64682,-92.56497 11.33941,-23.81087 16.61308,-30.96277 39.49506,-53.56132 19.75348,-19.5088 31.87518,-28.80794 48.1031,-36.9022 110.90013,-55.3154 240.93615,-4.3374 284.08118,111.3683 11.52448,30.90618 14.44656,78.89118 6.87622,112.91838 -12.39764,55.72496 -49.7975,105.13649 -101.05677,133.51307 -51.95553,28.76199 -121.47766,32.25895 -174.56617,8.78071 -8.82988,-3.905 -18.40733,-7.09999 -21.28323,-7.09999 -4.20599,0 -76.63417,18.26697 -99.33348,25.05271 -4.28834,1.28193 -5.16599,0.46311 -4.02107,-3.75163 z m 257.52747,-39.44978 c 56.08844,-20.56305 96.96745,-64.96817 110.93275,-120.50154 6.4965,-25.83343 4.50034,-73.40104 -4.06655,-96.90492 -17.99917,-49.38197 -57.57686,-89.08084 -105.47417,-105.79709 -22.68789,-7.91812 -64.73505,-10.71451 -89.52211,-5.95378 -82.16941,15.78191 -143.21776,95.11801 -137.03519,178.08569 2.17073,29.13047 5.38878,40.98369 18.31163,67.44825 l 10.3354,21.16576 -8.05286,28.83396 c -4.42908,15.85866 -7.31933,29.56748 -6.42279,30.46403 0.89654,0.89652 15.21034,-1.90305 31.80846,-6.22133 l 30.17839,-7.85136 18.87108,9.00632 c 28.94797,13.81561 48.52193,17.76559 81.70842,16.48854 21.48433,-0.82672 33.94377,-2.95251 48.42754,-8.26253 z"
     id="path822"
     inkscape:connector-curvature="0"
     transform="scale(0.74999998)" />
  <path
     style="opacity:1;fill:#ffffff;fill-opacity:1;stroke:#ffffff;stroke-width:2.89265537;stroke-miterlimit:4;stroke-dasharray:none;stroke-opacity:1"
     d="m 371.59537,425.77515 c -27.60134,-9.81146 -50.18928,-23.94803 -71.30837,-44.62809 -45.16283,-44.22395 -62.20323,-83.02608 -49.65295,-113.06313 6.84407,-16.38016 16.95012,-24.52235 30.43704,-24.52235 11.41549,0 11.92801,0.42832 18.62071,15.5617 15.33593,34.67725 15.2935,34.22172 4.57674,49.14454 l -9.61013,13.38188 11.11221,16.13443 c 6.11172,8.87395 16.41832,20.46738 22.90357,25.76319 14.0954,11.51022 38.16019,24.64703 45.14987,24.64703 2.75915,0 9.39918,-5.81738 14.75561,-12.92751 5.35644,-7.11012 11.39499,-12.96775 13.419,-13.01694 2.02402,-0.0492 14.15496,5.17724 26.95766,11.61431 22.99899,11.56367 23.2559,11.8147 21.46224,20.97176 -2.9953,15.29171 -7.87482,22.39916 -20.42878,29.75627 -14.69181,8.60997 -36.27107,9.04711 -58.39442,1.18291 z"
     id="path824"
     inkscape:connector-curvature="0"
     transform="scale(0.74999998)" />
</svg>
