<?xml version="1.0" encoding="utf-8"?>
<!-- Generator: Adobe Illustrator 24.0.0, SVG Export Plug-In . SVG Version: 6.00 Build 0)  -->
<svg version="1.1" id="svg1545" xmlns="http://www.w3.org/2000/svg" xmlns:xlink="http://www.w3.org/1999/xlink" x="0px" y="0px"
	 viewBox="0 0 1345 1000" style="enable-background:new 0 0 1345 1000;" xml:space="preserve">
<style type="text/css">
	.st0{fill:#333333;}
	.st1{fill:#00E0FF;}
	.st2{fill:#E6E6E6;}
	.st3{fill:#C2C2C2;}
	.st4{fill:#989B9D;}
	.st5{opacity:5.000000e-02;enable-background:new    ;}
	.st6{fill:#00C5E0;}
</style>
<g id="layer1" transform="translate(0,-32.416667)">
	<path id="path6492" class="st0" d="M946.8,793.1V389.1l-116.6-67.3l-116.6-67.3L596.9,187l-116.6-67.3L363.6,52.4v404.1
		L946.8,793.1z"/>
	<path id="path6494" class="st1" d="M387,92.8v350.2l536.5,309.8V402.5L387,92.8"/>
	<path id="path6496" class="st2" d="M363.6,52.4L387,38.9l583.2,336.7l-23.3,13.5L363.6,52.4z"/>
	<path id="path6498" class="st3" d="M946.8,389.1l23.3-13.5v404.1l-23.3,13.5L946.8,389.1z"/>
	<path id="path6500" class="st2" d="M363.6,456.4l-349.9,202l583.2,336.7l349.9-202L363.6,456.4z"/>
	<path id="path6502" class="st4" d="M13.7,658.4v26.9l583.2,336.7v-26.9L13.7,658.4z"/>
	<path id="path6508" class="st3" d="M596.9,995.2v26.9l373.3-215.5v-26.9L596.9,995.2"/>
	<path id="path6512" class="st4" d="M363.6,483.4l536.5,309.8L713.6,900.9L177,591.1L363.6,483.4"/>
	<path id="path6516" class="st4" d="M363.6,725.8l-70,40.4l116.6,67.3l70-40.4L363.6,725.8z"/>
	<path id="path6518" class="st5" d="M970.2,375.6l373.3,215.5L970.2,806.6V375.6z"/>
	<path id="path6554" class="st6" d="M387,92.8l536.5,660L387,442.9V92.8z"/>
</g>
</svg>
