<?xml version="1.0" encoding="UTF-8" standalone="no"?>
<!-- Created with Inkscape (http://www.inkscape.org/) -->

<svg
   xmlns:dc="http://purl.org/dc/elements/1.1/"
   xmlns:cc="http://creativecommons.org/ns#"
   xmlns:rdf="http://www.w3.org/1999/02/22-rdf-syntax-ns#"
   xmlns:svg="http://www.w3.org/2000/svg"
   xmlns="http://www.w3.org/2000/svg"
   xmlns:sodipodi="http://sodipodi.sourceforge.net/DTD/sodipodi-0.dtd"
   xmlns:inkscape="http://www.inkscape.org/namespaces/inkscape"
   width="106.95813mm"
   height="21.567699mm"
   viewBox="0 0 106.95813 21.5677"
   version="1.1"
   id="svg8"
   inkscape:version="0.92.4 (5da689c313, 2019-01-14)"
   sodipodi:docname="DDM.svg">
  <defs
     id="defs2" />
  <sodipodi:namedview
     id="base"
     pagecolor="#ffffff"
     bordercolor="#666666"
     borderopacity="1.0"
     inkscape:pageopacity="0.0"
     inkscape:pageshadow="2"
     inkscape:zoom="1.979899"
     inkscape:cx="214.12649"
     inkscape:cy="4.7956153"
     inkscape:document-units="mm"
     inkscape:current-layer="layer1"
     showgrid="false"
     inkscape:window-width="1366"
     inkscape:window-height="745"
     inkscape:window-x="-8"
     inkscape:window-y="-8"
     inkscape:window-maximized="1" />
  <metadata
     id="metadata5">
    <rdf:RDF>
      <cc:Work
         rdf:about="">
        <dc:format>image/svg+xml</dc:format>
        <dc:type
           rdf:resource="http://purl.org/dc/dcmitype/StillImage" />
        <dc:title />
      </cc:Work>
    </rdf:RDF>
  </metadata>
  <g
     inkscape:label="Capa 1"
     inkscape:groupmode="layer"
     id="layer1"
     transform="translate(60.998826,-121.1505)">
    <path
       id="path852"
       style="fill:#32abc6;stroke-width:1.00000012"
       d="m 106.4668,0.390625 c -7.033869,0.10544882 -13.870259,3.9188107 -17.605472,10.90625 -2.50625,4.688315 -2.521281,5.131312 -0.638672,20.257813 0.595091,4.781441 3.778879,8.742187 7.025391,8.742187 0.889149,0 1.365234,1.201155 1.365234,3.443359 0,3.316649 0.155382,3.459516 4.249999,3.869141 2.3375,0.233575 5.825,0.264516 7.75,0.06836 1.925,-0.196157 4.79374,-0.360006 6.375,-0.367187 2.65898,-0.01134 2.8298,-0.237709 2.27539,-3.009766 -0.53983,-2.699149 -0.2538,-3.140758 2.87305,-4.447265 4.00359,-1.672819 5.05676,-3.738064 6.14648,-12.054688 1.52756,-11.65818 0.1214,-16.842276 -6.0332,-22.2460936 -4.06483,-3.5692347 -8.97057,-5.23426058 -13.7832,-5.1621104 z m 209.13672,2.9082031 c -34.97274,0 -37.19497,0.1058299 -36.73047,1.75 0.27193,0.9624189 8.50465,18.7470479 18.29492,39.5214839 9.79027,20.774514 18.12885,37.424479 18.5293,37 0.58343,-0.61848 34.72108,-72.4322681 36.61328,-77.0214839 0.40687,-0.9868346 -7.31993,-1.25 -36.70703,-1.25 z M 147.99414,5.1777344 c -0.0834,-0.048 0.0895,0.1895865 0.17774,0.2285156 0.10687,0.046866 0.0605,0.022815 0.15429,0.0625 -0.11032,-0.1190551 -0.22223,-0.2275196 -0.33203,-0.2910156 z m 11.30664,3.9648437 c -0.0706,0.057071 -0.15722,0.1140394 -0.10351,0.125 0.008,0.002 1.73142,-0.00195 2.04687,-0.00195 0.20375,-3.78e-4 0.40757,3.78e-4 0.61133,0 -0.85219,-0.026457 -1.70376,-0.065976 -2.55469,-0.1230469 z M 172.92383,9.25 c -1.04901,-7.559e-4 -2.09754,0.019911 -3.14649,0.03125 0.17122,0.00102 0.34246,-9.827e-4 0.51368,0 0.9297,0.00302 1.85943,-0.016132 2.78906,-0.03125 -0.0521,-7.56e-5 -0.10417,3.78e-5 -0.15625,0 z M 31.283203,9.265625 C 31.468476,9.4266329 31.652991,9.5645764 31.839844,9.75 32.01563,9.5515748 32.121068,9.3966234 32.185547,9.265625 Z m 154.199217,0 c -1.60816,3.402e-4 -3.21606,5.956e-4 -4.82422,0.00195 0.87434,0.075969 1.98059,0.2985769 2.86524,0.3027344 0.66364,0.00302 1.31338,-0.1372544 1.95898,-0.3046875 z m -21.4043,1.054687 c -1.0787,0.697512 -1.39519,0.878741 -1.11328,0.935547 0.37195,-0.310299 0.74812,-0.61818 1.11328,-0.935547 z M 6.875,11.796875 C 6.812411,11.830891 6.6193503,11.984337 6.2753906,12.25 6.4500048,12.130945 6.6279077,12.016422 6.8046875,11.900391 6.8182938,11.877713 6.8993402,11.784025 6.875,11.796875 Z m 197.8418,4.734375 c -0.15673,0.405165 -0.31283,0.788431 -0.47852,1.179688 0.34737,-0.300095 0.55094,-0.675461 0.47852,-1.179688 z M 504.18945,20.25 c 0.17813,0.21052 0.38124,0.435907 0.68555,0.740234 0.0539,0.05367 0.0974,0.09074 0.14844,0.140625 0.0872,-0.25663 0.17519,-0.516488 0.25781,-0.751953 -0.14638,-0.0038 -0.29409,0.0033 -0.43945,-0.01563 -0.21903,-0.03024 -0.43541,-0.07208 -0.65235,-0.113281 z m -251.54297,1.089844 c -0.18518,0.417713 -0.22386,0.530369 -0.0117,0.134765 0.004,-0.04498 0.008,-0.08979 0.0117,-0.134765 z m -50.99414,0.234375 c -0.0306,0.03402 -0.0571,0.0758 -0.0879,0.111328 0.002,0.01134 0.002,0.03037 0.004,0.03906 0.0282,-0.04989 0.0558,-0.100123 0.084,-0.15039 z m 388.16211,2.052734 c 2.9e-4,0.0033 0.002,0.0052 0.002,0.01172 0.0878,0.01512 0.14824,0.02653 0.27539,0.04883 5.7e-4,-0.01134 7.5e-4,-0.01796 0.002,-0.0293 -0.12601,-0.01512 -0.21837,-0.02747 -0.2793,-0.03125 z M 14.013672,24.703125 c -0.0774,0.0038 -0.151087,0.0099 -0.232422,0.01367 -0.104957,0.340913 -0.165177,0.71595 -0.130859,0.767578 0.107111,-0.221102 0.212254,-0.442872 0.314453,-0.666016 0.01512,-0.03893 0.03401,-0.07593 0.04883,-0.115234 z m 155.886718,9.976563 c -0.008,0.0076 -0.16732,0.168412 -0.18164,0.18164 0.0144,-0.01134 0.042,-0.03409 0.0606,-0.04883 0.0106,-0.01512 0.13719,-0.146419 0.12109,-0.132812 z m 22.45313,0.75 c -0.24469,0.437743 -0.24058,0.471777 -0.13672,0.353515 0.0455,-0.117921 0.0918,-0.218587 0.13672,-0.353515 z m 66.48242,3.02539 c -0.005,0.0189 -0.009,0.03774 -0.0137,0.05664 -2.4e-4,0.11263 0.01,0.222929 0.008,0.335937 -0.0742,0.156851 -0.14195,0.31786 -0.21289,0.476563 -0.0217,0.08466 -0.0421,0.169245 -0.0645,0.253906 -0.002,0.181039 -0.004,0.362459 -0.0117,0.542969 0.0548,-0.02268 0.0992,-0.04575 0.15625,-0.07031 0.33878,-0.585373 0.5343,-1.189895 0.13867,-1.595703 z m 455.68554,0.388672 c -0.34166,2.023672 -0.60068,3.643271 -0.86914,5.306641 0.076,0.161007 0.11387,0.246035 0.18946,0.40625 0.25209,-2.156674 0.44921,-3.765943 0.67968,-5.712891 z M 256.0293,45.501953 c -0.29772,0.571767 -0.5989,1.141422 -0.9375,1.689453 -0.0179,0.03024 -0.0428,0.05369 -0.0625,0.08203 1.2189,-0.0892 1.56458,-0.419986 1.45898,-1.556641 -0.15276,-0.07219 -0.30984,-0.133962 -0.45898,-0.214844 z m 194.6875,5.111328 c -0.0117,0.0038 -0.0211,0.01185 -0.0332,0.01563 0.011,-0.0034 0.0223,-0.0079 0.0332,-0.01172 1.5e-4,-9.64e-4 7e-5,-0.0027 0,-0.0039 z m -4.79297,15.222657 c 0.0181,0.03931 0.0287,0.06263 0.0469,0.101562 0.0797,0.100157 0.15633,0.202701 0.2461,0.294922 0.26033,0.267212 0.66703,0.335642 1,0.503906 -0.42469,-0.308031 -0.86097,-0.601544 -1.29297,-0.90039 z"
       inkscape:connector-curvature="0"
       transform="matrix(0.26458333,0,0,0.26458333,-60.998826,121.1337)" />
    <g
       id="g1342">
      <path
         d="m 384.47656,0.52734375 c -6.52353,-0.13984252 -13.17618,2.74234665 -17.34961,9.04882815 -2.85521,4.3144821 -3.35698,10.5205691 -1.74023,21.5449221 0.77625,5.293039 3.82264,9.21875 7.15039,9.21875 0.88915,0 1.36523,1.201154 1.36523,3.443359 0,3.316649 0.15538,3.457562 4.25,3.867188 2.33749,0.233574 5.825,0.264135 7.75,0.06836 1.925,-0.196157 4.79374,-0.358053 6.375,-0.365234 2.65898,-0.01134 2.82979,-0.235832 2.27539,-3.007813 -0.53983,-2.699149 -0.25379,-3.142749 2.87305,-4.449219 3.99098,-1.667527 4.85663,-3.443379 6.28711,-12.880859 0.78486,-5.177915 0.72254,-8.033453 -0.25977,-11.820313 C 401.03776,5.8837266 392.86404,0.70889998 384.47656,0.52929688 Z M 175.90234,3.3398438 c -20.34999,0 -37.00214,0.3375023 -37.0039,0.75 -0.002,0.4124972 8.19685,18.1800592 18.21875,39.4824222 10.02188,21.302396 18.54603,38.402368 18.94336,38 0.73568,-0.745021 36.84179,-76.9807353 36.84179,-77.7890629 0,-0.2434015 -16.64999,-0.4433597 -37,-0.4433593 z M 313.41797,25.970703 c -0.0618,6.05e-4 -0.12372,6.31e-4 -0.18555,0.002 -0.31154,0.401537 -0.50866,0.703386 -0.26172,0.480469 0.0607,-0.0548 0.31568,-0.345792 0.44727,-0.482422 z m 11.53906,20.074219 c -0.66142,0.168567 -1.32157,0.340944 -1.92578,0.628906 -0.39068,0.186331 0.86301,-0.05482 1.29492,-0.08203 0.20667,-0.185953 0.42006,-0.365076 0.63086,-0.546876 z m 1.66797,0.841797 c -0.0928,0.203338 -0.19401,0.400337 -0.3125,0.583984 -1.19563,1.853443 -1.70794,1.397388 -1.39453,1.84375 1.1065,-0.192756 1.73633,-1.2602 1.70703,-2.427734 z"
         style="fill:#e77333;stroke-width:1.00000012"
         transform="matrix(0.26458333,0,0,0.26458333,-60.998826,121.1337)"
         id="path850"
         inkscape:connector-curvature="0" />
      <path
         d="m 245.57812,0.06835937 c -6.52345,-0.13984239 -13.17617,2.74234743 -17.3496,9.04882813 -2.8552,4.3145195 -3.35699,10.5186535 -1.74024,21.5429685 0.77625,5.293077 3.82264,9.220703 7.15039,9.220703 0.88915,0 1.36524,1.19924 1.36524,3.441407 0,3.316648 0.15537,3.459515 4.25,3.86914 2.3375,0.233575 5.825,0.264517 7.75,0.06836 1.925,-0.196158 4.79374,-0.360007 6.375,-0.367188 2.65898,-0.01134 2.8298,-0.237747 2.27539,-3.009766 -0.53983,-2.699137 -0.25382,-3.140758 2.87304,-4.447265 3.99098,-1.667981 4.85662,-3.445295 6.28711,-12.882813 0.78486,-5.177915 0.72254,-8.031499 -0.25976,-11.818359 C 262.13929,5.4227919 253.96559,0.24807591 245.57812,0.06835937 Z M 37.003906,2.8808594 c -20.349988,0 -37.00214096,0.3375023 -37.003906,0.75 -0.00176504,0.4124976 8.1968577,18.1800716 18.21875,39.4824216 10.021894,21.3024 18.546037,38.402369 18.943359,38 0.735682,-0.74502 36.841797,-76.9807359 36.841797,-77.7890622 0,-0.2434016 -16.649999,-0.4433594 -37,-0.4433594 z M 369.79883,6.015625 c -1.33203,1.3686068 -2.5169,2.9633366 -3.50195,4.789063 0.62664,-0.653404 1.26672,-1.2965332 1.89453,-1.9492192 0.10253,-0.1632756 0.20605,-0.326921 0.30859,-0.4902344 -0.0451,-0.054803 -0.17123,-0.1020783 -0.13672,-0.1640625 0.39191,-0.7038992 0.89739,-1.3384204 1.3457,-2.0078125 0.0242,-0.060793 0.0618,-0.1179083 0.0899,-0.1777344 z M 94.025391,10.376953 c 0.02585,-0.07538 -1.048886,0.33845 -1.935547,0.736328 -0.0123,0.09262 -0.01559,0.191178 -0.01758,0.291016 0.474588,-0.217324 1.053478,-0.50598 1.792968,-0.917969 0.105052,-0.05853 0.154958,-0.09422 0.160157,-0.109375 z M 326.66797,45.576172 c -0.0177,0.02309 -0.0211,0.04455 0.002,0.03906 -10e-4,-0.01292 -2e-4,-0.02624 -0.002,-0.03906 z m 0.0137,0.216797 c -0.19801,0.294211 -0.39575,0.588542 -0.59375,0.882812 0.0382,0.136706 0.0762,0.278515 0.0996,0.419922 0.30547,-0.455028 0.4842,-0.899224 0.49414,-1.302734 z m -1.09766,1.632812 c -0.20192,0.300111 -0.40354,0.600281 -0.60546,0.900391 0.0562,-0.03817 0.1321,-0.05546 0.16796,-0.113281 0.15871,-0.254775 0.29678,-0.521772 0.4375,-0.78711 z"
         style="fill:#ea386b;stroke-width:1.00000012"
         transform="matrix(0.26458333,0,0,0.26458333,-60.998826,121.1337)"
         id="path848"
         inkscape:connector-curvature="0" />
      <g
         id="g1301">
        <path
           id="path844"
           transform="matrix(0.26458333,0,0,0.26458333,-60.998826,121.1337)"
           style="fill:#000800;fill-opacity:1;stroke-width:1.00000012"
           d="m 384.13281,5.3652344 c -0.59754,0.072945 -1.06869,1.1575793 -1.23828,2.9238281 -0.28346,2.9523775 -0.614,3.2801435 -3.06641,3.0234375 -2.00777,-0.210142 -2.74999,0.157222 -2.75,1.365234 0,1.187679 0.64941,1.530888 2.30274,1.214844 2.82677,-0.540397 4.3097,0.971809 3.88086,3.957031 -0.22039,1.534186 0.18715,2.25 1.2832,2.25 1.15666,0 1.52742,-0.77119 1.32031,-2.75 -0.2567,-2.452346 0.071,-2.784894 3.02344,-3.068359 3.505,-0.336378 4.03444,-2.681641 0.60547,-2.681641 -2.50906,0 -4.28828,-1.7375089 -4.08203,-3.9863278 0.0907,-0.9893283 -0.36741,-1.9866992 -1.01758,-2.2167968 -0.0901,-0.030236 -0.17634,-0.043723 -0.26172,-0.03125 z m -277.625,0.734375 c -1.05679,0 -1.46372,0.7350519 -1.24609,2.25 0.43484,3.0270616 -1.06359,4.4952056 -4.01172,3.9316406 -1.765584,-0.337512 -2.304451,-0.08204 -1.960938,0.927734 0.269481,0.792038 1.510738,1.269136 2.880858,1.109375 2.21669,-0.258519 2.2698,-0.169705 0.6582,1.111329 -0.96242,0.764968 -1.74999,1.677422 -1.75,2.029296 0,0.351874 0.67509,0.640625 1.5,0.640625 0.825,0 1.5,-0.569965 1.5,-1.265625 0,-0.695622 0.90008,-2.943734 2,-4.996093 2.4102,-4.4969225 2.50259,-5.7382816 0.42969,-5.7382816 z m 139.07031,0.015625 c -0.54991,0.00756 -1.0147,0.8817156 -1.03124,1.9453125 -0.0387,2.4925231 -1.13902,3.5410151 -3.72071,3.5410151 -1.13923,0 -2.28317,0.625271 -2.54101,1.390626 -0.33989,1.008823 0.20061,1.264981 1.96484,0.927734 2.98152,-0.569953 4.44424,0.910232 3.99609,4.042969 -0.23202,1.621757 0.0818,2.220972 0.99805,1.912109 0.73379,-0.247181 1.33398,-1.382259 1.33398,-2.521484 0,-2.581682 1.04651,-3.683954 3.53907,-3.722657 1.0636,-0.01512 1.91362,-0.4793 1.88867,-1.029297 -0.0251,-0.550026 -0.76373,-0.926683 -1.64258,-0.835937 -2.00922,0.207496 -3.78516,-1.628393 -3.78516,-3.9140625 0,-0.9624945 -0.44999,-1.7435092 -1,-1.7363281 z m 134.53126,0.9863281 c -1.46556,0 -1.28247,2.7431363 0.21874,3.2792965 0.6875,0.24567 1.41759,0.303079 1.62305,0.126953 0.70495,-0.6038128 -0.81035,-3.4062873 -1.84179,-3.4062495 z m 8.19531,0.9550781 c -0.41208,0.069543 -0.86327,0.4511425 -1.07813,1.0957032 -0.22,0.6599803 0.14079,1.0188342 0.80078,0.7988281 0.66002,-0.2199685 1.16619,-0.7262599 1.125,-1.125 -0.0618,-0.5978457 -0.43558,-0.8391124 -0.84765,-0.7695313 z m -277.6211,0.044922 c -1.5024,0 -3.04897,2.7126734 -2.71679,4.7636714 0.11255,0.694867 -0.39596,1.493363 -1.13086,1.775391 -0.73491,0.281953 -1.4419,1.892494 -1.57032,3.578125 -0.16073,2.110602 0.16253,2.9319 1.03907,2.636719 0.70003,-0.235843 1.2861,-1.379126 1.30273,-2.539063 0.0379,-2.662753 1.09324,-3.714844 3.72266,-3.714844 1.13923,0 2.28125,-0.627223 2.53906,-1.392578 0.3467,-1.029089 -0.21677,-1.260493 -2.16211,-0.888672 -2.79389,0.534086 -3.65733,-0.887141 -1.12891,-1.857421 1.88873,-0.7247657 1.96135,-2.3613284 0.10547,-2.3613284 z m 130.89453,0 c -1.81625,0 -1.99109,1.635315 -0.25,2.3378904 0.6875,0.277417 1.36259,0.540558 1.5,0.583985 0.1375,0.04346 0.25001,-0.596918 0.25,-1.4218754 0,-0.8249953 -0.67499,-1.5 -1.5,-1.5 z m 7.5,0 c -0.54992,0 -0.99999,0.4499654 -1,1 0,0.5499969 0.45008,1.0000004 1,0.9999994 0.55,0 1.00001,-0.4500025 1,-0.9999994 0,-0.5500346 -0.45,-1 -1,-1 z M 102.12891,8.2363281 c -0.28358,-0.034016 -0.53967,0.018935 -0.71875,0.1992188 -0.29348,0.2936693 -0.23558,1.0130291 0.12695,1.5996091 0.81471,1.318224 2.54102,1.402745 2.54101,0.125 0,-0.8848981 -1.09848,-1.8157334 -1.94921,-1.9238279 z M 65.078125,9.1035156 c -0.550001,0 -1,0.7011356 -1,1.5585934 0,0.857462 0.449999,1.281337 1,0.941407 0.549997,-0.33978 1,-1.041026 1,-1.558594 0,-0.5175316 -0.450003,-0.9414064 -1,-0.9414064 z M 22.455078,9.4921875 c -0.121474,-0.00378 -0.254779,0.034165 -0.394531,0.1210937 -0.558977,0.3454489 -0.755875,1.0466188 -0.439453,1.5585938 0.857238,1.387049 1.457031,1.129582 1.457031,-0.626953 0,-0.6430875 -0.258595,-1.040451 -0.623047,-1.0527345 z m 6.244141,0 c -0.36446,0.011339 -0.621094,0.409647 -0.621094,1.0527345 0,1.756535 0.599793,2.014002 1.457031,0.626953 C 29.851578,10.6599 29.652738,9.9587301 29.09375,9.6132812 28.954021,9.5267309 28.820715,9.48803 28.699219,9.4921875 Z m 29.755859,0 c -0.121474,-0.00378 -0.254779,0.034165 -0.394531,0.1210937 -0.558977,0.3454489 -0.755875,1.0466188 -0.439453,1.5585938 0.857238,1.387049 1.457031,1.129582 1.457031,-0.626953 0,-0.6430875 -0.258595,-1.040451 -0.623047,-1.0527345 z m 103.000002,0 c -0.12148,-0.00378 -0.25478,0.034165 -0.39453,0.1210937 -0.55898,0.3454489 -0.75592,1.0466188 -0.43946,1.5585938 0.85721,1.387049 1.45703,1.129582 1.45703,-0.626953 0,-0.6430875 -0.25859,-1.040451 -0.62304,-1.0527345 z m 6.24414,0 c -0.36442,0.011339 -0.62109,0.409647 -0.6211,1.0527345 0,1.756535 0.59981,2.014002 1.45704,0.626953 0.31642,-0.511975 0.11758,-1.2131449 -0.44141,-1.5585938 -0.13973,-0.086551 -0.27303,-0.1252512 -0.39453,-0.1210937 z m 29.75586,0 c -0.12148,-0.00378 -0.25478,0.034165 -0.39453,0.1210937 -0.55898,0.3454489 -0.7559,1.0466188 -0.43946,1.5585938 0.85723,1.387049 1.45704,1.129582 1.45703,-0.626953 0,-0.6430875 -0.25859,-1.040451 -0.62304,-1.0527345 z m 6.24414,0 c -0.36444,0.011339 -0.62109,0.409647 -0.6211,1.0527345 0,1.756535 0.59981,2.013775 1.45704,0.626953 0.31644,-0.511975 0.11756,-1.2131449 -0.44141,-1.5585938 -0.13974,-0.086551 -0.27305,-0.1252512 -0.39453,-0.1210937 z m 96.75586,0 c -0.12148,-0.00378 -0.25478,0.034165 -0.39453,0.1210937 -0.55898,0.3454489 -0.75589,1.0485348 -0.43946,1.5605468 0.85723,1.387049 1.45703,1.127629 1.45703,-0.628906 0,-0.6430875 -0.25859,-1.040451 -0.62304,-1.0527345 z m 6.24414,0 c -0.36442,0.011339 -0.6211,0.409647 -0.6211,1.0527345 0,1.756535 0.59981,2.015955 1.45704,0.628906 0.31646,-0.512012 0.11758,-1.2150979 -0.44141,-1.5605468 -0.13973,-0.086551 -0.27303,-0.1252512 -0.39453,-0.1210937 z m 29.75586,0 c -0.12148,-0.00378 -0.25478,0.034165 -0.39453,0.1210937 -0.55898,0.3454489 -0.75589,1.0485348 -0.43946,1.5605468 0.85722,1.387049 1.45703,1.127629 1.45703,-0.628906 0,-0.6430875 -0.25859,-1.040451 -0.62304,-1.0527345 z m 6.24414,0 c -0.36442,0.011339 -0.62109,0.409647 -0.6211,1.0527345 0,1.756535 0.59981,2.015955 1.45704,0.628906 0.31642,-0.512012 0.11758,-1.2150979 -0.44141,-1.5605468 -0.13973,-0.086551 -0.27307,-0.1252512 -0.39453,-0.1210937 z M 8.7285156,9.5019531 C 8.6223487,9.486835 8.5134752,9.4867858 8.40625,9.5039062 8.2633083,9.5265834 8.1224451,9.5757461 7.9921875,9.65625 7.4712174,9.9782657 7.3088663,10.668483 7.6308594,11.189453 c 0.3219779,0.52097 1.0102837,0.683306 1.53125,0.361328 C 9.6830795,11.228766 9.8473572,10.538548 9.5253906,10.017578 9.3442757,9.7246655 9.0469824,9.5456445 8.7285156,9.5019531 Z m 7.0000004,0 c -0.106167,-0.015118 -0.215041,-0.015144 -0.322266,0.00195 -0.142942,0.022677 -0.283813,0.07184 -0.414062,0.1523438 -0.520971,0.3220157 -0.683314,1.0122331 -0.361329,1.5332031 0.321978,0.52097 1.010284,0.683306 1.53125,0.361328 0.52097,-0.322015 0.685244,-1.012233 0.363282,-1.533203 C 16.344276,9.7239313 16.046982,9.5456067 15.728516,9.5019531 Z m 29,0 c -0.106167,-0.015118 -0.215041,-0.015144 -0.322266,0.00195 -0.142942,0.022677 -0.283813,0.07184 -0.414062,0.1523438 -0.520967,0.3220157 -0.683318,1.0122331 -0.361329,1.5332031 0.321978,0.52097 1.01028,0.683306 1.53125,0.361328 0.52097,-0.322015 0.685244,-1.012233 0.363282,-1.533203 C 45.344276,9.7246903 45.046982,9.5456067 44.728516,9.5019531 Z m 7,0 c -0.106167,-0.015118 -0.215041,-0.015144 -0.322266,0.00195 -0.142942,0.022677 -0.283813,0.07184 -0.414062,0.1523438 -0.520971,0.3220157 -0.683322,1.0122331 -0.361329,1.5332031 0.321978,0.52097 1.01028,0.683306 1.53125,0.361328 0.52097,-0.322015 0.685244,-1.012233 0.363282,-1.533203 C 52.344276,9.7246903 52.046979,9.5456067 51.728516,9.5019531 Z m 96.000004,0 c -0.10617,-0.015118 -0.21504,-0.015144 -0.32227,0.00195 -0.14294,0.022677 -0.2838,0.07184 -0.41406,0.1523438 -0.52097,0.3220157 -0.68333,1.0122331 -0.36133,1.5332031 0.32198,0.52097 1.01028,0.683306 1.53125,0.361328 0.52097,-0.322015 0.68524,-1.012233 0.36328,-1.533203 -0.18111,-0.2929126 -0.4784,-0.4719714 -0.79687,-0.515625 z m 7,0 c -0.10617,-0.015118 -0.21504,-0.015144 -0.32227,0.00195 -0.14294,0.022677 -0.2838,0.07184 -0.41406,0.1523438 -0.52097,0.3220157 -0.68332,1.0122331 -0.36133,1.5332031 0.32198,0.52097 1.01028,0.683306 1.53125,0.361328 0.52097,-0.322015 0.68523,-1.012233 0.36328,-1.533203 -0.18111,-0.2929126 -0.4784,-0.4719714 -0.79687,-0.515625 z m 29,0 c -0.10617,-0.015118 -0.21504,-0.015144 -0.32227,0.00195 -0.14294,0.022677 -0.28381,0.07184 -0.41406,0.1523438 -0.52097,0.3220157 -0.68333,1.0122331 -0.36133,1.5332031 0.32198,0.52097 1.01028,0.683306 1.53125,0.361328 0.52097,-0.322015 0.68523,-1.012233 0.36328,-1.533203 -0.18111,-0.2929126 -0.47841,-0.4719714 -0.79687,-0.515625 z m 7,0 c -0.10617,-0.015118 -0.21504,-0.015144 -0.32227,0.00195 -0.14294,0.022677 -0.2838,0.07184 -0.41406,0.1523438 -0.52097,0.3220157 -0.68333,1.0122331 -0.36133,1.5332031 0.32198,0.52097 1.01028,0.683306 1.53125,0.361328 0.52097,-0.322015 0.68523,-1.012233 0.36328,-1.533203 -0.18111,-0.2929126 -0.47841,-0.4719714 -0.79687,-0.515625 z m 96,0 c -0.10617,-0.015118 -0.21504,-0.015144 -0.32227,0.00195 -0.14294,0.022677 -0.28381,0.07184 -0.41406,0.1523438 -0.52097,0.3220157 -0.68333,1.0122331 -0.36133,1.5332031 0.32198,0.52097 1.01028,0.683306 1.53125,0.361328 0.52097,-0.322015 0.68523,-1.012233 0.36328,-1.533203 -0.18111,-0.2929126 -0.47841,-0.4719714 -0.79687,-0.515625 z m 7,0 c -0.10617,-0.015118 -0.21504,-0.015144 -0.32227,0.00195 -0.14294,0.022677 -0.2838,0.07184 -0.41406,0.1523438 -0.52097,0.3220157 -0.68333,1.0122331 -0.36133,1.5332031 0.32198,0.52097 1.01028,0.683306 1.53125,0.361328 0.52097,-0.322015 0.68523,-1.012233 0.36328,-1.533203 -0.18111,-0.2929126 -0.47841,-0.4719714 -0.79687,-0.515625 z m 29,0 c -0.10617,-0.015118 -0.21504,-0.015144 -0.32227,0.00195 -0.14294,0.022677 -0.28381,0.07184 -0.41406,0.1523438 -0.52096,0.3220157 -0.68332,1.0122331 -0.36133,1.5332031 0.32198,0.52097 1.01028,0.683306 1.53125,0.361328 0.52097,-0.322015 0.68523,-1.012233 0.36328,-1.533203 -0.18111,-0.2929126 -0.47841,-0.4719714 -0.79687,-0.515625 z m 7,0 c -0.10617,-0.015118 -0.21504,-0.015144 -0.32227,0.00195 -0.14294,0.022677 -0.2838,0.07184 -0.41406,0.1523438 -0.52097,0.3220157 -0.68333,1.0122331 -0.36133,1.5332031 0.32198,0.52097 1.01028,0.683306 1.53125,0.361328 0.52097,-0.322015 0.68523,-1.012233 0.36328,-1.533203 -0.18111,-0.2929126 -0.4784,-0.4719714 -0.79687,-0.515625 z m -14.78907,0.7343749 c -2.19585,0.155339 -3.73201,5.438315 -2.25586,9.285156 0.89308,2.32732 3.31335,1.924652 4.31836,-0.71875 0.97454,-2.5632 0.33785,-7.419622 -1.08789,-8.300781 -0.33381,-0.206362 -0.66091,-0.287546 -0.97461,-0.265625 z M 176.03906,10.3125 c -1.75998,-0.04611 -3.16095,3.914997 -2.49609,7.458984 0.47455,2.529563 1.10302,3.369424 2.3418,3.13086 1.31613,-0.253607 1.69335,-1.416976 1.69335,-5.228516 0,-2.883742 -0.48821,-5.06703 -1.18359,-5.298828 -0.12004,-0.04006 -0.23815,-0.05948 -0.35547,-0.0625 z M 37.017578,10.603516 c -1.88019,0 -3.381757,4.602934 -2.564453,7.859375 0.853368,3.400138 3.387009,3.395079 4.681641,-0.01172 1.194379,-3.141468 -0.07551,-7.847656 -2.117188,-7.847656 z m 56.392578,0.5 c -1.85184,0 -1.666786,2.974042 0.322266,5.171875 2.526769,2.79205 3.270752,2.194997 2.083984,-1.671875 -0.5908,-1.924989 -1.673532,-3.5 -2.40625,-3.5 z m 25.642574,0 c -0.98335,0 -2.9746,4.08342 -2.97461,6.099609 0,0.593386 0.77678,0.556839 2,-0.09766 2.06402,-1.104605 2.85909,-6 0.97461,-6 z m 138.62305,0 c -1.09461,0 -3.59766,4.64189 -3.59766,6.671875 0,0.205606 1.12508,-0.362822 2.5,-1.263672 2.67674,-1.75389 3.41837,-5.408203 1.09766,-5.408203 z m 138.96094,0 c -1.68457,0 -2.05202,0.534001 -2.95117,4.292968 -0.66662,2.786835 -0.66326,2.788914 1.86133,1.134766 2.72206,-1.783635 3.45418,-5.427734 1.08984,-5.427734 z m -164.25781,0.126953 c -1.76146,-0.106961 -1.64754,1.833785 0.35351,4.044922 2.36272,2.610708 3.28854,2.260373 2.4375,-0.921875 -0.40449,-1.51253 -1.49111,-2.896392 -2.41406,-3.074219 -0.1341,-0.02646 -0.25952,-0.04165 -0.37695,-0.04883 z m 138.95898,0 c -1.93117,-0.06236 -1.52098,2.553781 0.91602,4.824219 2.67492,2.492061 2.97545,2.262342 1.96875,-1.501954 -0.43387,-1.6224 -1.54385,-3.09561 -2.4668,-3.273437 -0.14963,-0.03024 -0.28922,-0.04467 -0.41797,-0.04883 z m -126.0332,0.824219 c 0.41207,-0.06954 0.78581,0.171572 0.84765,0.769531 0.0412,0.398778 -0.465,0.904993 -1.125,1.125 -0.65999,0.219968 -1.02078,-0.138734 -0.80078,-0.798828 0.21486,-0.644561 0.66606,-1.02613 1.07813,-1.095703 z m 139,0 c 0.41206,-0.06954 0.78582,0.171572 0.84765,0.769531 0.0412,0.398778 -0.46498,0.904993 -1.125,1.125 -0.65998,0.219968 -1.02078,-0.138734 -0.80078,-0.798828 0.21487,-0.644561 0.66606,-1.02613 1.07813,-1.095703 z m -154.94922,3.044921 c -1.34466,0 -1.74764,2.197632 -0.61133,3.333985 0.36666,0.366614 1.71228,0.666015 2.99024,0.666015 2.22761,0 2.25314,-0.08238 0.61132,-2 -0.94185,-1.099956 -2.28746,-2 -2.99023,-2 z m 19.25391,0 c -0.89501,0 -1.24515,0.5863 -0.89454,1.5 0.3166,0.824996 0.97759,1.5 1.46875,1.5 0.49113,0 0.89454,-0.675004 0.89453,-1.5 0,-0.824995 -0.66109,-1.5 -1.46874,-1.5 z m 119.74609,0 c -1.34466,0 -1.74765,2.197632 -0.61133,3.333985 0.36665,0.366614 1.71229,0.666015 2.99024,0.666015 2.22761,0 2.25314,-0.08238 0.61132,-2 -0.94185,-1.099956 -2.28746,-2 -2.99023,-2 z m 19.14648,0 c -0.79963,0 -1.12506,0.619257 -0.78711,1.5 0.31658,0.824996 1.18862,1.5 1.9375,1.5 0.79964,0 1.12508,-0.619256 0.78711,-1.5 -0.31657,-0.824995 -1.1886,-1.5 -1.9375,-1.5 z m -144.99804,0.115235 c -0.13672,-0.01134 -0.30078,0.01148 -0.48829,0.07422 -0.72181,0.240756 -1.50936,1.028119 -1.75,1.75 -0.24992,0.749972 0.12509,1.124978 0.875,0.875 0.72188,-0.240747 1.50943,-1.028185 1.75,-1.75 0.1875,-0.562499 0.0234,-0.914069 -0.38671,-0.949218 z m 139,0 c -0.13671,-0.01134 -0.30078,0.01148 -0.48829,0.07422 -0.7218,0.240756 -1.50935,1.028119 -1.75,1.75 -0.24993,0.749972 0.12507,1.124978 0.875,0.875 0.72188,-0.240747 1.50943,-1.028185 1.75,-1.75 0.18751,-0.562499 0.0234,-0.914069 -0.38671,-0.949218 z m -120.21094,0.154297 c -0.57931,0.02646 -1.45301,0.525292 -2.46485,1.537109 l -2.19531,2.195312 h 2.25391 c 1.23949,0 2.52002,-0.694238 2.8457,-1.542968 0.56274,-1.466457 0.30537,-2.221542 -0.43945,-2.189453 z m -151.92578,0.04297 c -0.22145,0.05556 -0.28906,0.403957 -0.28907,1.06836 0,0.892346 0.67509,1.623047 1.5,1.623047 0.825,0 1.50001,-0.169457 1.5,-0.376954 0,-0.207488 -0.675,-0.938423 -1.5,-1.623046 -0.61418,-0.509821 -0.9895,-0.747117 -1.21093,-0.691407 z m 291.13086,0.123047 v 0.002 c -0.77941,0.08013 -1.98158,0.650132 -3.06446,1.501953 l -2.625,2.064454 h 2.51172 c 2.85713,0 5.50266,-2.422377 3.79688,-3.476563 -0.14551,-0.08995 -0.35932,-0.118229 -0.61914,-0.0918 z M 89.759766,15.677734 c -0.41517,-0.03931 -0.755219,0.107717 -1.066407,0.423828 -0.824772,0.837544 -0.607497,1.508252 0.826172,2.566407 1.067622,0.787956 2.86762,1.419729 4,1.402343 1.868678,-0.03024 1.790781,-0.265316 -0.826172,-2.566406 -1.339143,-1.177398 -2.241645,-1.760899 -2.933593,-1.826172 z m 33.091794,0.115235 c -0.66754,-0.03402 -1.61661,0.575986 -2.76172,1.794922 -2.28657,2.43394 -2.29571,2.515625 -0.30859,2.515625 2.57438,0 4.99706,-2.700131 3.64063,-4.056641 -0.15697,-0.15685 -0.3478,-0.241812 -0.57032,-0.253906 z M 16.578125,16.101562 c -2.748117,0 -3.084381,1.04113 -1.369141,4.246094 1.095867,2.047635 1.174887,2.054207 2.5,0.242188 2.072716,-2.834646 1.656422,-4.488282 -1.130859,-4.488282 z m 41,0 c -2.745298,0 -3.083479,1.042073 -1.375,4.234376 1.123325,2.098952 1.127277,2.097691 2.464844,-0.316407 1.887069,-3.406034 1.744458,-3.917969 -1.089844,-3.917969 z m 237.066405,0 c -2.79617,0 -3.15872,1.02707 -1.47461,4.173829 1.18981,2.223193 2.30276,1.586446 3.36328,-1.923829 0.58179,-1.925585 0.30856,-2.25 -1.88867,-2.25 z m 40.93359,0 c -2.67144,0 -2.80505,0.264944 -1.87109,3.75 0.78718,2.937336 1.77705,2.84587 3.20899,-0.296874 1.55195,-3.406186 1.53537,-3.453126 -1.3379,-3.453126 z m -181.22656,1.052735 c -1.30594,0.106205 -1.31389,1.004868 -0.23047,3.029297 l 1.20703,2.253906 1.30469,-2.417969 c 1.17276,-2.172775 1.10057,-2.450787 -0.71093,-2.748047 -0.34606,-0.05669 -0.6553,-0.09671 -0.92969,-0.115234 -0.24012,-0.01512 -0.45405,-0.01467 -0.64063,-0.002 z m 41,0 c -1.30594,0.106205 -1.3139,1.004944 -0.23047,3.029297 l 1.20703,2.253906 1.30469,-2.417969 c 1.17276,-2.172775 1.10057,-2.450787 -0.71093,-2.748047 -0.34606,-0.05669 -0.65529,-0.09671 -0.92969,-0.115234 -0.24012,-0.01512 -0.45406,-0.01467 -0.64063,-0.002 z M 47.685547,18.101562 c -1.535426,0 -4.39495,2.002798 -4.958985,3.472657 -0.882787,2.300523 0.71131,1.837762 3.351563,-0.972657 1.291737,-1.374984 2.014451,-2.5 1.607422,-2.5 z m -20.943359,0.08398 c -0.06127,0.0076 -0.111134,0.03012 -0.148438,0.06641 -0.258973,0.258898 0.218947,1.455848 1.0625,2.660156 1.53546,2.192126 3.421875,2.932286 3.421875,1.34375 0,-1.060308 -3.416836,-4.17697 -4.335937,-4.070312 z m 138.947262,0.0625 c -0.0687,0.01134 -0.12594,0.03768 -0.16797,0.07813 -0.33611,0.336 0.36507,1.585696 1.55664,2.777344 1.19167,1.191722 2.44124,1.890801 2.77735,1.554687 0.33611,-0.336 -0.36495,-1.585696 -1.55664,-2.777344 -1.0427,-1.042658 -2.12865,-1.707647 -2.60938,-1.632812 z m 139.13086,0.08984 c -0.17745,-0.02268 -0.31899,0.0074 -0.41015,0.09961 -0.35993,0.359811 0.16357,1.556761 1.16211,2.660156 1.88671,2.084788 3.50586,2.619999 3.50585,1.160156 0,-1.160609 -3.01563,-3.773125 -4.25781,-3.919921 z m -119.14843,0.107421 c -0.75481,-0.08239 -2.3885,1.09793 -3.375,2.677735 -0.68033,1.089335 -0.93053,1.980469 -0.55665,1.980469 0.99775,0 4.3379,-3.174424 4.33789,-4.123047 0,-0.340158 -0.15473,-0.507717 -0.40624,-0.535157 z m 139.06054,0.06836 c -0.9305,-0.108473 -3.4619,1.64495 -4.00586,3.0625 -0.32247,0.840227 -0.2987,1.527344 0.0527,1.527344 1.00344,0 4.29882,-3.211047 4.29882,-4.189454 0,-0.250196 -0.13095,-0.375294 -0.3457,-0.40039 z m -61.55078,0.818359 c -0.19693,0.0076 -0.42607,0.06038 -0.68555,0.160157 -0.86998,0.333724 -2.24612,0.607421 -3.05859,0.607421 -0.81248,0 -1.19922,0.450004 -0.85938,1 1.03914,1.681361 5.5,1.188602 5.5,-0.607421 0,-0.790942 -0.30562,-1.182078 -0.89648,-1.160157 z m 102.79297,0 c -0.59084,-0.02268 -0.89648,0.369253 -0.89649,1.160157 0,1.796023 4.46095,2.288782 5.5,0.607421 0.33994,-0.549996 -0.0469,-1 -0.85937,-1 -0.81247,0 -2.18861,-0.273622 -3.05859,-0.607421 -0.25951,-0.0994 -0.4886,-0.152598 -0.68555,-0.160157 z m 36.20703,0 c -0.19691,0.0076 -0.42607,0.06038 -0.68555,0.160157 -0.86998,0.333724 -2.24612,0.607421 -3.05859,0.607421 -0.81247,0 -1.19923,0.450004 -0.85938,1 1.03914,1.681361 5.50001,1.188602 5.5,-0.607421 0,-0.790942 -0.30564,-1.182078 -0.89648,-1.160157 z m -174.83008,0.691407 c -0.39875,-0.0412 -0.88496,0.40873 -1.08203,1 -0.45221,1.356577 4.47358,1.425686 5.30859,0.07422 0.33992,-0.550034 -0.30894,-1 -1.4414,-1 -1.13246,0 -2.38641,-0.03416 -2.78516,-0.07422 z m 9.40039,0.07422 c -4.89293,0 -7.42547,6.408335 -4.01953,10.171875 2.05816,2.27418 5.11649,2.344978 7.51563,0.173828 3.58189,-3.241549 1.18172,-10.345703 -3.4961,-10.345703 z m 17.32617,0 c -2.57547,0 -5.99999,3.424441 -6,6 0,1.099994 0.90008,2.899969 2,4 1.10001,1.099994 2.90009,2 4,2 1.10001,0 2.90007,-0.900006 4,-2 1.09999,-1.100031 2.00001,-2.900006 2,-4 0,-2.575559 -3.42443,-6 -6,-6 z m 121.41602,0 c -2.0304,0 -6.41601,4.101695 -6.41602,6 0,0.401651 0.93234,1.91605 2.07227,3.365235 2.36915,3.011905 5.4414,3.384361 8.09766,0.980468 3.69221,-3.341404 1.15073,-10.345703 -3.75391,-10.345703 z m 17.58398,0 c -2.57548,0 -5.99999,3.424441 -6,6 0,1.099994 0.90008,2.899969 2,4 1.09999,1.099994 2.90007,2 4,2 1.1,0 2.90008,-0.900006 4,-2 1.10001,-1.100031 2.00001,-2.900006 2,-4 0,-2.575559 -3.42444,-6 -6,-6 z m -267.7832,0.121094 c -0.40156,-0.001 -1.00071,0.106642 -1.83789,0.316406 -1.58428,0.396775 -4.75585,0.670427 -7.04883,0.607422 -3.27153,-0.08995 -4.50938,0.371492 -5.75,2.142578 -2.06908,2.954003 -1.99591,4.014648 0.49219,7.177735 2.38943,3.037719 4.51895,3.309031 7.81836,0.998047 1.9478,-1.364297 2.25167,-2.265504 1.82813,-5.423829 -0.47658,-3.553171 -0.35108,-3.776367 2.02734,-3.613281 1.39574,0.09562 2.7558,-0.450762 3.02539,-1.216797 0.2372,-0.674041 0.11455,-0.985824 -0.55469,-0.988281 z m -36.644529,0.197266 c -1.74581,-0.03024 -2.705647,0.655675 -2.029297,1.75 0.715079,1.157064 3.510801,1.183464 5.300781,0.04883 0.991279,-0.628233 0.651501,-1.027084 -1.294922,-1.515625 -0.724747,-0.181796 -1.394629,-0.272621 -1.976562,-0.283203 z m 8.875,0.697265 c -1.912831,-0.03402 -3.85076,0.722441 -4.890625,2.207031 -2.09517,2.99127 -1.959249,5.374699 0.443359,7.777344 2.402612,2.402608 4.786055,2.538541 7.777345,0.44336 2.63931,-1.848643 2.98286,-6.538634 0.65039,-8.871094 -1.02045,-1.020473 -2.492715,-1.528937 -3.980469,-1.556641 z m -61.355469,4.558594 c -0.261468,-0.0038 -0.496569,0.02635 -0.689453,0.101563 -1.739237,0.66738 -1.855135,4.977094 -0.152344,5.658203 3.362101,1.344869 6.23047,-2.722462 3.402344,-4.824219 -0.761968,-0.566211 -1.776099,-0.919446 -2.560547,-0.935547 z m 277.999998,0 c -0.26147,-0.0038 -0.49655,0.02635 -0.68945,0.101563 -1.73924,0.66738 -1.85504,4.977094 -0.15235,5.658203 3.3621,1.344869 6.23048,-2.722462 3.40235,-4.824219 -0.76196,-0.566211 -1.7761,-0.919446 -2.56055,-0.935547 z M 188.11133,26.02929 c -1.14449,0.03402 -2.33571,0.245683 -3.45117,0.673828 -1.88732,0.724233 -2.09169,3.020409 -0.33204,3.730469 2.99455,1.208315 8.82472,0.626896 9.42579,-0.939453 0.7935,-2.067667 -2.20911,-3.566513 -5.64258,-3.464844 z M 49.789062,26.06835 c -3.291601,-0.07635 -6.193318,1.326947 -5.388671,3.423829 0.80121,2.087954 8.919672,2.221424 10.61914,0.173828 0.947902,-1.142136 0.783685,-1.647705 -0.8125,-2.501954 -1.345935,-0.720256 -2.921782,-1.059129 -4.417969,-1.09375 z M 24,26.095703 c -4.248465,0 -7.275443,2.530481 -4.857422,4.060547 2.164229,1.369474 8.541225,1.118806 9.789063,-0.384766 C 30.590853,27.772265 28.341003,26.095703 24,26.095703 Z m 278,0 c -4.24845,0 -7.27544,2.530481 -4.85742,4.060547 2.16423,1.369474 8.54126,1.118806 9.78906,-0.384766 C 308.59085,27.772265 306.34101,26.095703 302,26.095703 Z M 162.52148,26.125 c -3.4396,0.06765 -6.24884,1.766752 -4.2207,3.794922 1.64432,1.644283 8.28736,1.470957 9.71875,-0.253906 0.9479,-1.142174 0.78368,-1.645752 -0.8125,-2.5 -1.42935,-0.764977 -3.12209,-1.071895 -4.68555,-1.041016 z m 165.05664,0.0039 c -3.87625,0 -5.95219,1.348958 -5.17773,3.367188 0.86597,2.256718 9.48752,2.256718 10.35352,0 0.77446,-2.01823 -1.29945,-3.367188 -5.17579,-3.367188 z m -151.24804,0.109375 c -0.15685,0.002 -0.32032,0.01525 -0.48828,0.03906 -2.56293,0.36548 -3.63743,3.652813 -1.61328,4.935547 1.87471,1.188094 2.42364,1.102513 3.83789,-0.601563 1.67043,-2.012749 0.61638,-4.396794 -1.73633,-4.371094 z m 68.77148,5.960938 c -0.61421,0.05556 -1.12179,0.816226 -1.84179,2.396484 -1.07622,2.362054 -0.97438,2.5 1.83984,2.5 3.12471,0 3.90583,-1.672227 1.77734,-3.800781 -0.75616,-0.756095 -1.29766,-1.138865 -1.77539,-1.095703 z m 139.26172,0.193359 c -0.5641,-0.08693 -1.04258,0.323522 -1.78516,1.304688 -0.79025,1.044094 -1.45145,2.235939 -1.46874,2.648437 -0.0174,0.412498 1.31882,0.75 2.96874,0.75 3.30459,0 4.00527,-1.920231 1.46876,-4.025391 -0.4748,-0.394045 -0.84514,-0.62569 -1.1836,-0.677734 z m -278.32617,0.703125 c -0.7549,0 -2.9863,4.640646 -2.47656,5.150391 0.19237,0.192378 1.51275,0.349609 2.93359,0.349609 1.66666,0 2.58398,-0.550794 2.58398,-1.550781 0,-1.555238 -1.84426,-3.949219 -3.04101,-3.949219 z m -63.294922,1.083985 c -0.06127,0.0076 -0.111134,0.03019 -0.148438,0.06836 -0.258973,0.258898 0.218947,1.455847 1.0625,2.660156 1.53546,2.192202 3.421875,2.932286 3.421875,1.34375 0,-1.060309 -3.41684,-4.177008 -4.335937,-4.070312 z m 278.000002,0 c -0.0613,0.0076 -0.11114,0.03019 -0.14844,0.06836 -0.25897,0.258898 0.21895,1.455847 1.0625,2.660156 1.53548,2.192202 3.42187,2.932286 3.42187,1.34375 0,-1.060309 -3.41683,-4.177008 -4.33593,-4.070312 z m -139.05274,0.06055 c -0.0687,0.01134 -0.12594,0.03964 -0.16797,0.08008 -0.33611,0.336 0.36507,1.585659 1.55664,2.777344 1.19167,1.19161 2.44124,1.888848 2.77735,1.552735 0.33611,-0.336 -0.36499,-1.585659 -1.55664,-2.777344 -1.0427,-1.042696 -2.12864,-1.70577 -2.60938,-1.630859 z m -150.957028,0.26758 c -0.930501,-0.108464 -3.461899,1.644997 -4.00586,3.0625 -0.322461,0.840303 -0.299137,1.527344 0.05273,1.527344 1.003442,0 4.298828,-3.211047 4.298828,-4.189453 0,-0.250205 -0.13095,-0.375332 -0.345703,-0.400391 z m 138.999998,0 c -0.9305,-0.108464 -3.46191,1.644997 -4.00586,3.0625 -0.32247,0.840303 -0.29874,1.527344 0.0527,1.527344 1.00344,0 4.29882,-3.211047 4.29882,-4.189453 0,-0.250205 -0.13095,-0.375332 -0.3457,-0.400391 z m 139,0 c -0.9305,-0.108464 -3.46191,1.644997 -4.00586,3.0625 -0.32247,0.840303 -0.29878,1.527344 0.0527,1.527344 1.00344,0 4.29883,-3.211047 4.29882,-4.189453 0,-0.250205 -0.13095,-0.375332 -0.3457,-0.400391 z M 36.427734,36.25 c -0.537959,0.03402 -1.045624,0.33526 -1.435546,0.951172 -1.024355,1.617751 -1.188366,6.021792 -0.308594,8.314453 1.696985,4.422274 6.019667,-1.079648 4.767578,-6.068359 C 38.93781,37.401861 37.611241,36.176035 36.427734,36.25 Z m 277.999996,0 c -0.53797,0.03402 -1.04561,0.33526 -1.43554,0.951172 -1.02436,1.617751 -1.18836,6.021792 -0.3086,8.314453 1.69697,4.422274 6.01967,-1.079648 4.76758,-6.068359 -0.51336,-2.045405 -1.83993,-3.271231 -3.02344,-3.197266 z m -138.32617,0.349609 c -2.2702,0 -3.61049,4.920235 -2.18945,8.039063 1.84188,4.042507 3.66602,2.488455 3.66601,-3.123047 0,-3.668069 -0.37546,-4.916016 -1.47656,-4.916016 z m 62.97656,4.5 c -0.54991,0 -0.99998,0.449966 -1,1 0,0.549959 0.45009,1 1,1 0.55001,0 1.00001,-0.450041 1,-1 0,-0.550034 -0.44999,-1 -1,-1 z m 12,0 c -0.54991,0 -0.99999,0.449966 -1,1 0,0.549959 0.45009,1 1,1 0.55001,0 1.00001,-0.450041 1,-1 0,-0.550034 -0.44999,-1 -1,-1 z m 127,0 c -0.54992,0 -1,0.449966 -1,1 0,0.549959 0.45008,1 1,1 0.55,0 1.00001,-0.450041 1,-1 0,-0.550034 -0.45,-1 -1,-1 z m 12,0 c -0.54992,0 -1,0.449966 -1,1 0,0.549959 0.45008,1 1,1 0.55,0 1.00001,-0.450041 1,-1 0,-0.550034 -0.45,-1 -1,-1 z m -289.93945,0.978516 c -0.209746,-0.0189 -0.438363,0.06531 -0.662108,0.289063 -0.330058,0.329944 -0.247196,1.170167 0.183594,1.867187 0.630034,1.019187 0.866344,1.020231 1.205074,0.0039 0.36254,-1.087597 -0.0972,-2.099532 -0.72656,-2.160156 z m 12.58985,0.419922 c -0.10617,-0.01512 -0.21504,-0.01557 -0.32227,0.002 -0.14294,0.02268 -0.28381,0.07184 -0.41406,0.152344 -0.52097,0.322015 -0.68332,1.012233 -0.36133,1.533203 0.32198,0.520819 1.01028,0.683344 1.53125,0.361328 0.52097,-0.322016 0.68523,-1.012233 0.36328,-1.533203 -0.18111,-0.292914 -0.47841,-0.471934 -0.79687,-0.515625 z m 132.3496,0.601562 c -0.54992,0 -0.99999,0.450004 -1,1 0,0.549997 0.45008,1 1,1 0.55,0 1.00001,-0.450003 1,-1 0,-0.549996 -0.45,-1 -1,-1 z m 139,0 c -0.54992,0 -0.99999,0.450004 -1,1 0,0.549997 0.45008,1 1,1 0.55,0 1,-0.450003 1,-1 0,-0.549996 -0.45,-1 -1,-1 z m -277.93359,1.123047 c -0.10446,-0.01134 -0.20327,-0.01101 -0.29492,0.0078 -0.61115,0.112252 -0.89661,0.859367 -0.30273,1.820312 0.368,0.595389 1.12757,0.801321 1.6875,0.455078 0.68295,-0.422097 0.66501,-0.982994 -0.0527,-1.701171 -0.36098,-0.360945 -0.72372,-0.540885 -1.03711,-0.580079 z m -78.476561,0.876953 c -1.880145,0 -2.927574,1.679373 -2.210938,3.546875 0.637213,1.660574 1.527333,1.798024 3.515625,0.539063 1.699578,-1.076145 0.738718,-4.085938 -1.304687,-4.085938 z m 18.349609,0 c -1.896007,0 -2.73859,2.868889 -1.273437,4.333985 1.028315,1.028334 1.976705,0.799712 3.296875,-0.791016 1.512438,-1.822337 0.529145,-3.542969 -2.023438,-3.542969 z m 120.468752,0 c -2.04072,0 -3.00733,3.011787 -1.30469,4.064453 0.87656,0.541947 1.90433,0.355256 2.76367,-0.503906 1.55756,-1.557052 0.73662,-3.560547 -1.45898,-3.560547 z m 19,0 c -2.04072,0 -3.00733,3.011787 -1.30469,4.064453 0.87656,0.541947 1.90433,0.355256 2.76367,-0.503906 1.55757,-1.557052 0.73663,-3.560547 -1.45898,-3.560547 z m 120.18164,0 c -1.88014,0 -2.92758,1.679373 -2.21094,3.546875 0.63722,1.660574 1.52733,1.798024 3.51563,0.539063 1.69957,-1.076145 0.73872,-4.085938 -1.30469,-4.085938 z m 18.34961,0 c -1.89601,0 -2.73856,2.868889 -1.27344,4.333985 1.02832,1.028334 1.97671,0.799712 3.29688,-0.791016 1.51243,-1.822337 0.52914,-3.542969 -2.02344,-3.542969 z m -286.939455,6 c -0.550001,0 -1,0.450004 -1,1 0,0.549959 0.449999,1 1,1 0.550001,0 1,-0.450041 1,-1 0,-0.549996 -0.449999,-1.000037 -1,-1 z m 138.999995,0 c -0.54992,0 -0.99999,0.450004 -1,1 0,0.549959 0.45008,1 1,1 0.55001,0 1.00001,-0.450041 1,-1 0,-0.549996 -0.44999,-1.000037 -1,-1 z m 139,0 c -0.54992,0 -0.99999,0.450004 -1,1 0,0.549959 0.45008,1 1,1 0.55001,0 1,-0.450041 1,-1 0,-0.549996 -0.44999,-1.000037 -1,-1 z M 36.699219,57.488281 c -0.364422,0.01134 -0.621094,0.409648 -0.621094,1.052735 0,1.756535 0.599789,2.014002 1.457031,0.626953 0.316422,-0.511975 0.117582,-1.213183 -0.441406,-1.558594 -0.139729,-0.08655 -0.273072,-0.125251 -0.394531,-0.121094 z m 139.000001,0 c -0.36442,0.01134 -0.62109,0.409648 -0.6211,1.052735 0,1.756535 0.59981,2.014002 1.45704,0.626953 0.31642,-0.511975 0.11758,-1.213183 -0.44141,-1.558594 -0.13973,-0.08655 -0.27303,-0.125251 -0.39453,-0.121094 z M 314.72852,57.5 c -0.10617,-0.01512 -0.21504,-0.01557 -0.32227,0.002 -0.14294,0.02268 -0.2838,0.07184 -0.41406,0.152344 -0.52097,0.322016 -0.68333,1.012233 -0.36133,1.533203 0.32198,0.520781 1.01028,0.683344 1.53125,0.361328 0.52097,-0.322016 0.68523,-1.012233 0.36328,-1.533203 -0.18111,-0.292913 -0.4784,-0.471934 -0.79687,-0.515625 z M 37.078125,64.101562 c -0.550001,0 -1,0.450012 -1,1 0,0.549997 0.449999,1 1,1 0.550001,0 1,-0.450003 1,-1 0,-0.549988 -0.449999,-1 -1,-1 z m 138.999995,0 c -0.54992,0 -0.99999,0.450012 -1,1 0,0.549997 0.45008,1 1,1 0.55001,0 1.00001,-0.450003 1,-1 0,-0.549988 -0.44999,-1 -1,-1 z m 139.07422,0.142579 c -0.28913,-0.0076 -0.64102,0.08844 -1.02539,0.326171 -0.59554,0.368126 -0.79917,1.127571 -0.45312,1.6875 0.42212,0.682886 0.98103,0.665647 1.69922,-0.05273 0.96262,-0.962457 0.64676,-1.935577 -0.22071,-1.960937 z M 37.078125,71.101562 c -0.550001,0 -1,0.450012 -1,1 0,0.54996 0.449999,1.000001 1,1 0.550001,0 1,-0.45004 1,-1 0,-0.549988 -0.449999,-0.999999 -1,-1 z m 138.999995,0 c -0.54992,0 -0.99999,0.450012 -1,1 0,0.54996 0.45008,1.000001 1,1 0.55001,0 1.00001,-0.45004 1,-1 0,-0.549988 -0.44999,-0.999999 -1,-1 z m 139,0 c -0.54992,0 -0.99999,0.450012 -1,1 0,0.54996 0.45008,1.000001 1,1 0.55001,0 1,-0.45004 1,-1 0,-0.549988 -0.44999,-0.999999 -1,-1 z"
           inkscape:connector-curvature="0" />
      </g>
    </g>
  </g>
</svg>
